<?xml version="1.0" encoding="utf-8"?>
<!-- Generator: Adobe Illustrator 15.1.0, SVG Export Plug-In . SVG Version: 6.00 Build 0)  -->
<!DOCTYPE svg PUBLIC "-//W3C//DTD SVG 1.1//EN" "http://www.w3.org/Graphics/SVG/1.1/DTD/svg11.dtd">
<svg version="1.1" id="Layer_1" xmlns="http://www.w3.org/2000/svg" xmlns:xlink="http://www.w3.org/1999/xlink" x="0px" y="0px"
	 width="252px" height="252px" viewBox="0 0 252 252" enable-background="new 0 0 252 252" xml:space="preserve">
<path fill="#F9A335" d="M105.289,134.885l2.207-0.316l9.395-26.858h6.344l9.335,26.858l2.207,0.316v3.715h-10.522v-3.715
	l2.145-0.383l-1.359-4.238h-10.016l-1.355,4.238l2.145,0.383v3.715h-10.523v-3.715H105.289z M116.492,125.701h7.082l-3.48-10.883
	h-0.121L116.492,125.701z"/>
<path fill="#F9A335" d="M136.773,134.885l2.988-0.637v-14.234l-3.31-0.637v-3.73h9.504v18.602l2.969,0.637v3.716h-12.151V134.885
	L136.773,134.885z M145.957,110.154h-6.195v-4.648h6.195V110.154z"/>
<path fill="#F9A333" d="M30.555,30.553v190.449H221v-13.824V30.553H30.555z M58.203,58.201h135.152V193.35H58.203V58.201z"/>
<polyline fill="#EAEBEC" points="124,58.201 58.203,58.201 58.203,98.557 58.203,58.201 124,58.201 "/>
<polyline fill="#EBD7C0" points="124,30.553 44.375,30.553 44.375,30.584 30.555,30.584 30.555,221.002 58.203,221.002 
	58.203,58.201 124,58.201 124,30.553 "/>
</svg>
