<?xml version="1.0" encoding="utf-8"?>
<!-- Generator: Adobe Illustrator 15.1.0, SVG Export Plug-In . SVG Version: 6.00 Build 0)  -->
<!DOCTYPE svg PUBLIC "-//W3C//DTD SVG 1.1//EN" "http://www.w3.org/Graphics/SVG/1.1/DTD/svg11.dtd">
<svg version="1.1" id="Layer_1" xmlns="http://www.w3.org/2000/svg" xmlns:xlink="http://www.w3.org/1999/xlink" x="0px" y="0px"
	 width="90px" height="72px" viewBox="0 0 90 72" enable-background="new 0 0 90 72" xml:space="preserve">
<g>
	<path fill="#22B99A" d="M54.633,22.898l1.035,1.085c1.354-1.281,2.831-1.783,4.361-1.792c1.882-0.006,3.85,0.838,5.306,2.193
		c1.463,1.354,2.37,3.154,2.365,4.981c-0.003,1.151-0.338,2.347-1.2,3.597l-1.271,1.833l2.177,0.486
		c2.858,0.645,4.951,2.21,6.4,4.296c1.441,2.084,2.195,4.709,2.194,7.335c0.001,2.729-0.811,5.431-2.393,7.523
		c-1.589,2.092-3.904,3.622-7.181,4.104c-2.281,0.331-5.525,0.422-9.134,0.42c-3.362,0-7.053-0.073-10.668-0.073
		c-4.062,0-8.159,0.172-11.961,0.171c-2.873,0.001-5.576-0.098-7.946-0.427c-2.372-0.325-4.4-0.888-5.938-1.739l0.015,0.008
		l-0.014-0.008c-2.332-1.291-3.994-3.063-5.101-5.109c-1.104-2.045-1.642-4.373-1.642-6.729c-0.001-2.703,0.712-5.433,2.042-7.756
		c1.331-2.326,3.261-4.239,5.709-5.4l0.986-0.468l-0.142-1.082c-0.103-0.79-0.152-1.547-0.152-2.272
		c0.001-2.355,0.511-4.374,1.386-6.112c1.313-2.602,3.474-4.6,6.113-5.964c2.634-1.363,5.737-2.07,8.801-2.069
		c3.267-0.002,6.477,0.803,9.036,2.371c2.562,1.576,4.486,3.861,5.372,7.002l0.673,2.405l1.807-1.725L54.633,22.898l1.444-0.404
		c-1.087-3.907-3.58-6.856-6.695-8.753c-3.12-1.904-6.851-2.81-10.601-2.812c-4.69,0.004-9.445,1.415-13.116,4.281
		c-1.832,1.434-3.386,3.24-4.476,5.401c-1.091,2.16-1.708,4.67-1.708,7.463c0,0.86,0.058,1.748,0.178,2.661l1.487-0.194
		l-0.643-1.355c-3.058,1.45-5.432,3.827-7.028,6.622c-1.598,2.798-2.436,6.02-2.437,9.245c0,2.809,0.639,5.629,2.002,8.154
		c1.36,2.525,3.456,4.747,6.29,6.31l0.029,0.017l-0.028-0.017c2.016,1.111,4.386,1.726,6.977,2.086
		c2.592,0.358,5.417,0.455,8.357,0.455c3.89,0,7.983-0.171,11.961-0.171c3.575,0,7.264,0.073,10.668,0.073
		c3.662-0.002,6.981-0.08,9.562-0.451c4.017-0.57,7.131-2.576,9.147-5.267c2.025-2.689,2.995-6.018,2.997-9.329
		c-0.002-3.19-0.9-6.391-2.726-9.039c-1.819-2.647-4.61-4.721-8.215-5.52l-0.327,1.464l1.232,0.855
		c1.186-1.703,1.739-3.544,1.735-5.307c-0.004-2.826-1.362-5.363-3.326-7.182c-1.97-1.82-4.587-2.986-7.345-2.992
		c-2.229-0.008-4.545,0.811-6.432,2.622L54.633,22.898l1.444-0.404L54.633,22.898z"/>
</g>
<path opacity="0.3" fill="#22B99A" d="M70.416,49.676c-5.666,10.464-33.857,10.5-29.666,10.5c4.191,0,28.512,3.488,34.26-5.217
	C85.27,39.425,64.438,32.5,67.582,34.987C73.27,39.487,72.148,46.478,70.416,49.676z"/>
<path opacity="0.3" fill="#22B99A" d="M55.452,23.782c14.755-0.875,11.005,14.375,11.977,9.879c1.22-5.645,3.964-5.189-1.72-10.424
	c-2.339-2.154-5.371-2.793-7.002-2.268C56.76,21.597,51.822,23.997,55.452,23.782z"/>
</svg>
