<?xml version="1.0" encoding="utf-8"?>
<!-- Generator: Adobe Illustrator 15.1.0, SVG Export Plug-In . SVG Version: 6.00 Build 0)  -->
<!DOCTYPE svg PUBLIC "-//W3C//DTD SVG 1.1//EN" "http://www.w3.org/Graphics/SVG/1.1/DTD/svg11.dtd">
<svg version="1.1" id="Layer_1" xmlns="http://www.w3.org/2000/svg" xmlns:xlink="http://www.w3.org/1999/xlink" x="0px" y="0px"
	 width="252px" height="252px" viewBox="0 0 252 252" enable-background="new 0 0 252 252" xml:space="preserve">
<g>
	<path fill="#58595B" d="M156.264,126.607h2.963c1.349,0,2.369,0.322,3.062,0.966c0.692,0.645,1.039,1.659,1.039,3.044
		c0,1.156-0.354,2.072-1.057,2.746c-0.705,0.675-1.666,1.012-2.883,1.012c-1.107,0-2.023-0.327-2.746-0.984
		c-0.723-0.656-1.084-1.49-1.084-2.502h-5.112l-0.036,0.108c-0.061,2.36,0.785,4.188,2.539,5.483
		c1.752,1.295,3.85,1.941,6.295,1.941c2.734,0,4.979-0.688,6.73-2.068c1.752-1.379,2.629-3.272,2.629-5.682
		c0-1.421-0.383-2.668-1.148-3.74c-0.764-1.071-1.875-1.866-3.332-2.385c1.264-0.578,2.258-1.382,2.98-2.411
		c0.723-1.03,1.084-2.117,1.084-3.261c0-2.409-0.811-4.264-2.43-5.564c-1.62-1.301-3.791-1.951-6.514-1.951
		c-2.445,0-4.492,0.668-6.143,2.005s-2.438,3.035-2.366,5.095l0.036,0.108h5.113c0-0.939,0.336-1.698,1.012-2.276
		c0.674-0.578,1.505-0.867,2.492-0.867c1.145,0,2.018,0.319,2.62,0.957c0.603,0.639,0.903,1.488,0.903,2.548
		c0,1.168-0.301,2.081-0.903,2.737s-1.53,0.984-2.782,0.984h-2.963V126.607z M147.936,114.756c-1.133-1.024-2.529-1.844-4.191-2.457
		c-1.662-0.615-3.506-0.922-5.529-0.922c-2.734,0.036-5.004,0.731-6.811,2.087c-1.807,1.354-2.71,3.099-2.71,5.229
		c0,2.156,0.801,3.854,2.403,5.096c1.602,1.24,3.962,2.312,7.082,3.215c1.794,0.543,3.05,1.121,3.766,1.734
		c0.717,0.615,1.076,1.428,1.076,2.439c0,0.987-0.377,1.776-1.129,2.367c-0.754,0.59-1.853,0.885-3.298,0.885
		c-1.12,0-2.135-0.142-3.044-0.425c-0.91-0.282-1.629-0.642-2.159-1.075l-0.56-3.739h-4.084v5.492
		c1.121,1.168,2.521,2.084,4.201,2.746s3.562,0.993,5.646,0.993c2.915,0,5.263-0.65,7.046-1.951
		c1.782-1.301,2.674-3.077,2.674-5.329c0-2.156-0.75-3.896-2.25-5.222c-1.498-1.324-3.7-2.391-6.603-3.197
		c-2.023-0.639-3.448-1.243-4.272-1.815c-0.825-0.572-1.238-1.304-1.238-2.195c0-0.964,0.395-1.749,1.184-2.357
		s1.906-0.913,3.352-0.913c0.987,0,1.921,0.109,2.801,0.326c0.879,0.217,1.547,0.469,2.005,0.758l0.687,3.613h3.957V114.756z
		 M125.497,114.756c-1.132-1.024-2.529-1.844-4.191-2.457c-1.662-0.615-3.505-0.922-5.528-0.922
		c-2.734,0.036-5.004,0.731-6.811,2.087c-1.807,1.354-2.71,3.099-2.71,5.229c0,2.156,0.801,3.854,2.403,5.096
		c1.602,1.24,3.962,2.312,7.082,3.215c1.794,0.543,3.05,1.121,3.767,1.734c0.717,0.615,1.075,1.428,1.075,2.439
		c0,0.987-0.376,1.776-1.129,2.367c-0.753,0.59-1.852,0.885-3.297,0.885c-1.12,0-2.135-0.142-3.044-0.425
		c-0.909-0.282-1.629-0.642-2.159-1.075l-0.56-3.739h-4.083v5.492c1.12,1.168,2.521,2.084,4.2,2.746
		c1.681,0.662,3.562,0.993,5.646,0.993c2.915,0,5.263-0.65,7.046-1.951c1.782-1.301,2.674-3.077,2.674-5.329
		c0-2.156-0.75-3.896-2.25-5.222c-1.499-1.324-3.701-2.391-6.603-3.197c-2.023-0.639-3.448-1.243-4.273-1.815
		c-0.825-0.572-1.237-1.304-1.237-2.195c0-0.964,0.395-1.749,1.184-2.357c0.789-0.608,1.906-0.913,3.351-0.913
		c0.987,0,1.921,0.109,2.8,0.326c0.879,0.217,1.547,0.469,2.005,0.758l0.687,3.613h3.957V114.756z M103.094,115.406
		c-1.072-1.217-2.427-2.195-4.065-2.937c-1.638-0.74-3.475-1.11-5.51-1.11c-3.553,0-6.45,1.229-8.69,3.686s-3.36,5.594-3.36,9.412
		v0.885c0,3.83,1.126,6.968,3.378,9.413c2.252,2.445,5.143,3.667,8.672,3.667c2.035,0,3.875-0.364,5.519-1.093
		c1.645-0.729,2.996-1.707,4.056-2.936v-5.203h-3.92l-0.542,3.505c-0.47,0.518-1.135,0.928-1.996,1.229
		c-0.861,0.301-1.81,0.451-2.846,0.451c-2.24,0-3.975-0.837-5.203-2.511s-1.843-3.849-1.843-6.522v-0.921
		c0-2.674,0.617-4.842,1.852-6.504c1.235-1.662,2.996-2.493,5.285-2.493c1.072,0,2.002,0.15,2.792,0.451
		c0.789,0.302,1.442,0.711,1.96,1.229l0.542,3.506h3.92V115.406z"/>
	<path opacity="0.3" fill="#2EA9D8" d="M126.295,31.42v8.23c11.945,0.001,23.282,2.416,33.609,6.782
		c15.485,6.548,28.687,17.508,37.998,31.294c9.312,13.792,14.739,30.361,14.742,48.273c-0.001,11.945-2.416,23.282-6.782,33.609
		c-6.548,15.485-17.508,28.687-31.294,37.998c-13.791,9.312-30.361,14.739-48.273,14.742c-11.945-0.001-23.282-2.416-33.609-6.782
		C77.201,199.02,64,188.06,54.688,174.273C45.375,160.482,39.948,143.912,39.945,126c0.001-11.945,2.416-23.283,6.783-33.609
		c6.548-15.485,17.508-28.687,31.294-37.999c13.792-9.312,30.361-14.739,48.273-14.742V31.42v-8.23
		c-14.172-0.001-27.716,2.877-40.021,8.083c-18.461,7.81-34.142,20.835-45.226,37.24C29.964,84.911,23.481,104.735,23.485,126
		c-0.001,14.173,2.877,27.717,8.083,40.021c7.81,18.461,20.835,34.143,37.24,45.227c16.399,11.084,36.224,17.566,57.488,17.563
		c14.173,0.001,27.717-2.877,40.021-8.083c18.461-7.811,34.143-20.835,45.227-37.239c11.084-16.399,17.566-36.224,17.563-57.488
		c0.001-14.172-2.877-27.716-8.083-40.021c-7.811-18.46-20.835-34.142-37.239-45.226c-16.399-11.084-36.224-17.566-57.488-17.563
		V31.42z"/>
	<path opacity="0.9" fill="#2EA9D8" d="M126.294,14.507v8.7c14.217,0.001,27.716,2.876,40.009,8.074
		c18.437,7.796,34.149,20.842,45.234,37.252c11.084,16.417,17.547,36.147,17.55,57.466c-0.001,14.217-2.876,27.716-8.074,40.009
		c-7.796,18.437-20.842,34.149-37.252,45.234c-16.417,11.084-36.147,17.547-57.467,17.55c-14.217-0.001-27.716-2.876-40.009-8.074
		c-18.436-7.796-34.149-20.842-45.234-37.252C29.966,167.05,23.504,147.319,23.501,126c0.001-14.217,2.876-27.716,8.074-40.009
		c7.796-18.436,20.842-34.149,37.252-45.234c16.417-11.085,36.147-17.547,57.466-17.55V14.507v-8.7
		c-16.571-0.001-32.403,3.363-46.787,9.449c-21.581,9.13-39.916,24.358-52.874,43.537C13.674,77.965,6.097,101.137,6.101,126
		c-0.001,16.571,3.363,32.403,9.449,46.787c9.13,21.581,24.359,39.916,43.537,52.874c19.172,12.958,42.344,20.535,67.207,20.532
		c16.571,0.001,32.403-3.363,46.787-9.449c21.581-9.13,39.916-24.358,52.874-43.537c12.958-19.172,20.535-42.344,20.532-67.207
		c0.001-16.571-3.363-32.403-9.449-46.787c-9.13-21.581-24.358-39.916-43.537-52.874C174.329,13.38,151.157,5.803,126.294,5.807
		V14.507z"/>
</g>
</svg>
