<?xml version="1.0" encoding="utf-8"?>
<!-- Generator: Adobe Illustrator 15.1.0, SVG Export Plug-In . SVG Version: 6.00 Build 0)  -->
<!DOCTYPE svg PUBLIC "-//W3C//DTD SVG 1.1//EN" "http://www.w3.org/Graphics/SVG/1.1/DTD/svg11.dtd">
<svg version="1.1" id="Layer_1" xmlns="http://www.w3.org/2000/svg" xmlns:xlink="http://www.w3.org/1999/xlink" x="0px" y="0px"
	 width="252px" height="252px" viewBox="0 0 252 252" enable-background="new 0 0 252 252" xml:space="preserve">
<path fill="#2EA9D8" d="M103.293,118.045h-3.879l-0.539-3.473c-0.512-0.512-1.156-0.914-1.938-1.215
	c-0.785-0.301-1.707-0.449-2.762-0.449c-2.266,0-4.012,0.824-5.23,2.469c-1.227,1.648-1.836,3.793-1.836,6.441v0.91
	c0,2.648,0.605,4.801,1.824,6.458c1.219,1.655,2.93,2.487,5.148,2.487c1.031,0,1.961-0.151,2.82-0.452
	c0.844-0.294,1.508-0.703,1.973-1.216l0.539-3.465h3.879v5.147c-1.055,1.215-2.387,2.185-4.016,2.906
	c-1.621,0.719-3.449,1.082-5.461,1.082c-3.5,0-6.355-1.211-8.582-3.629c-2.23-2.422-3.352-5.527-3.352-9.32v-0.875
	c0-3.781,1.113-6.887,3.332-9.316c2.215-2.434,5.078-3.652,8.602-3.652c2.012,0,3.836,0.371,5.449,1.102
	c1.621,0.734,2.965,1.699,4.027,2.906v5.153H103.293z"/>
<path fill="#2EA9D8" d="M125.473,117.576h-3.914l-0.688-3.574c-0.445-0.289-1.109-0.539-1.98-0.75
	c-0.871-0.219-1.797-0.324-2.77-0.324c-1.43,0-2.539,0.301-3.32,0.906c-0.785,0.598-1.172,1.379-1.172,2.332
	c0,0.883,0.41,1.605,1.227,2.172s2.223,1.164,4.227,1.797c2.875,0.801,5.055,1.855,6.539,3.168c1.492,1.312,2.227,3.031,2.227,5.168
	c0,2.23-0.883,3.988-2.645,5.273c-1.77,1.289-4.094,1.934-6.98,1.934c-2.059,0-3.922-0.328-5.586-0.984
	c-1.664-0.651-3.051-1.562-4.156-2.715v-5.438h4.039l0.555,3.699c0.523,0.43,1.238,0.785,2.137,1.062
	c0.902,0.281,1.91,0.423,3.012,0.423c1.434,0,2.523-0.293,3.27-0.875c0.742-0.582,1.117-1.363,1.117-2.345
	c0-1-0.352-1.81-1.066-2.414c-0.707-0.609-1.953-1.18-3.727-1.719c-3.086-0.891-5.426-1.953-7.016-3.184
	c-1.578-1.227-2.375-2.906-2.375-5.043c0-2.113,0.898-3.836,2.684-5.176c1.789-1.344,4.035-2.031,6.746-2.066
	c2,0,3.82,0.305,5.469,0.91c1.648,0.609,3.023,1.422,4.148,2.434v5.329H125.473z"/>
<path fill="#2EA9D8" d="M147.684,117.576h-3.91l-0.688-3.574c-0.457-0.289-1.109-0.539-1.984-0.75
	c-0.867-0.219-1.797-0.324-2.77-0.324c-1.43,0-2.539,0.301-3.32,0.906c-0.781,0.598-1.172,1.379-1.172,2.332
	c0,0.883,0.414,1.605,1.227,2.172c0.82,0.566,2.228,1.164,4.23,1.797c2.875,0.801,5.051,1.855,6.535,3.168
	c1.484,1.313,2.234,3.031,2.234,5.168c0,2.23-0.892,3.988-2.648,5.273c-1.773,1.289-4.094,1.934-6.98,1.934
	c-2.062,0-3.922-0.328-5.586-0.984c-1.66-0.651-3.051-1.562-4.156-2.715v-5.438h4.039l0.556,3.699
	c0.522,0.43,1.237,0.785,2.137,1.062c0.902,0.281,1.906,0.423,3.013,0.423c1.43,0,2.52-0.293,3.266-0.875s1.117-1.363,1.117-2.345
	c0-1-0.355-1.81-1.062-2.414c-0.707-0.609-1.953-1.18-3.727-1.719c-3.09-0.891-5.43-1.953-7.012-3.184
	c-1.586-1.227-2.383-2.906-2.383-5.043c0-2.113,0.897-3.836,2.688-5.176c1.785-1.344,4.031-2.031,6.734-2.066
	c2.008,0,3.836,0.305,5.477,0.91c1.645,0.609,3.031,1.422,4.148,2.434v5.329H147.684z"/>
<path fill="#2EA9D8" d="M155.926,120.064h2.938c1.238,0,2.156-0.324,2.759-0.973c0.59-0.652,0.887-1.555,0.887-2.715
	c0-1.047-0.297-1.887-0.887-2.52c-0.603-0.633-1.465-0.949-2.595-0.949c-0.979,0-1.801,0.289-2.469,0.859
	c-0.672,0.574-1.004,1.324-1.004,2.254h-5.062l-0.035-0.105c-0.065-2.039,0.711-3.723,2.344-5.047
	c1.634-1.32,3.664-1.984,6.087-1.984c2.694,0,4.836,0.645,6.444,1.934c1.603,1.285,2.401,3.121,2.401,5.508
	c0,1.133-0.354,2.207-1.073,3.23c-0.716,1.016-1.695,1.812-2.949,2.383c1.445,0.516,2.543,1.301,3.302,2.363
	c0.758,1.059,1.133,2.294,1.133,3.703c0,2.384-0.867,4.259-2.603,5.625c-1.729,1.363-3.957,2.047-6.655,2.047
	c-2.423,0-4.505-0.641-6.234-1.922c-1.742-1.28-2.574-3.094-2.516-5.43l0.038-0.104h5.06c0,1,0.354,1.823,1.074,2.477
	c0.711,0.652,1.621,0.977,2.719,0.977c1.207,0,2.152-0.336,2.852-1.004c0.695-0.668,1.047-1.574,1.047-2.719
	c0-1.371-0.344-2.375-1.031-3.016c-0.68-0.637-1.694-0.953-3.03-0.953h-2.938v-3.918H155.926z"/>
<path opacity="0.9" fill="#2EA9D8" enable-background="new    " d="M205.293,45.416c-20.453-20.48-48.863-33.191-80.098-33.18
	c-31.23-0.012-59.645,12.699-80.094,33.18c-20.48,20.449-33.188,48.859-33.184,80.09c-0.004,31.238,12.703,59.645,33.184,80.098
	c20.449,20.478,48.863,33.188,80.094,33.181c31.235,0.008,59.645-12.703,80.098-33.181c20.477-20.453,33.184-48.858,33.18-80.098
	C238.477,94.275,225.77,65.869,205.293,45.416z M185.152,185.463c-15.392,15.367-36.496,24.824-59.958,24.836
	c-23.457-0.012-44.566-9.469-59.953-24.836c-15.363-15.391-24.824-36.492-24.832-59.957c0.008-23.453,9.469-44.559,24.832-59.949
	c15.387-15.367,36.496-24.824,59.953-24.836c23.461,0.012,44.566,9.469,59.958,24.836c15.363,15.387,24.815,36.492,24.828,59.949
	C209.969,148.971,200.516,170.072,185.152,185.463z"/>
<path opacity="0.8" fill="#E7CCC6" enable-background="new    " d="M125.205,12.047h-0.027c-0.121,0-0.246,0-0.367,0
	c-2.816,0.012-5.613,0.121-8.383,0.336c-27.754,2.129-52.797,14.301-71.316,32.844C34.498,55.82,25.979,68.555,20.229,82.707
	c-5.352,13.164-8.297,27.562-8.297,42.613l0,0c0,12.398,2,24.352,5.691,35.536c5.613,17,15.137,32.227,27.488,44.562
	c20.445,20.478,48.844,33.181,80.07,33.181h0.023v-28.484l0,0c-7.547,0-14.848-0.988-21.797-2.824
	c-14.648-3.887-27.719-11.59-38.156-22.012c-10.555-10.57-18.316-23.832-22.145-38.703c-1.754-6.785-2.684-13.906-2.691-21.254l0,0
	l0,0l0,0c0.008-7.066,0.867-13.914,2.492-20.465c3.758-15.188,11.605-28.73,22.344-39.484c8.656-8.645,19.121-15.418,30.801-19.695
	c9.082-3.324,18.891-5.137,29.152-5.141l0,0L125.205,12.047L125.205,12.047L125.205,12.047"/>
</svg>
