<?xml version="1.0" encoding="utf-8"?>
<!-- Generator: Adobe Illustrator 15.1.0, SVG Export Plug-In . SVG Version: 6.00 Build 0)  -->
<!DOCTYPE svg PUBLIC "-//W3C//DTD SVG 1.1//EN" "http://www.w3.org/Graphics/SVG/1.1/DTD/svg11.dtd">
<svg version="1.1" id="Layer_1" xmlns="http://www.w3.org/2000/svg" xmlns:xlink="http://www.w3.org/1999/xlink" x="0px" y="0px"
	 width="90px" height="72px" viewBox="0 0 90 72" enable-background="new 0 0 90 72" xml:space="preserve">
<g>
	<path fill="#22B99A" d="M42.857,10.1l0.052,1.099c1.036-0.049,2.068-0.074,3.092-0.074c6.533-0.003,12.707,1.021,17.283,3.066
		c0.714,0.318,1.627,0.816,2.376,1.375c0.375,0.278,0.708,0.571,0.955,0.849c0.249,0.275,0.404,0.533,0.465,0.711l0.003,0.011
		l-0.003-0.01c0.186,0.528,0.239,0.823,0.24,1.098c0.001,0.288-0.067,0.643-0.261,1.263c-0.154,0.498-0.518,1.009-1.098,1.509
		c-0.864,0.751-2.184,1.426-3.598,1.958c-1.415,0.536-2.919,0.94-4.169,1.23c-4.104,0.954-8.913,1.478-13.712,1.477
		c-6.826,0.007-13.646-1.071-18.378-3.347l-0.004-0.002l0.004,0.002c-0.796-0.38-1.598-0.816-2.215-1.303
		c-0.624-0.489-1.031-1.005-1.19-1.524l-0.003-0.011l0.003,0.011c-0.183-0.583-0.236-0.862-0.235-1.089
		c-0.002-0.228,0.055-0.534,0.245-1.151l0.001-0.003l-0.001,0.002c0.15-0.492,0.479-0.972,0.997-1.44
		c0.771-0.703,1.948-1.332,3.219-1.832c1.271-0.503,2.631-0.888,3.779-1.184l0,0c3.913-1.007,7.373-1.359,12.205-1.591L42.857,10.1
		l-0.053-1.099c-4.879,0.231-8.543,0.6-12.648,1.658l0,0c-1.587,0.41-3.615,0.988-5.431,1.882c-0.908,0.448-1.768,0.976-2.495,1.632
		c-0.724,0.655-1.325,1.456-1.623,2.428l-0.001,0.002l0.001-0.004c-0.205,0.67-0.342,1.206-0.343,1.799
		c0.001,0.596,0.141,1.118,0.336,1.744l-0.002-0.006l0.002,0.006c0.35,1.113,1.104,1.947,1.93,2.598
		c0.832,0.652,1.765,1.146,2.625,1.559l0.008,0.004l-0.008-0.004c5.217,2.49,12.271,3.558,19.328,3.562
		c4.959,0,9.911-0.536,14.21-1.534c1.747-0.407,3.985-1.021,5.979-1.961c0.997-0.471,1.937-1.023,2.728-1.704
		c0.787-0.68,1.441-1.506,1.759-2.52c0.214-0.686,0.361-1.274,0.362-1.918c0.001-0.611-0.141-1.192-0.365-1.829l-0.004-0.011
		l0.004,0.011c-0.198-0.557-0.525-1.026-0.902-1.449c-1.139-1.253-2.802-2.188-4.073-2.764c-4.991-2.223-11.417-3.254-18.179-3.258
		c-1.059,0-2.125,0.026-3.195,0.077L42.857,10.1z"/>
	<path fill="#22B99A" d="M68.272,25.581l-1.086-0.173c-0.06,0.375-0.077,0.754-0.077,1.139c0.003,1.101,0.144,2.283,0.142,3.275
		c0.003,0.623-0.061,1.159-0.18,1.483v0.001c-0.139,0.422-0.597,0.966-1.273,1.463c-0.669,0.499-1.515,0.952-2.297,1.317
		L63.5,34.087c-4.592,2.162-11.698,3.327-18.777,3.321c-6.988,0.006-13.984-1.13-18.537-3.318c-0.772-0.368-1.606-0.841-2.263-1.351
		c-0.663-0.505-1.114-1.058-1.235-1.434l0,0c-0.122-0.336-0.185-0.86-0.183-1.475c-0.002-0.983,0.144-2.165,0.146-3.308
		c0-0.397-0.019-0.793-0.076-1.186L21.487,25.5l-0.597,0.924c2.854,1.84,6.548,3.155,10.669,4.032
		c4.121,0.875,8.67,1.302,13.22,1.302c4.6,0,9.197-0.437,13.354-1.304c4.157-0.872,7.872-2.164,10.722-3.94L68.272,25.581
		l-1.086-0.173L68.272,25.581l-0.582-0.933c-2.522,1.576-6.025,2.821-10.008,3.651c-3.982,0.833-8.444,1.259-12.903,1.258
		c-4.411,0.001-8.821-0.416-12.763-1.254c-3.941-0.834-7.412-2.097-9.933-3.729l-2.041-1.317l0.355,2.403
		c0.037,0.243,0.054,0.537,0.053,0.863c0.003,0.947-0.144,2.136-0.146,3.308c0.002,0.738,0.055,1.481,0.308,2.206l-0.001-0.003
		v0.003c0.375,1.029,1.132,1.789,1.964,2.441c0.839,0.648,1.788,1.179,2.66,1.597c5.054,2.407,12.259,3.524,19.486,3.532
		c7.321-0.008,14.63-1.156,19.712-3.529l-0.001,0.001c0.856-0.403,1.818-0.907,2.679-1.547c0.853-0.643,1.646-1.42,2.034-2.495
		v0.001c0.252-0.725,0.302-1.472,0.305-2.217c-0.003-1.173-0.146-2.37-0.143-3.275c0-0.312,0.017-0.586,0.05-0.793l0.378-2.383
		l-2.046,1.277L68.272,25.581z"/>
	<path fill="#22B99A" d="M68.272,37.277l-1.086-0.174c-0.06,0.375-0.077,0.754-0.077,1.139c0.003,1.1,0.144,2.283,0.142,3.275
		c0.003,0.625-0.061,1.16-0.18,1.484v0.002c-0.138,0.418-0.597,0.963-1.273,1.461c-0.671,0.5-1.518,0.953-2.298,1.318
		c-4.591,2.162-11.698,3.326-18.777,3.32c-6.989,0.006-13.986-1.129-18.537-3.316l-0.016-0.008l0.015,0.008
		c-0.772-0.369-1.605-0.842-2.262-1.352c-0.663-0.504-1.114-1.057-1.235-1.432c-0.122-0.338-0.185-0.861-0.183-1.477
		c-0.002-0.982,0.144-2.166,0.146-3.307c0-0.398-0.019-0.793-0.076-1.188l-1.088,0.162l-0.597,0.924
		c2.853,1.84,6.547,3.156,10.668,4.033c4.121,0.873,8.671,1.301,13.221,1.301c4.599,0,9.197-0.436,13.354-1.305
		c4.157-0.871,7.872-2.164,10.722-3.938L68.272,37.277l-1.086-0.174L68.272,37.277l-0.582-0.934
		c-2.522,1.577-6.024,2.823-10.007,3.653c-3.983,0.832-8.445,1.258-12.904,1.258c-4.412,0-8.822-0.418-12.764-1.254
		c-3.941-0.834-7.412-2.098-9.932-3.729l-2.041-1.318l0.355,2.403c0.037,0.244,0.054,0.537,0.053,0.865
		c0.003,0.947-0.144,2.135-0.146,3.307c0.002,0.738,0.055,1.482,0.308,2.207c0.374,1.029,1.131,1.789,1.963,2.441
		c0.839,0.648,1.788,1.178,2.66,1.596l0.016,0.008l-0.016-0.008c5.052,2.406,12.258,3.523,19.486,3.531
		c7.321-0.006,14.631-1.154,19.712-3.527c0.854-0.402,1.816-0.906,2.677-1.547c0.854-0.643,1.646-1.42,2.035-2.494l-0.005,0.014
		l0.005-0.014c0.252-0.725,0.302-1.471,0.305-2.217c-0.003-1.174-0.146-2.369-0.143-3.275c0-0.312,0.017-0.586,0.05-0.793
		l0.378-2.383l-2.046,1.277L68.272,37.277z"/>
	<path fill="#22B99A" d="M68.272,48.973l-1.094-0.123c-0.04,0.357-0.053,0.719-0.053,1.084c0.001,1.039,0.104,2.123,0.103,3.057
		c0.002,0.646-0.054,1.215-0.171,1.588l-0.002,0.008l0.002-0.006c-0.147,0.486-0.506,0.996-1.084,1.496
		c-0.86,0.752-2.179,1.434-3.584,1.969c-1.404,0.539-2.894,0.945-4.113,1.227c-4.1,0.951-8.972,1.475-13.833,1.473
		c-6.824,0.006-13.646-1.045-18.258-3.262c-0.764-0.363-1.594-0.826-2.251-1.332c-0.663-0.502-1.117-1.051-1.247-1.451
		c-0.12-0.33-0.184-0.869-0.182-1.496c-0.002-1.008,0.144-2.209,0.146-3.326c0-0.393-0.019-0.779-0.079-1.16l-1.086,0.174
		l-0.597,0.924c2.853,1.84,6.548,3.156,10.669,4.033c4.12,0.875,8.67,1.303,13.22,1.303c4.599,0,9.197-0.438,13.354-1.305
		c4.157-0.871,7.872-2.164,10.722-3.939L68.272,48.973l-1.094-0.123L68.272,48.973l-0.582-0.934
		c-2.522,1.578-6.025,2.824-10.008,3.652c-3.982,0.832-8.444,1.258-12.903,1.258c-4.411,0-8.821-0.416-12.763-1.254
		c-3.941-0.834-7.412-2.098-9.933-3.729l-2.075-1.34l0.392,2.438c0.035,0.213,0.052,0.492,0.052,0.812
		c0.003,0.922-0.144,2.137-0.146,3.326c0.002,0.748,0.054,1.5,0.307,2.229c0.38,1.045,1.147,1.814,1.982,2.463
		c0.842,0.645,1.787,1.164,2.641,1.574c5.111,2.434,12.157,3.469,19.207,3.475c5.02,0,10.032-0.535,14.33-1.527
		c1.716-0.398,3.942-1.021,5.926-1.967c0.994-0.475,1.929-1.029,2.716-1.711c0.783-0.68,1.435-1.504,1.746-2.514l0,0
		c0.221-0.729,0.265-1.482,0.268-2.234c-0.002-1.076-0.104-2.166-0.103-3.057c0-0.311,0.012-0.596,0.04-0.838l0.254-2.26
		l-1.93,1.203L68.272,48.973z"/>
</g>
<path opacity="0.3" fill-rule="evenodd" clip-rule="evenodd" fill="#22B99A" d="M67.63,48.973c-0.197,1.754,0.93,4.312,0.433,5.93
	c-0.917,2.996-6.242,4.668-9.584,5.441c-10.096,2.336-24.489,2.113-32.814-1.869c-1.616-0.773-3.55-1.963-4.061-3.41
	c-0.587-1.666,0.107,1.012-0.163-0.674C32.246,61.369,67.63,61.844,67.63,48.973z"/>
<path opacity="0.3" fill-rule="evenodd" clip-rule="evenodd" fill="#22B99A" d="M65.619,22.957c1.191-1.528,2.983-4.751,2.486-6.366
	c-0.917-2.997-6.242-4.67-9.584-5.443c-10.096-2.334-24.489-2.112-32.814,1.869c-1.616,0.773-3.55,1.964-4.061,3.411
	c-0.587,1.667,0.107-1.011-0.163,0.674C32.289,10.123,67.686,11.086,65.619,22.957z"/>
<path opacity="0.3" fill-rule="evenodd" clip-rule="evenodd" fill="#22B99A" d="M67.63,37.264c-0.197,1.754,0.93,4.312,0.433,5.93
	c-0.917,2.996-6.242,4.668-9.584,5.441c-10.096,2.336-24.489,2.113-32.814-1.869c-1.616-0.773-3.55-1.963-4.061-3.41
	c-0.587-1.666,0.107,1.012-0.163-0.674C32.246,49.66,67.63,50.135,67.63,37.264z"/>
<path opacity="0.3" fill-rule="evenodd" clip-rule="evenodd" fill="#22B99A" d="M67.63,25.568c-0.197,1.755,0.93,4.313,0.433,5.929
	c-0.917,2.997-6.242,4.67-9.584,5.443c-10.096,2.335-24.489,2.113-32.814-1.869c-1.616-0.773-3.55-1.964-4.061-3.411
	c-0.587-1.666,0.107,1.011-0.163-0.673C32.246,37.965,67.63,38.439,67.63,25.568z"/>
</svg>
