<?xml version="1.0" encoding="utf-8"?>
<!-- Generator: Adobe Illustrator 15.1.0, SVG Export Plug-In . SVG Version: 6.00 Build 0)  -->
<!DOCTYPE svg PUBLIC "-//W3C//DTD SVG 1.1//EN" "http://www.w3.org/Graphics/SVG/1.1/DTD/svg11.dtd">
<svg version="1.1" id="Layer_1" xmlns="http://www.w3.org/2000/svg" xmlns:xlink="http://www.w3.org/1999/xlink" x="0px" y="0px"
	 width="468px" height="414px" viewBox="0 0 468 414" enable-background="new 0 0 468 414" xml:space="preserve">
<g>
	<path fill="#ED6835" d="M52.977,139.251c5.428-0.001,13.222-0.498,21.247-0.989c8.014-0.493,16.247-0.981,22.341-0.98
		c0.676,0,1.325,0.006,1.942,0.019c2.681,0.05,6.21,0.653,10.101,1.565c5.847,1.364,12.527,3.395,18.873,5.1
		c3.176,0.853,6.271,1.624,9.166,2.188c2.897,0.563,5.588,0.926,8.02,0.928c0.162,0,0.322-0.001,0.48-0.005l-0.047,0.001
		l0.048-0.001c5.929-0.129,14.072-1.021,22.324-1.896c8.236-0.876,16.576-1.736,22.603-1.823c0.263-0.004,0.532-0.005,0.805-0.005
		c5.99-0.004,14.262,0.927,22.449,1.873c8.207,0.943,16.32,1.902,22.366,1.906l0.253,0h0.024h-0.022c0.13,0,0.261-0.001,0.394-0.001
		c5.536-0.001,13.5,0.526,21.549,1.058c8.061,0.531,16.211,1.068,22.337,1.069c0.567,0,1.118-0.005,1.65-0.015
		c3.198-0.062,6.866-0.666,10.829-1.507c5.936-1.265,12.516-3.086,18.718-4.578c3.1-0.746,6.102-1.41,8.856-1.882
		c2.754-0.474,5.264-0.752,7.336-0.75c0.133,0,0.262,0.001,0.388,0.003h0.002c2.841,0.047,6.439,0.426,10.371,0.978
		c5.905,0.827,12.575,2.036,18.844,3.044c6.281,1.006,12.125,1.823,16.621,1.828h0.113c3.061-0.013,6.719-0.515,10.749-1.238
		c6.034-1.087,12.872-2.691,19.25-4.027c3.187-0.668,6.257-1.269,9.031-1.706c2.771-0.438,5.255-0.706,7.212-0.728
		c11.466-0.136,34.737-0.354,45.898-0.489l-0.061-5c-11.147,0.135-34.419,0.353-45.896,0.489c-3.126,0.041-6.844,0.56-10.912,1.295
		c-6.092,1.105-12.944,2.714-19.291,4.041c-3.171,0.663-6.213,1.256-8.947,1.68c-2.731,0.425-5.162,0.678-7.048,0.682h-0.099
		c-2.593,0.002-6.021-0.335-9.839-0.861c-5.733-0.788-12.361-1.987-18.71-3.015c-6.359-1.026-12.413-1.888-17.201-1.974h0.002
		c-0.159-0.003-0.318-0.004-0.478-0.004c-3.337,0.003-7.119,0.566-11.16,1.382c-6.051,1.227-12.668,3.041-18.832,4.556
		c-3.079,0.757-6.042,1.44-8.739,1.938c-2.695,0.499-5.13,0.809-7.1,0.843c-0.498,0.009-1.019,0.014-1.559,0.014
		c-5.848,0.001-13.959-0.526-22.008-1.059c-8.059-0.531-16.051-1.067-21.878-1.069c-0.141,0-0.279,0-0.417,0.001h-0.024h0.026
		l-0.233,0c-5.538,0.004-13.603-0.926-21.793-1.874c-8.209-0.943-16.554-1.902-23.021-1.906c-0.296,0-0.589,0.002-0.878,0.006
		c-6.404,0.096-14.799,0.974-23.058,1.85c-8.243,0.877-16.356,1.753-21.902,1.869l0.045-0.001l-0.044,0.001
		c-0.124,0.002-0.25,0.004-0.377,0.004c-2.566,0.005-6.023-0.55-9.863-1.432c-5.772-1.317-12.433-3.335-18.807-5.062
		c-3.189-0.863-6.31-1.654-9.24-2.246c-2.933-0.591-5.669-0.989-8.147-1.041c-0.656-0.013-1.338-0.02-2.043-0.02
		c-6.343,0.001-14.619,0.497-22.647,0.989c-8.017,0.493-15.798,0.981-20.94,0.98V139.251z"/>
	<path fill="#2FA8D5" d="M52.977,200.121c5.432-0.001,13.231-0.504,21.261-1.002c8.018-0.499,16.254-0.993,22.346-0.992
		c0.669,0,1.312,0.006,1.924,0.018c2.737,0.053,6.278,0.546,10.171,1.278c5.848,1.096,12.507,2.713,18.83,4.065
		c3.163,0.676,6.244,1.287,9.12,1.732c2.877,0.445,5.544,0.728,7.928,0.729c0.199,0,0.396-0.002,0.591-0.006
		c3.005-0.064,6.529-0.385,10.349-0.826c5.726-0.662,12.108-1.599,18.203-2.385c6.089-0.786,11.905-1.417,16.375-1.48
		c0.213-0.003,0.429-0.004,0.648-0.004c2.957-0.001,6.525,0.286,10.37,0.726c5.771,0.66,12.167,1.659,18.237,2.499
		c6.077,0.838,11.805,1.524,16.409,1.527l0.21,0l0.06,0l-0.059,0c0.134,0,0.269-0.001,0.404-0.001
		c5.537-0.001,13.499,0.526,21.547,1.059c8.059,0.531,16.205,1.068,22.33,1.069c0.566,0,1.116-0.004,1.648-0.014
		c3.345-0.07,7.07-0.952,11.081-2.172c6.001-1.837,12.611-4.484,18.817-6.65c3.1-1.083,6.094-2.043,8.82-2.724
		c2.725-0.683,5.186-1.075,7.152-1.071l0.257,0.002h0.001c2.81,0.047,6.397,0.481,10.323,1.123
		c5.896,0.96,12.568,2.374,18.845,3.556c3.14,0.591,6.183,1.124,9,1.513c2.819,0.388,5.407,0.634,7.688,0.635h0.091h0.016h-0.012
		c2.953-0.011,6.577-0.314,10.581-0.757c5.999-0.665,12.832-1.65,19.226-2.478c6.383-0.829,12.354-1.496,16.435-1.541
		c11.466-0.136,34.737-0.353,45.898-0.488l-0.061-5c-11.147,0.135-34.419,0.352-45.896,0.488c-3.022,0.037-6.704,0.359-10.746,0.814
		c-6.057,0.684-12.903,1.673-19.264,2.491c-6.35,0.82-12.245,1.461-16.188,1.47h0.004h-0.083c-2.556,0.003-5.972-0.39-9.781-1.005
		c-5.723-0.92-12.354-2.325-18.712-3.526c-6.37-1.199-12.438-2.206-17.276-2.294h0.001c-0.115-0.002-0.23-0.003-0.345-0.003
		c-3.464,0.007-7.295,0.848-11.373,2.042c-6.105,1.799-12.75,4.441-18.923,6.631c-3.083,1.095-6.045,2.076-8.722,2.781
		c-2.674,0.708-5.07,1.131-6.945,1.163c-0.498,0.009-1.018,0.014-1.557,0.014c-5.846,0.001-13.955-0.526-22.001-1.059
		c-8.057-0.531-16.048-1.068-21.876-1.069c-0.145,0-0.287,0-0.428,0.001h0.001l-0.188,0c-2.738,0.001-6.152-0.285-9.894-0.726
		c-5.617-0.66-11.98-1.66-18.131-2.5c-6.158-0.838-12.088-1.523-16.99-1.526c-0.243,0-0.483,0.001-0.722,0.005
		c-6.465,0.099-14.868,1.227-23.129,2.345c-4.125,0.56-8.206,1.12-11.948,1.552c-3.74,0.433-7.148,0.736-9.881,0.793
		c-0.159,0.003-0.321,0.005-0.486,0.005c-2.645,0.003-6.124-0.443-9.975-1.145c-5.786-1.05-12.427-2.654-18.77-4.027
		c-3.173-0.687-6.274-1.316-9.177-1.79c-2.905-0.472-5.607-0.792-8.027-0.841c-0.651-0.013-1.327-0.019-2.025-0.019
		c-6.344,0.001-14.623,0.503-22.656,1.001c-8.021,0.499-15.808,0.994-20.951,0.992V200.121z"/>
	<path fill="#6E80B6" d="M52.977,269.001c1.658-0.002,3.387-0.268,5.201-0.696c3.17-0.754,6.612-2.021,10.201-3.487
		c5.375-2.198,11.076-4.851,16.36-6.927c2.639-1.039,5.172-1.932,7.476-2.553c2.302-0.625,4.376-0.969,6.046-0.966l0.247,0.002
		l-0.05-0.001l0.051,0.001c2.527,0.041,6.026,0.901,9.9,2.251c5.829,2.015,12.536,5.062,18.917,7.633
		c3.195,1.286,6.312,2.454,9.246,3.315c2.938,0.858,5.683,1.426,8.238,1.431c0.114,0,0.227-0.001,0.339-0.004h0
		c1.964-0.041,4.193-0.058,6.599-0.058c9.777-0.001,22.465,0.277,32.648,0.277c2.002,0,3.908-0.011,5.679-0.036
		c6.651-0.098,15.998-0.111,25.047-0.111c3.441,0,6.84,0.002,10.034,0.002c4.034,0,7.74-0.004,10.793-0.018
		c0.713-0.004,1.466-0.005,2.253-0.005c9.53,0,24.108,0.229,35.324,0.229c3.095,0,5.935-0.018,8.353-0.062
		c10.623-0.197,29.653-0.944,42.124-0.943c1.431,0,2.774,0.01,4.004,0.031c4.4,0.075,10.153,0.1,16.241,0.1
		c10.771,0,22.59-0.078,29.71-0.1c0.72-0.002,1.492-0.004,2.31-0.004c9.29,0,24.47,0.143,35.766,0.143
		c3.071,0,5.856-0.011,8.166-0.037c11.466-0.139,34.737-0.354,45.898-0.488l-0.061-5c-11.147,0.135-34.419,0.35-45.897,0.488
		c-2.277,0.026-5.047,0.037-8.106,0.037c-11.261,0-26.434-0.143-35.766-0.143c-0.822,0-1.6,0.002-2.326,0.004
		c-7.135,0.021-18.943,0.1-29.693,0.1c-6.073,0-11.809-0.025-16.154-0.1c-1.267-0.021-2.637-0.031-4.091-0.031
		c-12.636,0-31.683,0.75-42.216,0.943c-2.37,0.044-5.186,0.062-8.261,0.062c-11.157,0-25.727-0.229-35.324-0.229
		c-0.794,0-1.555,0.002-2.276,0.005c-3.038,0.014-6.738,0.018-10.77,0.018c-3.192,0-6.591-0.002-10.034-0.002
		c-9.057,0-18.412,0.013-25.121,0.111c-1.739,0.025-3.622,0.036-5.606,0.036c-10.102,0-22.787-0.277-32.648-0.277
		c-2.43,0-4.69,0.017-6.705,0.06h0l-0.235,0.002c-1.188,0.002-2.641-0.19-4.267-0.558c-2.85-0.64-6.222-1.806-9.801-3.211
		c-5.376-2.107-11.226-4.741-16.781-6.893c-2.78-1.076-5.489-2.033-8.06-2.743c-2.573-0.707-5.005-1.175-7.291-1.224h0.025h-0.024
		c-0.117-0.003-0.233-0.004-0.349-0.004c-3.54,0.011-7.393,1.015-11.477,2.424c-6.109,2.123-12.719,5.228-18.793,7.771
		c-3.033,1.271-5.927,2.4-8.506,3.195c-2.575,0.8-4.843,1.245-6.508,1.239V269.001z"/>
	<path fill="#E4A237" d="M52.977,89.589c1.658-0.002,3.387-0.267,5.201-0.696c3.17-0.754,6.612-2.022,10.201-3.487
		c5.375-2.199,11.076-4.852,16.36-6.928c2.639-1.038,5.172-1.931,7.476-2.553c2.302-0.624,4.376-0.968,6.046-0.965l0.245,0.002
		h0.002c2.527,0.04,6.026,0.902,9.9,2.251c5.829,2.015,12.536,5.062,18.917,7.633c3.195,1.286,6.312,2.454,9.246,3.315
		c2.938,0.858,5.683,1.425,8.238,1.431c0.114,0,0.227-0.001,0.338-0.003h0.002c1.969-0.042,4.204-0.059,6.618-0.059
		c9.777,0,22.461,0.279,32.64,0.279c1.998,0,3.9-0.011,5.668-0.037c6.713-0.099,16.171-0.113,25.297-0.112
		c3.477,0,6.906,0.001,10.12,0.001c3.904,0,7.489-0.003,10.457-0.016l0.059,0l-0.058,0c0.722-0.003,1.483-0.005,2.28-0.005
		c9.543,0,24.127,0.228,35.338,0.228c3.078,0,5.904-0.018,8.312-0.062c3.381-0.072,7.119-1.024,11.14-2.339
		c6.013-1.981,12.629-4.835,18.835-7.169c3.1-1.167,6.092-2.202,8.812-2.934c2.718-0.734,5.167-1.154,7.107-1.15l0.233,0.002h0.002
		c2.614,0.038,6.138,0.792,10.02,1.964c5.839,1.75,12.511,4.39,18.814,6.615c3.155,1.113,6.223,2.123,9.089,2.866
		c2.87,0.74,5.53,1.228,7.971,1.232h0.049h0.008l0,0c0.683-0.002,1.412-0.003,2.184-0.003c9.239,0,24.417,0.143,35.749,0.143
		c3.128,0,5.964-0.011,8.309-0.039c3.212-0.044,6.938-0.734,10.998-1.707c6.076-1.464,12.865-3.597,19.147-5.361
		c3.138-0.882,6.146-1.672,8.844-2.24c2.693-0.57,5.086-0.911,6.909-0.93l-0.061-5c-3.142,0.044-6.806,0.736-10.824,1.708
		c-6.015,1.464-12.785,3.595-19.094,5.359c-3.152,0.882-6.185,1.671-8.919,2.24c-2.73,0.57-5.17,0.912-7.06,0.931
		c-2.313,0.028-5.134,0.039-8.25,0.039c-11.297,0-26.468-0.143-35.749-0.143c-0.776,0-1.511,0.001-2.199,0.003h0.008h-0.049
		c-2.337,0.01-5.688-0.699-9.453-1.844c-5.664-1.71-12.3-4.343-18.692-6.588c-3.2-1.123-6.344-2.15-9.315-2.917
		c-2.974-0.765-5.769-1.279-8.347-1.326h0.002c-0.109-0.002-0.217-0.003-0.323-0.003c-3.496,0.009-7.337,0.921-11.424,2.21
		c-6.115,1.943-12.765,4.793-18.939,7.151c-3.083,1.179-6.044,2.234-8.716,2.991c-2.669,0.76-5.056,1.21-6.906,1.24
		c-2.359,0.043-5.16,0.061-8.22,0.061c-11.153,0-25.729-0.228-35.338-0.228c-0.804,0-1.573,0.001-2.304,0.005h0.001
		c-2.954,0.013-6.534,0.016-10.435,0.016c-3.212,0-6.641-0.002-10.12-0.002c-9.134,0-18.6,0.014-25.371,0.114
		c-1.736,0.025-3.615,0.036-5.595,0.036c-10.097,0-22.778-0.278-32.64-0.279c-2.438,0-4.704,0.017-6.725,0.06h0.002l-0.236,0.002
		c-1.188,0.001-2.641-0.19-4.267-0.558c-2.85-0.64-6.222-1.806-9.801-3.211c-5.376-2.107-11.226-4.74-16.781-6.893
		c-2.78-1.076-5.489-2.033-8.06-2.743c-2.573-0.707-5.005-1.176-7.291-1.225l-0.028,0l0.03,0c-0.118-0.002-0.235-0.003-0.351-0.003
		c-3.54,0.011-7.393,1.015-11.477,2.424c-6.109,2.123-12.719,5.228-18.793,7.771c-3.033,1.271-5.927,2.401-8.506,3.196
		c-2.575,0.799-4.843,1.245-6.508,1.239V89.589z"/>
	<path fill="#E54049" d="M52.977,31.086c1.658-0.002,3.387-0.267,5.201-0.696c3.17-0.754,6.612-2.022,10.201-3.487
		c5.375-2.199,11.076-4.852,16.36-6.928c2.639-1.038,5.172-1.931,7.476-2.553c2.302-0.624,4.376-0.968,6.046-0.965l0.245,0.002
		l0.028,0l-0.025,0c2.527,0.04,6.026,0.902,9.9,2.251c5.829,2.015,12.536,5.062,18.917,7.633c3.195,1.286,6.312,2.454,9.246,3.315
		c2.938,0.858,5.683,1.425,8.238,1.431c0.114,0,0.227-0.001,0.338-0.003l0.034-0.001l-0.032,0.001
		c1.972-0.042,4.21-0.059,6.627-0.059c9.783,0,22.471,0.278,32.65,0.279c1.991,0,3.887-0.011,5.649-0.037
		c6.687-0.098,16.097-0.112,25.19-0.112c3.481,0,6.917,0.002,10.138,0.002c3.939,0,7.556-0.003,10.546-0.016
		c3.166-0.017,6.86-0.445,10.858-1.063c5.99-0.93,12.646-2.301,18.885-3.453c6.227-1.154,12.067-2.078,16.188-2.148
		c3.12-0.06,6.749-0.528,10.68-1.182c5.889-0.981,12.439-2.389,18.634-3.544c6.184-1.158,12.037-2.049,16.301-2.043
		c0.175,0,0.346,0.001,0.513,0.004l-0.048-0.001l0.05,0.001c2.841,0.048,6.438,0.426,10.371,0.978
		c5.904,0.827,12.574,2.037,18.844,3.045c6.281,1.006,12.125,1.822,16.621,1.828h0.11h0.004c2.953-0.01,6.576-0.314,10.581-0.756
		c5.999-0.665,12.832-1.649,19.226-2.477c6.383-0.829,12.354-1.496,16.435-1.541c11.466-0.135,34.737-0.352,45.898-0.487l-0.061-5
		c-11.147,0.135-34.419,0.352-45.896,0.487c-3.022,0.037-6.704,0.359-10.746,0.814c-6.057,0.684-12.903,1.672-19.264,2.49
		c-6.35,0.819-12.244,1.461-16.188,1.469h0.004h-0.103c-2.593,0.002-6.021-0.335-9.839-0.861
		c-5.733-0.787-12.362-1.987-18.711-3.014c-6.358-1.026-12.412-1.888-17.2-1.974l0.048,0l-0.047,0
		c-0.199-0.003-0.4-0.005-0.602-0.005c-3.277,0.002-7.032,0.431-11.047,1.058c-6.017,0.943-12.608,2.343-18.757,3.52
		c-6.137,1.18-11.863,2.124-15.902,2.192c-3.155,0.06-6.845,0.518-10.838,1.156c-5.983,0.96-12.635,2.337-18.867,3.473
		c-6.221,1.138-12.054,2.021-16.156,2.035c-2.975,0.013-6.587,0.016-10.523,0.016c-3.219,0-6.655-0.002-10.138-0.002
		c-9.101,0-18.52,0.014-25.263,0.113c-1.73,0.025-3.603,0.036-5.576,0.036c-10.096,0-22.783-0.279-32.65-0.279
		c-2.441,0-4.71,0.017-6.733,0.06l0.034,0l-0.032,0l-0.236,0.002c-1.188,0.001-2.641-0.19-4.267-0.558
		c-2.85-0.64-6.222-1.806-9.801-3.211c-5.376-2.107-11.226-4.74-16.781-6.893c-2.78-1.076-5.489-2.033-8.06-2.743
		c-2.573-0.707-5.005-1.176-7.291-1.225h0.002c-0.118-0.002-0.235-0.003-0.351-0.003c-3.54,0.011-7.393,1.015-11.477,2.424
		c-6.109,2.123-12.719,5.228-18.793,7.771c-3.033,1.271-5.927,2.401-8.506,3.196c-2.575,0.799-4.843,1.245-6.508,1.239V31.086z"/>
	<path fill="#1A8D95" d="M52.977,328.363c7.458,0,19.847-0.108,30.859-0.108c5.504,0,10.665,0.027,14.671,0.107
		c6.085,0.123,14.859,0.184,23.558,0.185c8.699-0.001,17.312-0.062,23.083-0.185c1.944-0.041,4.182-0.058,6.613-0.058
		c9.847,0,22.85,0.275,32.901,0.275c1.924,0,3.742-0.01,5.412-0.034c6.652-0.098,15.999-0.111,25.048-0.111
		c3.441,0,6.84,0.002,10.034,0.002c4.034,0,7.74-0.004,10.793-0.018c0.715-0.003,1.469-0.005,2.258-0.005
		c9.526,0,24.091,0.228,35.303,0.228c3.101,0,5.947-0.017,8.369-0.062c3.416-0.074,7.165-1.099,11.193-2.509
		c6.024-2.124,12.645-5.185,18.851-7.686c3.099-1.251,6.089-2.36,8.803-3.143c2.71-0.786,5.148-1.232,7.063-1.228l0.218,0.002
		l-0.021-0.001l0.022,0.001c2.581,0.035,6.095,0.841,9.971,2.1c5.829,1.88,12.5,4.724,18.807,7.123
		c3.157,1.199,6.227,2.289,9.1,3.093c2.878,0.8,5.549,1.329,8.017,1.334h0.056c0.153-0.001,0.309-0.001,0.465-0.001
		c5.294,0,13.302,0.271,21.446,0.543c8.151,0.271,16.443,0.545,22.431,0.546c0.662,0,1.297-0.004,1.9-0.011
		c0.944-0.012,1.973-0.017,3.071-0.017c11.013,0,28.913,0.519,39.812,0.52c1.076-0.001,2.085-0.006,3.016-0.017l-0.061-5
		c-0.905,0.011-1.895,0.017-2.955,0.016c-10.772,0.001-28.675-0.518-39.812-0.519c-1.114,0-2.161,0.005-3.131,0.017
		c-0.58,0.007-1.195,0.011-1.841,0.011c-5.844,0-14.12-0.271-22.264-0.543c-8.15-0.272-16.165-0.545-21.613-0.546
		c-0.162,0-0.322,0-0.479,0.001h-0.041c-1.146,0.002-2.563-0.178-4.155-0.522c-2.791-0.599-6.113-1.689-9.652-3.003
		c-5.317-1.97-11.132-4.43-16.672-6.438c-2.771-1.004-5.478-1.896-8.047-2.555c-2.571-0.657-5.003-1.09-7.281-1.132h0.001
		c-0.103-0.001-0.204-0.002-0.306-0.002c-3.529,0.01-7.38,0.994-11.474,2.378c-6.125,2.087-12.777,5.144-18.952,7.67
		c-3.083,1.263-6.043,2.392-8.71,3.2c-2.663,0.812-5.04,1.288-6.866,1.316c-2.375,0.045-5.195,0.062-8.277,0.062
		c-11.154,0-25.709-0.228-35.303-0.228c-0.796,0-1.558,0.002-2.281,0.005c-3.038,0.014-6.738,0.018-10.77,0.018
		c-3.192,0-6.591-0.002-10.034-0.002c-9.057,0-18.412,0.013-25.121,0.111c-1.637,0.024-3.432,0.034-5.339,0.034
		c-9.97,0-22.972-0.275-32.901-0.275c-2.455,0-4.723,0.017-6.72,0.06c-5.705,0.121-14.304,0.183-22.977,0.182
		c-8.673,0.001-17.431-0.061-23.457-0.182c-4.068-0.082-9.25-0.109-14.772-0.109c-11.041,0-23.442,0.108-30.859,0.108V328.363z"/>
	<path fill="#231F20" d="M77.527,352.361l-2.761-0.487l-0.294,1.665l1.065,0.281l-0.5,2.836l-0.041,0.008l-1.78-2.317
		c-0.752-0.999-1.376-1.729-1.873-2.19c-0.496-0.461-1.073-0.75-1.734-0.866c-0.975-0.172-1.812,0.013-2.512,0.556
		c-0.697,0.541-1.146,1.375-1.345,2.5c-0.201,1.141-0.02,2.107,0.544,2.9s1.341,1.264,2.33,1.412l0.049-0.007l0.376-2.13
		c-0.57-0.102-1.005-0.312-1.301-0.636s-0.398-0.737-0.31-1.242c0.08-0.455,0.287-0.78,0.624-0.977
		c0.336-0.196,0.734-0.253,1.194-0.173c0.345,0.062,0.7,0.234,1.064,0.521c0.365,0.285,0.795,0.734,1.291,1.348l3.165,4.201
		l1.433,0.253L77.527,352.361z M75.005,366.667l1.036-5.874l-1.312-0.231l-0.551,1.806l-9.385-1.654l0.021,4.181l1.253,0.221
		l0.33-1.868l7.396,1.305l-0.101,1.885L75.005,366.667z M70.375,369.285c0.88,0.155,1.497,0.396,1.853,0.721
		c0.355,0.326,0.489,0.734,0.402,1.224c-0.088,0.5-0.354,0.844-0.8,1.03c-0.445,0.188-1.108,0.203-1.988,0.049l-2.844-0.502
		c-0.87-0.153-1.482-0.393-1.838-0.719c-0.355-0.325-0.488-0.735-0.4-1.23c0.086-0.49,0.353-0.83,0.802-1.02
		c0.448-0.188,1.105-0.206,1.97-0.054L70.375,369.285z M68.141,366.641c-1.44-0.254-2.596-0.113-3.466,0.421
		c-0.87,0.536-1.405,1.368-1.604,2.499c-0.199,1.135,0.018,2.1,0.654,2.896c0.635,0.796,1.673,1.319,3.113,1.573l2.408,0.425
		c1.445,0.255,2.601,0.116,3.466-0.417s1.398-1.371,1.6-2.512c0.199-1.13-0.017-2.092-0.647-2.887
		c-0.632-0.795-1.67-1.318-3.115-1.573L68.141,366.641z M73.286,376.42l-2.761-0.487l-0.294,1.665l1.065,0.28l-0.5,2.837
		l-0.041,0.008l-1.78-2.317c-0.752-0.999-1.376-1.729-1.873-2.19c-0.496-0.461-1.073-0.75-1.734-0.866
		c-0.975-0.172-1.812,0.013-2.512,0.555c-0.697,0.542-1.146,1.376-1.345,2.501c-0.201,1.141-0.02,2.107,0.544,2.9
		c0.564,0.793,1.341,1.264,2.331,1.412l0.048-0.007l0.376-2.131c-0.57-0.101-1.004-0.312-1.301-0.635
		c-0.295-0.323-0.398-0.737-0.31-1.243c0.08-0.454,0.288-0.779,0.624-0.976s0.734-0.254,1.194-0.173
		c0.345,0.061,0.7,0.234,1.064,0.521c0.365,0.286,0.795,0.735,1.291,1.349l3.165,4.201l1.433,0.253L73.286,376.42z"/>
	<path fill="#231F20" d="M188.905,356.52l0.217-1.23c0.099-0.56,0.307-0.961,0.626-1.2c0.318-0.241,0.765-0.311,1.34-0.209
		c0.479,0.085,0.834,0.298,1.063,0.64c0.228,0.342,0.297,0.766,0.208,1.271c-0.081,0.459-0.284,0.815-0.609,1.067
		s-0.698,0.341-1.118,0.267l-0.374,2.124l0.042,0.022c0.977,0.198,1.797-0.02,2.462-0.652c0.667-0.633,1.09-1.457,1.269-2.473
		c0.2-1.135,0.077-2.117-0.366-2.945c-0.445-0.829-1.166-1.332-2.168-1.508c-0.589-0.104-1.135-0.037-1.636,0.202
		c-0.502,0.239-0.913,0.644-1.234,1.21c-0.148-0.567-0.409-1.039-0.784-1.414c-0.374-0.376-0.8-0.605-1.274-0.689
		c-1-0.176-1.829,0.024-2.489,0.602c-0.658,0.578-1.087,1.432-1.286,2.562c-0.179,1.016-0.051,1.914,0.384,2.697
		c0.434,0.783,1.081,1.234,1.941,1.355l0.048-0.007l0.374-2.123c-0.391-0.068-0.681-0.265-0.871-0.587
		c-0.189-0.322-0.249-0.688-0.177-1.099c0.084-0.476,0.279-0.814,0.588-1.018c0.311-0.203,0.685-0.267,1.125-0.188
		c0.485,0.086,0.842,0.277,1.07,0.575c0.228,0.298,0.297,0.707,0.205,1.227l-0.217,1.231L188.905,356.52z M192.039,366.517
		l1.036-5.874l-1.312-0.231l-0.551,1.806l-9.385-1.654l0.021,4.181l1.253,0.221l0.33-1.868l7.396,1.305l-0.101,1.885
		L192.039,366.517z M187.409,369.135c0.88,0.155,1.497,0.396,1.853,0.721c0.355,0.326,0.489,0.734,0.402,1.224
		c-0.088,0.5-0.354,0.844-0.8,1.03c-0.445,0.188-1.108,0.203-1.988,0.049l-2.844-0.502c-0.87-0.153-1.482-0.393-1.838-0.719
		c-0.355-0.325-0.488-0.735-0.4-1.23c0.086-0.49,0.353-0.83,0.802-1.02c0.448-0.188,1.105-0.206,1.97-0.054L187.409,369.135z
		 M185.175,366.49c-1.44-0.254-2.596-0.113-3.466,0.421c-0.87,0.536-1.405,1.368-1.604,2.499c-0.199,1.135,0.018,2.1,0.654,2.896
		c0.635,0.796,1.673,1.319,3.113,1.573l2.408,0.425c1.445,0.255,2.601,0.116,3.466-0.417s1.398-1.371,1.6-2.512
		c0.199-1.13-0.017-2.092-0.647-2.887c-0.632-0.795-1.67-1.318-3.115-1.573L185.175,366.49z M190.32,376.27l-2.761-0.487
		l-0.294,1.665l1.065,0.28l-0.5,2.837l-0.041,0.008l-1.78-2.317c-0.752-0.999-1.376-1.729-1.873-2.19
		c-0.496-0.461-1.073-0.75-1.734-0.866c-0.975-0.172-1.812,0.013-2.512,0.555c-0.697,0.542-1.146,1.376-1.345,2.501
		c-0.201,1.141-0.02,2.107,0.544,2.9c0.564,0.793,1.341,1.264,2.331,1.412l0.048-0.007l0.376-2.131
		c-0.57-0.101-1.004-0.312-1.301-0.635c-0.295-0.323-0.398-0.737-0.31-1.243c0.08-0.454,0.288-0.779,0.624-0.976
		s0.734-0.254,1.194-0.173c0.345,0.061,0.7,0.234,1.064,0.521c0.365,0.286,0.795,0.735,1.291,1.349l3.165,4.201l1.433,0.253
		L190.32,376.27z"/>
	<path fill="#231F20" d="M303.21,354.567l-0.283-0.235l0.023-0.043l3.938,0.694l-0.443,2.513L303.21,354.567z M300.416,351.592
		l-0.389,2.205l6.439,5.814l1.09,0.085l0.786-4.456l1.073,0.189l0.02,1.209l1.312,0.232l0.796-4.517l-1.312-0.231l-0.431,1.123
		l-1.073-0.189l0.218-1.237l-1.455-0.257l-0.218,1.238L300.416,351.592z M308.991,366.833l1.036-5.874l-1.312-0.231l-0.551,1.806
		l-9.385-1.654l0.021,4.181l1.253,0.221l0.33-1.868l7.396,1.305l-0.101,1.885L308.991,366.833z M304.361,369.451
		c0.88,0.155,1.497,0.396,1.853,0.721c0.355,0.326,0.489,0.734,0.402,1.224c-0.088,0.5-0.354,0.844-0.8,1.03
		c-0.445,0.188-1.108,0.203-1.988,0.049l-2.844-0.502c-0.87-0.153-1.482-0.393-1.838-0.719c-0.355-0.325-0.488-0.735-0.4-1.23
		c0.086-0.49,0.353-0.83,0.802-1.02c0.448-0.188,1.105-0.206,1.97-0.054L304.361,369.451z M302.127,366.807
		c-1.44-0.254-2.596-0.113-3.466,0.421c-0.87,0.536-1.405,1.368-1.604,2.499c-0.199,1.135,0.018,2.1,0.654,2.896
		c0.635,0.796,1.673,1.319,3.113,1.573l2.408,0.425c1.445,0.255,2.601,0.116,3.466-0.417s1.398-1.371,1.6-2.512
		c0.199-1.13-0.017-2.092-0.647-2.887c-0.632-0.795-1.67-1.318-3.115-1.573L302.127,366.807z M307.272,376.586l-2.761-0.487
		l-0.294,1.665l1.065,0.28l-0.5,2.837l-0.041,0.008l-1.78-2.317c-0.752-0.999-1.376-1.729-1.873-2.19
		c-0.496-0.461-1.073-0.75-1.734-0.866c-0.975-0.172-1.812,0.013-2.512,0.555c-0.697,0.542-1.146,1.376-1.345,2.501
		c-0.201,1.141-0.02,2.107,0.544,2.9c0.564,0.793,1.341,1.264,2.331,1.412l0.048-0.007l0.376-2.131
		c-0.57-0.101-1.004-0.312-1.301-0.635c-0.295-0.323-0.398-0.737-0.31-1.243c0.08-0.454,0.288-0.779,0.624-0.976
		s0.734-0.254,1.194-0.173c0.345,0.061,0.7,0.234,1.064,0.521c0.365,0.286,0.795,0.735,1.291,1.349l3.165,4.201l1.433,0.253
		L307.272,376.586z"/>
	<path fill="#231F20" d="M424.242,350.973l-2.49-0.439l-1.108,6.286l5.974,1.703l0.469-1.913c-0.248-0.142-0.431-0.338-0.546-0.588
		c-0.116-0.25-0.139-0.582-0.065-0.997c0.091-0.515,0.35-0.869,0.775-1.062c0.426-0.192,0.955-0.233,1.585-0.122
		c0.58,0.102,1.032,0.308,1.353,0.617c0.322,0.31,0.438,0.719,0.348,1.229c-0.078,0.445-0.277,0.781-0.599,1.009
		c-0.321,0.227-0.725,0.298-1.209,0.212l-0.266,2.119l0.035,0.021c0.955,0.194,1.77-0.018,2.444-0.636
		c0.673-0.619,1.099-1.429,1.275-2.429c0.21-1.19,0.021-2.163-0.562-2.918c-0.583-0.756-1.4-1.226-2.451-1.41
		c-1.159-0.205-2.116-0.077-2.868,0.383c-0.751,0.461-1.212,1.218-1.382,2.271c-0.056,0.347-0.06,0.67-0.013,0.973
		c0.047,0.302,0.129,0.569,0.242,0.801l-2.467-0.752l0.519-2.941l0.769-0.065L424.242,350.973z M430.223,366.367l1.036-5.874
		l-1.312-0.231l-0.551,1.806l-9.385-1.654l0.021,4.181l1.253,0.221l0.33-1.868l7.396,1.304l-0.101,1.886L430.223,366.367z
		 M425.593,368.985c0.88,0.155,1.497,0.396,1.853,0.721c0.355,0.326,0.489,0.733,0.402,1.224c-0.088,0.5-0.354,0.844-0.8,1.03
		c-0.445,0.188-1.108,0.204-1.988,0.049l-2.844-0.501c-0.87-0.154-1.482-0.394-1.838-0.719c-0.355-0.326-0.488-0.736-0.4-1.231
		c0.086-0.49,0.353-0.829,0.802-1.019c0.448-0.189,1.105-0.207,1.97-0.055L425.593,368.985z M423.358,366.341
		c-1.44-0.254-2.596-0.114-3.466,0.421s-1.405,1.368-1.604,2.498c-0.199,1.136,0.018,2.102,0.654,2.896
		c0.635,0.795,1.673,1.32,3.113,1.574l2.408,0.424c1.445,0.255,2.601,0.115,3.466-0.418s1.398-1.37,1.6-2.51
		c0.199-1.131-0.017-2.094-0.647-2.888c-0.632-0.794-1.67-1.319-3.115-1.573L423.358,366.341z M428.504,376.119l-2.761-0.486
		l-0.294,1.665l1.065,0.28l-0.5,2.837l-0.041,0.008l-1.78-2.317c-0.752-0.999-1.376-1.729-1.873-2.19
		c-0.496-0.462-1.073-0.75-1.734-0.866c-0.975-0.172-1.812,0.014-2.512,0.555c-0.697,0.542-1.146,1.376-1.345,2.501
		c-0.201,1.141-0.02,2.106,0.544,2.899c0.564,0.794,1.341,1.265,2.331,1.414l0.048-0.008l0.376-2.131
		c-0.57-0.101-1.004-0.312-1.301-0.635c-0.295-0.323-0.398-0.737-0.31-1.242c0.08-0.455,0.288-0.781,0.624-0.977
		c0.336-0.197,0.734-0.254,1.194-0.173c0.345,0.062,0.7,0.235,1.064,0.521c0.365,0.286,0.795,0.736,1.291,1.35l3.165,4.201
		l1.433,0.252L428.504,376.119z"/>
	<path fill="#ED6835" d="M37.93,145.562c0.112-0.176,0.247-0.318,0.403-0.425c0.156-0.107,0.34-0.16,0.552-0.16
		c0.28,0,0.439,0.125,0.477,0.375c0.039,0.25-0.026,0.59-0.194,1.02c-0.151,0.388-0.335,0.7-0.551,0.938
		c-0.216,0.238-0.458,0.357-0.726,0.357c-0.233,0-0.386-0.091-0.458-0.273c-0.072-0.182-0.044-0.436,0.084-0.763l-1.515,0.076
		l-0.02,0.024c-0.265,0.637-0.242,1.141,0.066,1.513c0.309,0.372,0.773,0.558,1.398,0.558c0.735,0,1.393-0.233,1.972-0.701
		c0.579-0.466,1.005-1.046,1.276-1.74c0.304-0.777,0.365-1.379,0.184-1.808c-0.182-0.429-0.602-0.638-1.258-0.627
		c-0.186,0.006-0.375,0.043-0.569,0.112c-0.193,0.069-0.366,0.154-0.519,0.258l0.839-1.716h2.583l0.457-1.166H38.58l-1.978,4.062
		L37.93,145.562z M33.574,141.416h-1.533l-2.852,7.283h4.396l0.445-1.136h-2.863L33.574,141.416z M23.053,141.416l-2.852,7.283
		h1.522l0.829-2.116l0.958-2.791l0.034-0.004l-0.443,4.911h1.017l3.435-4.951l0.03,0.004l-1.237,2.831l-0.829,2.116h1.522
		l2.852-7.283h-1.996l-3.514,5.347H24.35l0.689-5.347H23.053z M21.351,141.416h-5.047l-0.445,1.136h1.754l-2.407,6.147h1.528
		l2.407-6.147h1.765L21.351,141.416z M14.72,141.416h-1.528l-1.226,3.132H9.533l1.226-3.132H9.226l-2.852,7.283h1.533l1.181-3.016
		h2.433l-1.181,3.016h1.528L14.72,141.416z"/>
	<path fill="#ED6835" d="M37.93,145.562l0.335,0.076c0.081-0.126,0.158-0.201,0.235-0.253c0.042-0.027,0.098-0.057,0.249-0.059
		c0.15,0.013,0.177,0.024,0.217,0.184c0.029,0.177-0.018,0.466-0.173,0.863c-0.138,0.353-0.3,0.617-0.456,0.788
		c-0.147,0.143-0.159,0.145-0.31,0.159c-0.124-0.007-0.161-0.025-0.212-0.131c-0.041-0.098-0.035-0.274,0.075-0.556l0.145-0.37
		l-2.161,0.108l-0.188,0.23l-0.046,0.054l-0.026,0.061l-0.032,0.076c-0.274,0.685-0.244,1.292,0.116,1.717
		c0.35,0.427,0.907,0.647,1.613,0.645c0.815,0.006,1.635-0.277,2.317-0.833c0.663-0.534,1.148-1.203,1.441-1.957
		c0.322-0.823,0.406-1.507,0.19-2.021c-0.207-0.508-0.738-0.773-1.459-0.766l-0.107,0.005l-0.073,0.345l0.122-0.35
		c-0.231,0.007-0.475,0.056-0.717,0.141c-0.234,0.083-0.457,0.192-0.661,0.331l0.169,0.247l0.361,0.031l0.683-1.398h2.615
		l0.729-1.863h-4.548l-2.307,4.735l2.013,0.129l0.186-0.292L37.93,145.562l0.161-0.349l-0.955-0.061l1.649-3.389h3.113l-0.184,0.469
		h-2.55l-1.465,2.995l1-0.683c0.101-0.068,0.224-0.131,0.378-0.187c0.143-0.05,0.278-0.076,0.419-0.082l0.024-0.001l0.025-0.004
		l0.05-0.234l-0.094,0.238l0.044-0.004l0.05-0.234l-0.094,0.238l0.023,0.001c0.542,0.006,0.822,0.16,0.97,0.49
		c0.148,0.344,0.109,0.866-0.177,1.597c-0.25,0.633-0.616,1.124-1.111,1.523c-0.477,0.379-0.97,0.563-1.625,0.569
		c-0.545-0.002-0.918-0.154-1.185-0.472c-0.24-0.299-0.27-0.66-0.067-1.192l0.018-0.042l-0.367-0.016l0.295,0.131l0.021-0.024
		l-0.295-0.131l-0.117,0.348l1.515-0.076l0.117-0.348h-0.375c-0.146,0.372-0.196,0.704-0.093,0.969
		c0.094,0.258,0.362,0.422,0.706,0.415c0.386,0.015,0.857-0.222,1.142-0.555c0.274-0.306,0.48-0.667,0.646-1.089
		c0.182-0.464,0.265-0.855,0.217-1.179c-0.036-0.34-0.328-0.578-0.737-0.565c-0.273-0.002-0.585,0.074-0.859,0.263
		c-0.234,0.158-0.426,0.367-0.569,0.594L37.93,145.562l0.161-0.349L37.93,145.562z M33.574,141.416l0.137-0.349h-1.909l-3.125,7.98
		h5.146l0.718-1.833h-2.862l2.406-6.147H33.71L33.574,141.416h-0.375l-2.543,6.495h2.862l-0.171,0.438H29.7l2.579-6.586l1.159,0.001
		L33.574,141.416h-0.375H33.574z M23.053,141.416h-0.376l-2.988,7.631h2.272l0.965-2.464l0.964-2.807l-0.38,0.016l-0.079,0.345
		l0.034-0.004l0.08-0.345l-0.398,0.094l-0.466,5.166h1.302h0.284l3.61-5.205l-0.323-0.094l-0.192,0.345l0.031,0.004l0.191-0.345
		l-0.369-0.016l-1.237,2.831l-0.971,2.479h2.272l3.125-7.98h-2.665l-3.688,5.611l0.331,0.084l0.137-0.349h-0.032l-0.137,0.349
		l0.396-0.083l0.723-5.612h-2.655l-0.137,0.349H23.053l-0.136,0.348h1.688l-0.689,5.347h0.329h0.293l3.515-5.348h1.326l-2.578,6.585
		h-0.772l0.692-1.766l1.368-3.131l-0.345-0.05l-0.309-0.046l-3.465,4.993h-0.448l0.445-4.954l-0.378,0.052l-0.354,0.047
		l-1.064,3.104l-0.686,1.75h-0.772l2.714-6.933h-0.374l-0.136,0.348L23.053,141.416z M21.351,141.416l0.137-0.349h-5.422
		l-0.718,1.833h1.753l-2.406,6.147h2.277l2.407-6.147h1.765l0.718-1.833h-0.374L21.351,141.416h-0.375l-0.308,0.787h-1.765
		l-2.406,6.146h-0.779l2.406-6.146h-1.755l0.172-0.439l4.674,0.001L21.351,141.416h-0.375H21.351z M14.72,141.416l0.137-0.349
		h-1.903l-1.226,3.131h-1.685l1.227-3.131H8.987l-3.125,7.98h2.283l1.181-3.016h1.683l-1.18,3.016h2.278l3.125-7.98h-0.375
		L14.72,141.416h-0.376l-2.714,6.933h-0.778l1.181-3.015H8.851l-1.181,3.015H6.887l2.578-6.585h0.782l-1.226,3.133h3.182
		l1.227-3.132h1.154L14.72,141.416h-0.376H14.72z"/>
	<path fill="#2FA8D5" d="M38.236,204.401H39c0.298,0,0.488,0.089,0.57,0.268c0.083,0.178,0.049,0.461-0.103,0.848
		c-0.121,0.31-0.296,0.558-0.525,0.743c-0.229,0.185-0.476,0.277-0.741,0.277c-0.232,0-0.393-0.092-0.478-0.275
		c-0.086-0.183-0.075-0.415,0.035-0.695h-1.484l-0.022,0.03c-0.279,0.667-0.264,1.179,0.048,1.538
		c0.312,0.359,0.782,0.539,1.41,0.539c0.714,0,1.374-0.191,1.98-0.571c0.605-0.38,1.038-0.901,1.298-1.565
		c0.159-0.407,0.2-0.757,0.123-1.053c-0.078-0.295-0.273-0.513-0.584-0.653c0.381-0.156,0.718-0.375,1.012-0.657
		c0.293-0.282,0.504-0.587,0.634-0.917c0.258-0.66,0.246-1.171-0.035-1.533c-0.282-0.362-0.777-0.543-1.488-0.543
		c-0.624,0-1.22,0.182-1.787,0.546c-0.568,0.365-0.956,0.836-1.164,1.411l-0.001,0.03h1.48c0.1-0.254,0.252-0.46,0.459-0.617
		c0.206-0.157,0.411-0.235,0.611-0.235c0.248,0,0.404,0.088,0.467,0.266c0.062,0.177,0.039,0.407-0.072,0.692
		c-0.127,0.324-0.292,0.577-0.495,0.756c-0.203,0.181-0.441,0.271-0.714,0.271h-0.765L38.236,204.401z M32.535,206.317
		c-0.218,0.16-0.489,0.24-0.812,0.24c-0.413,0-0.682-0.098-0.81-0.295c-0.127-0.196-0.103-0.52,0.074-0.97h-1.49l-0.023,0.03
		c-0.315,0.757-0.278,1.338,0.111,1.743c0.389,0.405,0.956,0.608,1.702,0.608c0.75,0,1.42-0.179,2.012-0.536
		c0.592-0.357,1.011-0.851,1.257-1.48c0.239-0.61,0.241-1.095,0.007-1.453c-0.235-0.358-0.678-0.655-1.329-0.888
		c-0.395-0.19-0.658-0.363-0.788-0.518c-0.13-0.155-0.147-0.352-0.053-0.592c0.102-0.26,0.271-0.477,0.51-0.648
		c0.237-0.172,0.508-0.257,0.813-0.257c0.326,0,0.538,0.104,0.637,0.31c0.098,0.207,0.082,0.477-0.048,0.811h1.485l0.022-0.03
		c0.264-0.636,0.244-1.165-0.058-1.583c-0.303-0.418-0.828-0.627-1.574-0.627c-0.735,0-1.413,0.188-2.034,0.563
		c-0.62,0.375-1.047,0.861-1.28,1.458c-0.236,0.604-0.217,1.073,0.059,1.408c0.276,0.335,0.77,0.635,1.481,0.898
		c0.335,0.16,0.55,0.323,0.644,0.487c0.092,0.166,0.084,0.389-0.027,0.673C32.917,205.94,32.754,206.157,32.535,206.317z
		 M25.576,206.317c-0.218,0.16-0.489,0.24-0.812,0.24c-0.413,0-0.682-0.098-0.81-0.295c-0.127-0.196-0.103-0.52,0.074-0.97h-1.49
		l-0.023,0.03c-0.315,0.757-0.278,1.338,0.111,1.743c0.389,0.405,0.956,0.608,1.702,0.608c0.75,0,1.42-0.179,2.012-0.536
		c0.592-0.357,1.011-0.851,1.257-1.48c0.239-0.61,0.241-1.095,0.007-1.453c-0.235-0.358-0.678-0.655-1.329-0.888
		c-0.395-0.19-0.658-0.363-0.788-0.518c-0.13-0.155-0.147-0.352-0.053-0.592c0.102-0.26,0.271-0.477,0.51-0.648
		c0.237-0.172,0.508-0.257,0.813-0.257c0.326,0,0.538,0.104,0.637,0.31c0.098,0.207,0.082,0.477-0.048,0.811h1.485l0.022-0.03
		c0.264-0.636,0.244-1.165-0.058-1.583c-0.303-0.418-0.828-0.627-1.574-0.627c-0.735,0-1.413,0.188-2.034,0.563
		c-0.62,0.375-1.047,0.861-1.28,1.458c-0.236,0.604-0.217,1.073,0.059,1.408c0.276,0.335,0.77,0.635,1.481,0.898
		c0.335,0.16,0.55,0.323,0.644,0.487c0.092,0.166,0.084,0.389-0.027,0.673C25.958,205.94,25.795,206.157,25.576,206.317z
		 M19.351,205.221c-0.171,0.48-0.367,0.82-0.591,1.018c-0.222,0.198-0.519,0.297-0.888,0.297c-0.377,0-0.614-0.125-0.711-0.375
		c-0.098-0.25-0.046-0.632,0.156-1.146l0.857-2.188c0.198-0.507,0.438-0.886,0.719-1.137c0.281-0.25,0.593-0.375,0.938-0.375
		c0.401,0,0.642,0.104,0.721,0.315c0.079,0.211,0.014,0.556-0.195,1.035h1.474l0.028-0.03c0.303-0.81,0.323-1.422,0.06-1.836
		c-0.263-0.414-0.811-0.62-1.643-0.62c-0.786,0-1.504,0.233-2.154,0.697c-0.65,0.466-1.14,1.12-1.471,1.963l-0.852,2.176
		c-0.332,0.846-0.346,1.501-0.042,1.963c0.303,0.462,0.861,0.693,1.671,0.693c0.81,0,1.503-0.204,2.079-0.611
		c0.575-0.406,1.017-1.01,1.322-1.811l-0.004-0.03h-1.474V205.221z"/>
	<path fill="#2FA8D5" d="M38.236,204.401l-0.136,0.348h0.765c0.22,0.005,0.282,0.051,0.326,0.136
		c0.042,0.078,0.04,0.285-0.098,0.631c-0.102,0.257-0.227,0.417-0.361,0.527c-0.136,0.103-0.219,0.137-0.394,0.144
		c-0.122-0.005-0.176-0.03-0.236-0.145c-0.053-0.115-0.054-0.256,0.03-0.477l0.137-0.349h-2.13l-0.201,0.269l-0.034,0.044
		l-0.023,0.054l-0.037,0.089c-0.28,0.699-0.259,1.312,0.107,1.727c0.355,0.412,0.915,0.625,1.621,0.621
		c0.782,0.002,1.562-0.215,2.264-0.659c0.719-0.448,1.242-1.089,1.525-1.825c0.18-0.458,0.234-0.878,0.139-1.235
		c-0.092-0.36-0.339-0.632-0.706-0.795l-0.269,0.324l0.053,0.308c0.448-0.183,0.86-0.451,1.208-0.785
		c0.348-0.333,0.606-0.708,0.759-1.098c0.288-0.727,0.287-1.356-0.055-1.791c-0.333-0.431-0.928-0.638-1.706-0.635
		c-0.701-0.004-1.42,0.213-2.078,0.638c-0.645,0.409-1.12,0.974-1.359,1.6l-0.034,0.095l-0.016,0.046l-0.001,0.068l-0.01,0.238
		h2.127l0.137-0.348c0.078-0.195,0.17-0.306,0.279-0.388c0.131-0.096,0.186-0.111,0.28-0.116c0.15,0.008,0.177,0.03,0.218,0.117
		c0.036,0.104,0.03,0.256-0.062,0.493c-0.11,0.281-0.242,0.463-0.353,0.559c-0.098,0.08-0.154,0.111-0.344,0.119h-0.765h-0.375
		l-0.704,1.798H38.1L38.236,204.401h0.374l0.294-0.752h0.391c0.354,0.008,0.774-0.141,1.083-0.423
		c0.293-0.264,0.493-0.587,0.636-0.953c0.131-0.334,0.173-0.641,0.084-0.891c-0.086-0.269-0.371-0.424-0.716-0.416
		c-0.307-0.005-0.661,0.136-0.944,0.357c-0.303,0.228-0.517,0.53-0.638,0.844h0.375l0.137-0.349h-1.48l-0.137,0.349l0.399-0.111
		l0.001-0.03l-0.399,0.111l0.383-0.026l0.016-0.042c0.187-0.465,0.47-0.795,0.917-1.086c0.479-0.304,0.95-0.451,1.498-0.455
		c0.644,0.003,1.04,0.158,1.271,0.452c0.22,0.288,0.243,0.681,0.015,1.276c-0.106,0.269-0.271,0.505-0.51,0.736
		c-0.24,0.229-0.501,0.399-0.814,0.529l-0.847,0.347l0.632,0.285c0.256,0.118,0.399,0.28,0.462,0.511
		c0.061,0.234,0.032,0.516-0.106,0.872c-0.236,0.591-0.578,0.991-1.071,1.304c-0.509,0.317-1.051,0.48-1.695,0.483
		c-0.551-0.002-0.931-0.151-1.2-0.456c-0.235-0.278-0.265-0.638-0.053-1.195l0.027-0.064l-0.37-0.012l0.312,0.11l0.022-0.03
		l-0.312-0.11l-0.136,0.349h1.484l0.136-0.349h-0.375c-0.135,0.339-0.158,0.662-0.037,0.913c0.108,0.252,0.375,0.411,0.719,0.406
		c0.356,0.006,0.768-0.145,1.087-0.41c0.324-0.262,0.549-0.597,0.689-0.958c0.166-0.427,0.23-0.786,0.107-1.066
		c-0.119-0.272-0.436-0.404-0.812-0.399H38.37L38.236,204.401h0.374H38.236z M32.535,206.317l-0.186-0.235
		c-0.089,0.065-0.227,0.123-0.489,0.125c-0.354-0.001-0.511-0.081-0.583-0.19c-0.066-0.093-0.076-0.321,0.084-0.727l0.137-0.349
		h-2.136l-0.201,0.268l-0.038,0.049l-0.019,0.048l-0.037,0.086c-0.319,0.797-0.271,1.486,0.175,1.943
		c0.435,0.456,1.087,0.687,1.907,0.685c0.811,0.002,1.59-0.197,2.287-0.619c0.706-0.422,1.223-1.042,1.493-1.747
		c0.267-0.675,0.281-1.267-0.004-1.698c-0.272-0.413-0.761-0.729-1.443-0.974l-0.249,0.331l0.275-0.321
		c-0.381-0.181-0.623-0.349-0.712-0.46c-0.076-0.099-0.084-0.174-0.029-0.329c0.077-0.191,0.173-0.305,0.317-0.412
		c0.129-0.09,0.259-0.141,0.495-0.146c0.241,0.006,0.332,0.061,0.396,0.181c0.062,0.133,0.061,0.313-0.045,0.591l-0.137,0.348h2.129
		l0.203-0.268l0.039-0.052l0.023-0.058l0.022-0.058c0.276-0.692,0.243-1.313-0.097-1.776c-0.348-0.487-0.975-0.729-1.795-0.726
		c-0.802-0.003-1.592,0.209-2.31,0.646c-0.723,0.431-1.255,1.041-1.517,1.724c-0.269,0.673-0.256,1.265,0.083,1.668
		c0.315,0.381,0.845,0.693,1.579,0.967l0.253-0.329l-0.274,0.32c0.313,0.147,0.493,0.299,0.546,0.4
		c0.048,0.088,0.056,0.213-0.031,0.44c-0.087,0.215-0.185,0.33-0.3,0.415L32.535,206.317l0.186,0.234
		c0.323-0.235,0.551-0.553,0.678-0.885c0.136-0.342,0.16-0.664,0.024-0.905c-0.135-0.229-0.384-0.404-0.74-0.577l-0.022-0.009
		c-0.688-0.254-1.147-0.54-1.383-0.83c-0.213-0.266-0.24-0.612-0.036-1.146c0.206-0.511,0.526-0.874,1.045-1.192
		c0.523-0.314,1.089-0.477,1.759-0.48c0.672,0.004,1.094,0.18,1.352,0.53c0.242,0.346,0.268,0.743,0.064,1.274l-0.022,0.058h0.375
		l-0.313-0.111l-0.022,0.03l0.313,0.111l0.137-0.349h-1.485l-0.137,0.349h0.374c0.154-0.39,0.185-0.75,0.052-1.03
		c-0.134-0.293-0.468-0.446-0.878-0.439c-0.376-0.004-0.788,0.116-1.134,0.369c-0.331,0.236-0.575,0.556-0.701,0.886
		c-0.133,0.325-0.107,0.644,0.078,0.855c0.169,0.199,0.452,0.376,0.861,0.576l0.026,0.01c0.62,0.221,1.017,0.498,1.214,0.801
		c0.184,0.286,0.193,0.663-0.018,1.209c-0.223,0.555-0.544,0.922-1.021,1.213c-0.487,0.293-1.049,0.452-1.737,0.454
		c-0.673-0.002-1.154-0.177-1.5-0.533c-0.307-0.331-0.353-0.753-0.107-1.396l0.026-0.06l-0.369-0.013l0.312,0.11l0.022-0.03
		l-0.312-0.11l-0.137,0.348h1.49l0.137-0.348h-0.375c-0.192,0.494-0.251,0.913-0.063,1.213c0.185,0.286,0.565,0.403,1.039,0.401
		c0.382,0.002,0.787-0.099,1.134-0.355L32.535,206.317z M25.576,206.317l-0.186-0.235c-0.089,0.065-0.227,0.123-0.489,0.125
		c-0.354-0.001-0.511-0.081-0.583-0.19c-0.066-0.093-0.076-0.321,0.084-0.727l0.137-0.349h-2.136l-0.201,0.268l-0.034,0.045
		l-0.022,0.052l-0.037,0.086c-0.319,0.797-0.271,1.486,0.175,1.943c0.435,0.456,1.087,0.687,1.907,0.685
		c0.811,0.002,1.59-0.197,2.287-0.619c0.706-0.422,1.223-1.042,1.493-1.747c0.267-0.675,0.281-1.267-0.004-1.698
		c-0.272-0.413-0.761-0.729-1.443-0.974l-0.249,0.331l0.275-0.321c-0.381-0.181-0.623-0.349-0.712-0.46
		c-0.076-0.099-0.084-0.174-0.029-0.329c0.077-0.191,0.173-0.305,0.317-0.412c0.129-0.09,0.259-0.141,0.495-0.146
		c0.241,0.006,0.332,0.061,0.396,0.181c0.062,0.133,0.061,0.313-0.045,0.591l-0.137,0.348h2.13l0.202-0.268l0.039-0.051l0.023-0.059
		l0.022-0.058c0.276-0.692,0.243-1.313-0.097-1.776c-0.348-0.487-0.975-0.729-1.795-0.726c-0.802-0.003-1.592,0.209-2.31,0.646
		c-0.723,0.431-1.255,1.041-1.517,1.724c-0.269,0.673-0.256,1.265,0.083,1.668c0.315,0.381,0.845,0.693,1.579,0.967l0.253-0.329
		l-0.274,0.32c0.313,0.147,0.493,0.299,0.546,0.4c0.048,0.088,0.056,0.213-0.031,0.44c-0.087,0.215-0.185,0.33-0.3,0.415
		L25.576,206.317l0.186,0.234c0.323-0.235,0.551-0.553,0.678-0.885c0.136-0.342,0.16-0.664,0.024-0.905
		c-0.135-0.229-0.384-0.404-0.74-0.577l-0.022-0.009c-0.688-0.254-1.147-0.54-1.383-0.83c-0.213-0.266-0.24-0.612-0.036-1.146
		c0.206-0.511,0.526-0.874,1.045-1.192c0.523-0.314,1.089-0.477,1.759-0.48c0.672,0.004,1.094,0.18,1.352,0.53
		c0.242,0.346,0.268,0.743,0.064,1.274l-0.022,0.058h0.375l-0.313-0.111l-0.022,0.03l0.313,0.111l0.137-0.349h-1.485l-0.137,0.349
		h0.374c0.154-0.39,0.185-0.75,0.052-1.03c-0.134-0.293-0.468-0.446-0.878-0.439c-0.376-0.004-0.788,0.116-1.134,0.369
		c-0.331,0.236-0.575,0.556-0.701,0.886c-0.133,0.325-0.107,0.644,0.078,0.855c0.169,0.199,0.452,0.376,0.861,0.576l0.026,0.01
		c0.62,0.221,1.017,0.498,1.214,0.801c0.184,0.286,0.193,0.663-0.018,1.209c-0.223,0.555-0.544,0.922-1.021,1.213
		c-0.487,0.293-1.049,0.452-1.737,0.454c-0.673-0.002-1.154-0.177-1.5-0.533c-0.307-0.331-0.353-0.753-0.107-1.396l0.026-0.06
		l-0.369-0.013l0.312,0.11l0.022-0.03l-0.312-0.11l-0.137,0.348h1.49l0.137-0.348h-0.375c-0.192,0.494-0.251,0.913-0.063,1.213
		c0.185,0.286,0.565,0.403,1.039,0.401c0.382,0.002,0.787-0.099,1.134-0.355L25.576,206.317z M19.351,205.221l-0.377,0.005
		l-0.055,0.144c-0.141,0.367-0.305,0.599-0.396,0.677c-0.079,0.068-0.205,0.135-0.514,0.141c-0.288-0.007-0.395-0.075-0.465-0.232
		c-0.063-0.154-0.04-0.465,0.147-0.941l0.857-2.188c0.183-0.471,0.397-0.784,0.578-0.94c0.188-0.159,0.315-0.213,0.568-0.223
		c0.338,0.005,0.438,0.08,0.473,0.17c0.037,0.086,0.024,0.311-0.118,0.667l-0.065,0.159l-0.146,0.354h2.084l0.207-0.219l0.074-0.079
		l0.032-0.086c0.323-0.862,0.365-1.573,0.048-2.071c-0.317-0.501-0.977-0.73-1.871-0.728c-0.861-0.005-1.721,0.267-2.472,0.807
		c-0.763,0.545-1.314,1.301-1.665,2.203l-0.852,2.176c-0.357,0.905-0.389,1.666-0.031,2.207c0.348,0.535,1.013,0.801,1.898,0.797
		c0.872,0.002,1.695-0.226,2.393-0.719c0.686-0.486,1.177-1.177,1.501-2.009l0.009-0.023h-0.252l0.233,0.038l0.019-0.038h-0.252
		l0.233,0.038l0.063-0.112l-0.017-0.128l-0.026-0.196h-2.089l-0.133,0.354L19.351,205.221l-0.137,0.348h1.475l0.137-0.348
		l-0.397,0.152l0.004,0.03l0.397-0.152l-0.348-0.058l-0.045,0.1c-0.287,0.728-0.665,1.215-1.108,1.528
		c-0.454,0.32-1.016,0.5-1.764,0.502c-0.736-0.003-1.186-0.2-1.444-0.588c-0.25-0.383-0.253-0.931,0.053-1.718l0.852-2.176
		c0.311-0.788,0.738-1.338,1.277-1.725c0.549-0.389,1.125-0.583,1.837-0.587c0.769,0.003,1.206,0.187,1.414,0.513
		c0.209,0.33,0.211,0.842-0.071,1.601l0.377-0.005l-0.271-0.16l-0.029,0.03l0.271,0.16l0.137-0.349h-1.474l-0.137,0.349l0.372,0.005
		l0.069-0.169c0.168-0.433,0.239-0.788,0.138-1.073c-0.124-0.333-0.505-0.467-0.969-0.462c-0.438-0.009-0.935,0.186-1.308,0.527
		c-0.383,0.345-0.646,0.789-0.86,1.333l-0.857,2.188c-0.215,0.553-0.296,1.006-0.165,1.351c0.125,0.344,0.492,0.527,0.958,0.52
		c0.428,0.005,0.896-0.125,1.257-0.45c0.308-0.284,0.501-0.63,0.674-1.065l0.06-0.155L19.351,205.221l-0.137,0.348L19.351,205.221z"
		/>
	<path fill="#6E80B6" d="M40.161,263.551h1.189c0.33,0,0.535,0.113,0.616,0.344c0.081,0.229,0.054,0.517-0.083,0.863
		c-0.135,0.346-0.333,0.629-0.592,0.852c-0.26,0.226-0.554,0.338-0.88,0.338h-1.189L40.161,263.551z M39.968,267.081
		c0.778,0,1.478-0.214,2.1-0.642c0.622-0.429,1.069-0.992,1.343-1.691c0.272-0.695,0.268-1.26-0.017-1.689
		c-0.284-0.429-0.816-0.645-1.599-0.645h-2.723l-2.852,7.283h1.533l1.024-2.616H39.968z M36.897,262.414h-1.528l-1.227,3.132H31.71
		l1.227-3.132h-1.533l-2.852,7.283h1.533l1.181-3.016h2.433l-1.181,3.016h1.528L36.897,262.414z M25.268,263.551h1.189
		c0.33,0,0.535,0.113,0.616,0.344c0.081,0.229,0.054,0.517-0.083,0.863c-0.135,0.346-0.333,0.629-0.592,0.852
		c-0.26,0.226-0.554,0.338-0.88,0.338H24.33L25.268,263.551z M25.075,267.081c0.778,0,1.478-0.214,2.1-0.642
		c0.622-0.429,1.069-0.992,1.343-1.691c0.272-0.695,0.268-1.26-0.017-1.689c-0.284-0.429-0.816-0.645-1.599-0.645H24.18
		l-2.852,7.283h1.533l1.024-2.616H25.075z"/>
	<path fill="#6E80B6" d="M40.161,263.551l-0.136,0.348h1.189c0.236,0.009,0.309,0.06,0.366,0.194
		c0.056,0.158,0.044,0.37-0.071,0.665c-0.115,0.291-0.265,0.494-0.443,0.648c-0.161,0.133-0.277,0.183-0.517,0.191h-0.815
		l0.801-2.048L40.161,263.551l-0.136,0.348L40.161,263.551h-0.375l-1.075,2.744h1.564c0.412,0.008,0.883-0.166,1.242-0.482
		c0.34-0.293,0.586-0.656,0.74-1.055c0.158-0.4,0.199-0.766,0.094-1.062c-0.105-0.322-0.442-0.502-0.865-0.493h-1.189h-0.375
		l-0.137,0.35L40.161,263.551L40.161,263.551z M39.968,267.081l-0.137,0.349c0.848,0.004,1.68-0.242,2.407-0.746
		c0.724-0.494,1.25-1.168,1.546-1.936c0.304-0.766,0.306-1.436-0.027-1.934c-0.332-0.506-0.972-0.754-1.826-0.75h-3.099
		l-3.125,7.979h2.283l1.025-2.617l0.815,0.003L39.968,267.081l0.137-0.349h-1.189H38.54l-1.024,2.615h-0.783l2.579-6.587
		l2.347,0.001c0.71,0.004,1.135,0.188,1.372,0.54c0.235,0.363,0.248,0.817,0.005,1.445c-0.251,0.632-0.62,1.086-1.138,1.444
		c-0.518,0.354-1.085,0.535-1.793,0.539L39.968,267.081z M36.897,262.414l0.137-0.35h-1.903l-1.227,3.133H32.22l1.228-3.133h-2.283
		l-3.125,7.979h2.283l1.182-3.017h1.684l-1.182,3.017h2.278l3.125-7.979h-0.375L36.897,262.414h-0.376l-2.715,6.934h-0.778
		l1.181-3.016h-3.182l-1.181,3.016h-0.784l2.579-6.586h0.783l-1.226,3.133h3.182l1.227-3.133l1.154,0.002L36.897,262.414h-0.376
		H36.897z M25.268,263.551l-0.136,0.348h1.189c0.236,0.009,0.309,0.06,0.366,0.194c0.056,0.158,0.044,0.37-0.071,0.665
		c-0.115,0.291-0.265,0.494-0.443,0.648c-0.161,0.133-0.277,0.183-0.517,0.191h-0.815l0.801-2.048L25.268,263.551l-0.136,0.348
		L25.268,263.551h-0.375l-1.075,2.744h1.564c0.412,0.008,0.883-0.166,1.242-0.482c0.34-0.293,0.586-0.656,0.74-1.055
		c0.158-0.4,0.199-0.766,0.094-1.062c-0.105-0.322-0.442-0.502-0.865-0.493h-1.189H25.03l-0.137,0.35L25.268,263.551L25.268,263.551
		z M25.075,267.081l-0.137,0.349c0.848,0.004,1.68-0.242,2.407-0.746c0.724-0.494,1.25-1.168,1.546-1.936
		c0.304-0.766,0.306-1.436-0.027-1.934c-0.332-0.506-0.972-0.754-1.826-0.75H23.94l-3.125,7.979h2.283l1.025-2.617l0.815,0.003
		L25.075,267.081l0.137-0.349h-1.189h-0.375l-1.024,2.615H21.84l2.579-6.587l2.348,0.001c0.71,0.004,1.135,0.188,1.372,0.54
		c0.235,0.363,0.248,0.817,0.005,1.445c-0.251,0.632-0.62,1.086-1.138,1.444c-0.518,0.354-1.085,0.535-1.793,0.539L25.075,267.081z"
		/>
	<path fill="#E4A237" d="M40.386,89.034c-0.218,0.16-0.489,0.24-0.812,0.24c-0.413,0-0.682-0.098-0.81-0.295
		c-0.127-0.196-0.103-0.52,0.073-0.97h-1.49l-0.022,0.03c-0.315,0.758-0.278,1.339,0.111,1.743c0.389,0.406,0.956,0.608,1.702,0.608
		c0.75,0,1.42-0.179,2.012-0.536c0.592-0.357,1.011-0.85,1.257-1.48c0.239-0.61,0.241-1.095,0.007-1.453
		c-0.235-0.358-0.678-0.654-1.329-0.887c-0.395-0.19-0.658-0.363-0.788-0.519c-0.13-0.154-0.147-0.352-0.053-0.592
		c0.102-0.26,0.271-0.477,0.51-0.648c0.237-0.172,0.508-0.257,0.813-0.257c0.326,0,0.538,0.104,0.637,0.31
		c0.098,0.207,0.082,0.477-0.048,0.81h1.485l0.022-0.03c0.264-0.637,0.244-1.165-0.058-1.583c-0.303-0.418-0.828-0.627-1.574-0.627
		c-0.735,0-1.413,0.187-2.034,0.562c-0.62,0.375-1.047,0.861-1.28,1.458c-0.236,0.604-0.217,1.073,0.059,1.408
		s0.77,0.635,1.481,0.898c0.335,0.16,0.55,0.323,0.644,0.487c0.092,0.166,0.084,0.389-0.027,0.673
		C40.768,88.658,40.605,88.874,40.386,89.034z M33.826,88.063c-0.146,0.374-0.334,0.665-0.566,0.875
		c-0.231,0.21-0.451,0.315-0.659,0.315c-0.229,0-0.382-0.088-0.458-0.266c-0.077-0.176-0.039-0.457,0.111-0.84h-1.49l-0.028,0.03
		c-0.299,0.728-0.315,1.278-0.046,1.65c0.269,0.374,0.758,0.561,1.468,0.561c0.656,0,1.282-0.21,1.879-0.628
		c0.596-0.418,1.033-0.984,1.313-1.698L37.332,83H35.81L33.826,88.063z"/>
	<path fill="#E4A237" d="M40.386,89.034L40.2,88.799c-0.089,0.064-0.227,0.123-0.489,0.125c-0.354-0.002-0.511-0.081-0.583-0.19
		c-0.066-0.093-0.076-0.321,0.083-0.727l0.137-0.349h-2.136l-0.201,0.268l-0.036,0.048l-0.021,0.049l-0.037,0.086
		c-0.319,0.798-0.271,1.487,0.175,1.943c0.435,0.456,1.087,0.688,1.907,0.684c0.811,0.001,1.59-0.198,2.287-0.618
		c0.706-0.422,1.223-1.042,1.493-1.747c0.267-0.674,0.281-1.267-0.004-1.698c-0.272-0.413-0.761-0.729-1.443-0.974l-0.249,0.331
		l0.275-0.321c-0.381-0.181-0.623-0.349-0.712-0.46c-0.076-0.099-0.084-0.175-0.029-0.329c0.077-0.191,0.173-0.305,0.317-0.412
		c0.129-0.09,0.259-0.141,0.495-0.146c0.241,0.006,0.332,0.061,0.396,0.181c0.062,0.133,0.061,0.313-0.045,0.591l-0.137,0.349h2.131
		l0.201-0.269l0.039-0.052l0.023-0.058l0.022-0.058c0.276-0.692,0.243-1.313-0.097-1.776c-0.348-0.488-0.975-0.729-1.795-0.726
		c-0.802-0.002-1.592,0.209-2.31,0.646c-0.723,0.431-1.255,1.041-1.517,1.724c-0.269,0.673-0.256,1.265,0.083,1.668
		c0.315,0.381,0.845,0.693,1.579,0.967l0.253-0.329l-0.274,0.32c0.313,0.147,0.493,0.299,0.546,0.4
		c0.048,0.088,0.056,0.213-0.031,0.44c-0.087,0.214-0.185,0.33-0.3,0.415L40.386,89.034l0.186,0.234
		c0.323-0.235,0.551-0.553,0.678-0.885c0.136-0.342,0.16-0.664,0.024-0.905c-0.135-0.23-0.384-0.404-0.74-0.577l-0.022-0.009
		c-0.688-0.254-1.147-0.541-1.383-0.831c-0.213-0.266-0.24-0.612-0.036-1.146c0.206-0.511,0.526-0.874,1.045-1.192
		c0.523-0.314,1.089-0.478,1.759-0.48c0.672,0.003,1.094,0.18,1.352,0.53c0.242,0.345,0.268,0.743,0.064,1.274l-0.022,0.058h0.375
		l-0.313-0.111l-0.022,0.03l0.313,0.111l0.137-0.349h-1.485l-0.137,0.349h0.374c0.154-0.39,0.185-0.75,0.052-1.03
		c-0.134-0.292-0.468-0.445-0.878-0.439c-0.376-0.004-0.788,0.115-1.134,0.369c-0.331,0.236-0.575,0.556-0.701,0.886
		c-0.133,0.325-0.107,0.644,0.078,0.854c0.169,0.199,0.452,0.376,0.861,0.576l0.026,0.01c0.62,0.221,1.017,0.498,1.214,0.801
		c0.184,0.285,0.193,0.663-0.018,1.209c-0.223,0.555-0.544,0.922-1.021,1.213c-0.487,0.292-1.049,0.452-1.737,0.454
		c-0.673-0.002-1.154-0.177-1.5-0.533c-0.307-0.331-0.353-0.753-0.107-1.397l0.026-0.06l-0.369-0.013l0.312,0.11l0.022-0.03
		l-0.312-0.11l-0.136,0.348h1.49l0.136-0.348h-0.375c-0.192,0.494-0.251,0.913-0.063,1.213c0.185,0.286,0.565,0.403,1.039,0.401
		c0.382,0.003,0.787-0.099,1.134-0.354L40.386,89.034z M33.826,88.063h-0.375c-0.13,0.332-0.287,0.554-0.429,0.681
		c-0.174,0.151-0.222,0.155-0.284,0.16c-0.122-0.006-0.162-0.025-0.214-0.129c-0.038-0.075-0.033-0.283,0.104-0.627l0.137-0.35
		h-2.093l-0.208,0.219l-0.068,0.071l-0.03,0.075l-0.037,0.086c-0.296,0.749-0.318,1.386,0,1.828c0.319,0.448,0.912,0.662,1.691,0.66
		c0.739,0.004,1.504-0.25,2.19-0.735c0.703-0.491,1.211-1.164,1.512-1.94l2.12-5.411h-2.273l-2.119,5.411L33.826,88.063l0.375-0.001
		l1.846-4.715h0.771l-1.846,4.715c-0.257,0.651-0.623,1.109-1.113,1.455c-0.507,0.352-0.995,0.518-1.566,0.522
		c-0.642-0.002-1.027-0.163-1.246-0.464c-0.201-0.283-0.214-0.695,0.03-1.326l0.026-0.06l-0.369-0.013l0.271,0.159l0.028-0.03
		l-0.271-0.159l-0.136,0.348h1.49l0.136-0.348h-0.375c-0.164,0.422-0.233,0.773-0.117,1.052c0.099,0.251,0.365,0.409,0.703,0.402
		c0.352,0.006,0.745-0.202,1.033-0.472c0.32-0.292,0.54-0.652,0.703-1.067h-0.373V88.063z"/>
	<path fill="#E54049" d="M38.819,24.498h-1.673l0.398,4.603l-1.05,2.681h1.528l1.015-2.591l4.075-4.692H41.45l-2.529,3.122H38.89
		L38.819,24.498z M31.979,25.633h0.775c0.348,0,0.577,0.079,0.687,0.238c0.109,0.159,0.098,0.408-0.036,0.75
		c-0.119,0.305-0.293,0.537-0.524,0.7c-0.23,0.162-0.502,0.247-0.816,0.253H31.22L31.979,25.633z M32.015,28.57
		c0.301,0,0.483,0.093,0.546,0.28c0.064,0.187,0.026,0.454-0.109,0.8c-0.129,0.33-0.305,0.579-0.531,0.745
		c-0.225,0.167-0.498,0.25-0.821,0.25h-1.082l0.812-2.075H32.015z M30.654,31.781c0.8,0,1.485-0.18,2.055-0.541
		c0.569-0.36,0.991-0.888,1.265-1.585c0.157-0.403,0.196-0.755,0.117-1.055c-0.08-0.3-0.31-0.496-0.686-0.585
		c0.382-0.133,0.708-0.334,0.978-0.603c0.271-0.268,0.474-0.576,0.609-0.922c0.258-0.66,0.226-1.158-0.097-1.491
		c-0.324-0.333-0.89-0.5-1.696-0.5H30.89l-2.852,7.283L30.654,31.781L30.654,31.781z M27.279,24.498l-1.94,4.957
		c-0.182,0.464-0.409,0.795-0.681,0.996c-0.272,0.2-0.593,0.3-0.962,0.3c-0.358,0-0.595-0.105-0.71-0.316
		c-0.115-0.21-0.086-0.536,0.088-0.98l1.94-4.957h-1.528l-1.94,4.957c-0.303,0.774-0.292,1.372,0.031,1.796
		c0.324,0.424,0.882,0.636,1.675,0.636s1.516-0.211,2.172-0.633c0.654-0.422,1.134-1.021,1.438-1.799l1.94-4.957H27.279z
		 M17.413,25.639h1.028c0.309,0,0.504,0.099,0.59,0.295c0.084,0.196,0.061,0.462-0.07,0.795c-0.127,0.327-0.307,0.579-0.538,0.755
		c-0.231,0.177-0.502,0.266-0.815,0.266h-1.022L17.413,25.639z M17.251,28.884c0.297,0,0.487,0.1,0.568,0.3
		c0.082,0.2,0.051,0.482-0.092,0.846l-0.193,0.495c-0.098,0.25-0.178,0.496-0.239,0.735c-0.062,0.24-0.051,0.414,0.032,0.521h1.582
		l0.042-0.105c-0.084-0.103-0.107-0.27-0.069-0.498c0.04-0.228,0.098-0.443,0.177-0.643l0.201-0.515
		c0.173-0.44,0.228-0.808,0.164-1.1c-0.062-0.294-0.27-0.504-0.621-0.63c0.416-0.164,0.768-0.383,1.06-0.658
		c0.29-0.275,0.51-0.602,0.659-0.982c0.264-0.674,0.25-1.201-0.041-1.579c-0.292-0.378-0.823-0.568-1.595-0.568H16.33l-2.85,7.278
		h1.527l1.134-2.896L17.251,28.884L17.251,28.884z"/>
	<path fill="#E54049" d="M38.819,24.498l0.137-0.349h-2.251l0.435,5.025l-1.156,2.956h2.277l1.123-2.868l4.44-5.112h-2.493
		l-2.709,3.344l0.3,0.127l0.137-0.349h-0.032L38.89,27.62l0.398-0.126l-0.075-3.345h-0.257L38.819,24.498l-0.399,0.125l0.074,3.345
		h0.291h0.256l2.529-3.123h0.83l-3.708,4.27l-0.906,2.315h-0.78l0.943-2.407l-0.362-4.178l1.097,0.001L38.819,24.498l-0.399,0.125
		L38.819,24.498z M31.979,25.633l-0.137,0.349h0.775c0.291,0,0.414,0.065,0.462,0.137c0.048,0.065,0.064,0.21-0.049,0.502
		c-0.1,0.249-0.212,0.377-0.326,0.458c-0.116,0.081-0.262,0.139-0.512,0.146h-0.464l0.624-1.591L31.979,25.633l-0.137,0.35
		L31.979,25.633h-0.375l-0.896,2.289h1.221c0.386-0.005,0.785-0.117,1.128-0.359c0.35-0.246,0.585-0.583,0.724-0.942
		c0.154-0.391,0.194-0.745,0.022-0.998c-0.171-0.247-0.508-0.34-0.911-0.339h-0.775h-0.375l-0.137,0.349H31.979z M32.015,28.57
		l-0.137,0.348c0.221,0.007,0.262,0.049,0.296,0.127c0.036,0.1,0.024,0.298-0.097,0.604c-0.111,0.282-0.24,0.436-0.343,0.511
		c-0.103,0.075-0.236,0.131-0.497,0.135h-0.708l0.539-1.378h0.811L32.015,28.57l0.137-0.349h-1.185h-0.375l-1.086,2.772h1.457
		c0.384,0.003,0.798-0.105,1.147-0.367c0.345-0.256,0.568-0.599,0.715-0.976c0.151-0.387,0.213-0.724,0.122-0.998
		c-0.093-0.295-0.417-0.439-0.796-0.432L32.015,28.57z M30.654,31.781l-0.136,0.348c0.855,0.002,1.65-0.194,2.34-0.629
		c0.694-0.438,1.195-1.085,1.489-1.845c0.179-0.456,0.23-0.878,0.134-1.238c-0.098-0.383-0.41-0.64-0.858-0.743l-0.218,0.34
		l0.023,0.32c0.455-0.156,0.877-0.415,1.213-0.75c0.327-0.325,0.571-0.697,0.726-1.095c0.292-0.731,0.266-1.362-0.131-1.766
		c-0.388-0.396-1.039-0.576-1.899-0.575h-2.685l-3.124,7.98h2.991L30.654,31.781l0.137-0.349h-2.24l2.579-6.586l1.934,0.001
		c0.752,0,1.231,0.156,1.492,0.425c0.247,0.264,0.287,0.627,0.062,1.218c-0.116,0.294-0.279,0.536-0.492,0.748
		c-0.206,0.203-0.435,0.347-0.744,0.456l-1.197,0.417l1.002,0.243c0.305,0.077,0.452,0.211,0.513,0.428
		c0.063,0.24,0.036,0.522-0.101,0.873c-0.253,0.634-0.595,1.043-1.04,1.326c-0.45,0.285-1.024,0.449-1.768,0.451L30.654,31.781z
		 M27.279,24.498h-0.376l-1.94,4.957c-0.162,0.422-0.358,0.668-0.493,0.762c-0.155,0.112-0.335,0.181-0.638,0.185
		c-0.282-0.005-0.402-0.071-0.475-0.197c-0.066-0.113-0.067-0.351,0.09-0.75l2.078-5.306h-2.279l-2.077,5.306
		c-0.331,0.838-0.332,1.554,0.051,2.051c0.373,0.491,1.03,0.731,1.895,0.729c0.86,0.003,1.706-0.236,2.461-0.726
		c0.773-0.496,1.333-1.212,1.659-2.054l2.078-5.306H27.04l-0.137,0.349H27.279l-0.136,0.349h1.146l-1.805,4.608
		c-0.282,0.712-0.682,1.194-1.217,1.542c-0.555,0.355-1.156,0.538-1.88,0.541c-0.723-0.003-1.181-0.187-1.456-0.543
		c-0.264-0.35-0.286-0.831-0.013-1.54l1.805-4.609H24.5l-1.804,4.609c-0.189,0.487-0.249,0.902-0.085,1.209
		c0.157,0.294,0.511,0.439,0.947,0.435c0.435,0.003,0.897-0.127,1.286-0.416c0.409-0.307,0.668-0.724,0.868-1.229l1.941-4.957
		L27.279,24.498l-0.136,0.348L27.279,24.498z M17.413,25.639l-0.137,0.349h1.028c0.224,0.006,0.292,0.054,0.346,0.158
		c0.05,0.118,0.046,0.3-0.064,0.583c-0.109,0.276-0.239,0.437-0.36,0.528c-0.118,0.086-0.238,0.139-0.481,0.143h-0.648l0.69-1.762
		L17.413,25.639l-0.137,0.348L17.413,25.639h-0.375l-0.963,2.459h1.397c0.381,0.005,0.803-0.12,1.148-0.388
		c0.339-0.261,0.569-0.604,0.715-0.98c0.152-0.384,0.194-0.733,0.077-1.008c-0.119-0.288-0.442-0.438-0.834-0.431H17.55h-0.375
		l-0.137,0.349L17.413,25.639L17.413,25.639z M17.251,28.884l-0.136,0.348c0.205,0.007,0.27,0.05,0.321,0.159
		c0.049,0.116,0.041,0.319-0.084,0.639l-0.193,0.495c-0.104,0.264-0.188,0.524-0.254,0.778c-0.073,0.286-0.077,0.545,0.067,0.735
		l0.071,0.091h2.104l0.177-0.454l0.062-0.159L19.3,31.413c-0.027-0.03-0.057-0.121-0.024-0.306c0.036-0.208,0.088-0.4,0.156-0.572
		l0.201-0.515c0.189-0.484,0.261-0.913,0.184-1.272c-0.077-0.376-0.354-0.645-0.765-0.79l-0.25,0.331l0.045,0.312
		c0.477-0.188,0.907-0.452,1.261-0.787c0.356-0.336,0.619-0.735,0.787-1.166c0.294-0.742,0.289-1.386-0.061-1.835
		c-0.346-0.451-0.978-0.662-1.812-0.66H16.09l-3.122,7.975h2.277l1.134-2.896h0.735L17.251,28.884l0.137-0.349h-1.109h-0.375
		l-1.134,2.896h-0.777l2.577-6.581l2.18,0.001c0.708,0.001,1.139,0.169,1.375,0.475c0.232,0.307,0.255,0.716,0.021,1.323
		c-0.13,0.328-0.308,0.584-0.531,0.797c-0.229,0.216-0.503,0.39-0.858,0.53L17.81,28.35l0.743,0.27
		c0.293,0.108,0.431,0.26,0.478,0.47c0.049,0.228,0.01,0.533-0.146,0.93l-0.201,0.515c-0.089,0.228-0.154,0.465-0.197,0.712
		c-0.045,0.271-0.029,0.514,0.113,0.689l0.351-0.261h-0.375l-0.042,0.105h0.375l0.137-0.349h-1.582l-0.137,0.349l0.354-0.258
		c-0.022-0.024-0.049-0.111,0.002-0.306c0.059-0.226,0.133-0.457,0.225-0.692l0.193-0.495c0.16-0.409,0.215-0.77,0.1-1.055
		c-0.109-0.29-0.425-0.447-0.813-0.44L17.251,28.884z"/>
	<path fill="#1A8D95" d="M43.775,320.779h-1.533l-2.852,7.281h4.396l0.445-1.136h-2.863L43.775,320.779z M36.534,325.446
		c-0.207,0.527-0.466,0.925-0.777,1.188c-0.312,0.266-0.665,0.396-1.059,0.396c-0.398,0-0.648-0.132-0.75-0.396
		c-0.101-0.264-0.048-0.66,0.159-1.188l0.805-2.058c0.206-0.523,0.46-0.919,0.765-1.184c0.304-0.264,0.657-0.396,1.059-0.396
		c0.398,0,0.65,0.134,0.754,0.398c0.104,0.266,0.054,0.659-0.151,1.182L36.534,325.446z M38.857,323.405
		c0.333-0.852,0.342-1.519,0.03-2.004c-0.312-0.484-0.881-0.729-1.707-0.729c-0.826,0-1.579,0.243-2.264,0.729
		s-1.195,1.152-1.527,2.004l-0.799,2.04c-0.334,0.854-0.347,1.521-0.04,2.001c0.308,0.479,0.874,0.721,1.703,0.721
		c0.208,0,0.415-0.017,0.619-0.05c0.206-0.033,0.408-0.082,0.609-0.146l0.717,1.246l1.241-0.75l-0.698-1.187
		c0.279-0.228,0.531-0.495,0.757-0.807c0.225-0.31,0.412-0.651,0.56-1.029L38.857,323.405z M28.499,326.812
		c-0.218,0.159-0.49,0.239-0.812,0.239c-0.413,0-0.682-0.099-0.81-0.296c-0.127-0.196-0.103-0.521,0.073-0.97h-1.49l-0.022,0.029
		c-0.315,0.758-0.278,1.339,0.11,1.742c0.389,0.406,0.956,0.608,1.702,0.608c0.75,0,1.421-0.179,2.013-0.535
		c0.592-0.355,1.011-0.851,1.257-1.479c0.239-0.61,0.241-1.096,0.007-1.453c-0.235-0.358-0.677-0.655-1.328-0.889
		c-0.396-0.189-0.658-0.361-0.788-0.519c-0.13-0.154-0.147-0.352-0.053-0.592c0.102-0.26,0.271-0.478,0.51-0.648
		c0.237-0.172,0.508-0.257,0.813-0.257c0.326,0,0.539,0.104,0.638,0.31c0.098,0.207,0.082,0.478-0.049,0.812h1.485l0.022-0.03
		c0.264-0.637,0.244-1.165-0.058-1.583c-0.303-0.418-0.828-0.628-1.574-0.628c-0.735,0-1.413,0.188-2.034,0.563
		c-0.621,0.374-1.047,0.86-1.281,1.458c-0.236,0.604-0.217,1.071,0.06,1.406c0.275,0.336,0.77,0.636,1.481,0.898
		c0.334,0.16,0.549,0.323,0.643,0.487c0.093,0.166,0.084,0.39-0.027,0.673C28.88,326.435,28.718,326.651,28.499,326.812z"/>
	<path fill="#1A8D95" d="M43.775,320.779l0.137-0.351h-1.909l-3.124,7.98h5.146l0.718-1.833H41.88l2.406-6.147h-0.374
		L43.775,320.779H43.4l-2.543,6.495h2.863l-0.172,0.438h-3.647l2.579-6.586h1.159L43.775,320.779H43.4H43.775z M36.534,325.446
		h-0.375c-0.19,0.486-0.42,0.812-0.624,0.98c-0.211,0.173-0.391,0.247-0.701,0.255c-0.311-0.008-0.428-0.082-0.502-0.252
		c-0.069-0.17-0.043-0.496,0.149-0.983l0.805-2.058c0.189-0.484,0.416-0.811,0.619-0.982c0.198-0.165,0.374-0.24,0.694-0.248
		c0.309,0.008,0.432,0.083,0.507,0.256c0.072,0.173,0.048,0.493-0.142,0.976l-0.805,2.058L36.534,325.446l0.374,0.001l0.805-2.058
		c0.219-0.562,0.296-1.028,0.161-1.388c-0.133-0.358-0.514-0.549-1.001-0.541c-0.483-0.008-1.015,0.181-1.423,0.543
		c-0.407,0.356-0.69,0.821-0.913,1.386l-0.805,2.058c-0.221,0.566-0.301,1.035-0.168,1.393c0.129,0.359,0.51,0.548,0.997,0.541
		c0.478,0.007,1.005-0.182,1.417-0.539c0.418-0.356,0.706-0.826,0.93-1.395L36.534,325.446L36.534,325.446z M38.857,323.405h0.374
		c0.36-0.912,0.383-1.687,0.021-2.246c-0.355-0.559-1.031-0.838-1.935-0.834c-0.9-0.005-1.793,0.275-2.579,0.836
		c-0.794,0.561-1.37,1.333-1.724,2.244l-0.799,2.04c-0.36,0.913-0.388,1.686-0.03,2.241c0.349,0.556,1.025,0.832,1.932,0.828
		c0.229,0.001,0.46-0.02,0.689-0.056c0.229-0.037,0.458-0.092,0.684-0.163l-0.008-0.325l-0.371,0.232l0.86,1.499l1.994-1.205
		l-0.855-1.452l-0.369,0.235l0.211,0.215c0.325-0.265,0.612-0.572,0.863-0.917c0.252-0.348,0.458-0.728,0.617-1.134l0.799-2.04
		L38.857,323.405l-0.375-0.001l-0.799,2.04c-0.137,0.347-0.305,0.653-0.502,0.927c-0.2,0.273-0.417,0.505-0.651,0.694l-0.286,0.229
		l0.669,1.138l-0.491,0.298l-0.675-1.175l-0.275,0.089c-0.175,0.057-0.352,0.098-0.534,0.127c-0.18,0.029-0.362,0.045-0.548,0.046
		c-0.752-0.005-1.21-0.209-1.476-0.614c-0.256-0.403-0.258-0.965,0.05-1.759l0.799-2.04c0.312-0.79,0.754-1.354,1.331-1.765
		c0.585-0.41,1.2-0.613,1.951-0.619c0.747,0.005,1.208,0.21,1.478,0.621c0.261,0.41,0.266,0.974-0.04,1.763L38.857,323.405
		L38.857,323.405z M28.499,326.812l-0.187-0.234c-0.089,0.063-0.227,0.122-0.489,0.125c-0.354-0.002-0.511-0.081-0.583-0.189
		c-0.066-0.093-0.077-0.32,0.083-0.727l0.137-0.35h-2.136l-0.201,0.269l-0.031,0.041l-0.025,0.056l-0.036,0.087
		c-0.319,0.798-0.271,1.486,0.175,1.943c0.434,0.455,1.086,0.687,1.907,0.684c0.811,0.002,1.59-0.196,2.287-0.616
		c0.706-0.423,1.224-1.042,1.493-1.747c0.268-0.676,0.281-1.268-0.004-1.698c-0.272-0.412-0.76-0.729-1.443-0.974l-0.249,0.33
		l0.275-0.32c-0.381-0.182-0.623-0.35-0.712-0.46c-0.075-0.1-0.084-0.175-0.029-0.329c0.078-0.19,0.173-0.306,0.317-0.412
		c0.129-0.09,0.259-0.141,0.496-0.146c0.241,0.008,0.332,0.062,0.396,0.183c0.062,0.133,0.061,0.312-0.046,0.591l-0.137,0.349h2.131
		l0.201-0.269l0.038-0.051l0.023-0.061l0.022-0.058c0.276-0.692,0.243-1.313-0.097-1.776c-0.348-0.486-0.975-0.729-1.795-0.726
		c-0.802-0.003-1.591,0.209-2.309,0.646c-0.723,0.432-1.255,1.041-1.517,1.726c-0.269,0.673-0.256,1.265,0.083,1.668
		c0.315,0.381,0.845,0.692,1.58,0.967l0.253-0.329l-0.275,0.32c0.313,0.146,0.493,0.299,0.547,0.398
		c0.048,0.089,0.056,0.214-0.031,0.44c-0.087,0.215-0.185,0.33-0.3,0.415L28.499,326.812l0.185,0.233
		c0.323-0.235,0.55-0.553,0.677-0.885c0.136-0.342,0.161-0.664,0.024-0.904c-0.135-0.229-0.384-0.403-0.74-0.577l-0.021-0.009
		c-0.688-0.254-1.147-0.54-1.383-0.83c-0.214-0.266-0.24-0.611-0.036-1.146c0.206-0.513,0.527-0.874,1.045-1.192
		c0.523-0.313,1.089-0.478,1.759-0.479c0.671,0.004,1.094,0.18,1.351,0.529c0.243,0.347,0.268,0.743,0.064,1.274l-0.022,0.058h0.375
		l-0.313-0.109l-0.022,0.028l0.313,0.111l0.137-0.35h-1.485l-0.137,0.35h0.374c0.154-0.391,0.186-0.75,0.052-1.03
		c-0.133-0.293-0.467-0.444-0.878-0.438c-0.376-0.005-0.787,0.114-1.134,0.369c-0.331,0.235-0.575,0.556-0.701,0.886
		c-0.133,0.325-0.106,0.644,0.078,0.854c0.169,0.199,0.452,0.377,0.862,0.576l0.026,0.01c0.62,0.222,1.016,0.497,1.213,0.802
		c0.185,0.286,0.194,0.663-0.018,1.21c-0.223,0.555-0.543,0.922-1.021,1.213c-0.487,0.293-1.049,0.452-1.737,0.454
		c-0.673-0.003-1.154-0.179-1.499-0.533c-0.307-0.331-0.353-0.753-0.107-1.396l0.026-0.061l-0.369-0.013l0.312,0.109l0.022-0.029
		l-0.312-0.109l-0.137,0.348h1.49l0.137-0.348h-0.375c-0.192,0.493-0.251,0.912-0.063,1.213c0.184,0.285,0.565,0.402,1.039,0.4
		c0.382,0.003,0.787-0.1,1.134-0.354L28.499,326.812z"/>
</g>
</svg>
