<?xml version="1.0" encoding="utf-8"?>
<!-- Generator: Adobe Illustrator 15.1.0, SVG Export Plug-In . SVG Version: 6.00 Build 0)  -->
<!DOCTYPE svg PUBLIC "-//W3C//DTD SVG 1.1//EN" "http://www.w3.org/Graphics/SVG/1.1/DTD/svg11.dtd">
<svg version="1.1" id="Layer_1" xmlns="http://www.w3.org/2000/svg" xmlns:xlink="http://www.w3.org/1999/xlink" x="0px" y="0px"
	 width="252px" height="252px" viewBox="0 0 252 252" enable-background="new 0 0 252 252" xml:space="preserve">
<polygon fill="#CCCA33" points="97.641,135.885 100.926,135.248 100.926,113.08 97.641,112.443 97.641,108.709 122.227,108.709 
	122.227,117.178 117.473,117.178 117.199,113.482 107.121,113.482 107.121,121.986 117.941,121.986 117.941,126.764 
	107.121,126.764 107.121,135.248 110.434,135.885 110.434,139.6 97.641,139.6 "/>
<polygon fill="#CCCA33" points="157.34,120.377 155.023,120.674 150.23,139.6 145.051,139.6 140.789,125.936 140.66,125.936 
	136.402,139.6 131.238,139.6 126.43,120.674 124.113,120.377 124.113,116.646 134.512,116.646 134.512,120.377 132.07,120.846 
	134.23,131.35 134.359,131.35 138.645,116.646 142.809,116.646 147.133,131.389 147.262,131.389 149.398,120.865 146.938,120.377 
	146.938,116.646 157.34,116.646 "/>
<path opacity="0.9" fill="#D8D939" enable-background="new    " d="M30.82,30.553v190.449h190.45v-13.824V30.553H30.82z
	 M58.465,58.201h135.152V193.35H58.465V58.201z"/>
<polyline fill="#E8E9EA" points="124.262,58.201 58.477,58.201 58.477,58.201 124.262,58.201 "/>
<polyline opacity="0.8" fill="#E3E5D7" enable-background="new    " points="124.266,30.553 44.641,30.553 44.641,30.584 
	30.82,30.584 30.82,221.002 58.469,221.002 58.469,58.201 124.266,58.201 124.266,30.553 "/>
</svg>
