<?xml version="1.0" encoding="utf-8"?>
<!-- Generator: Adobe Illustrator 15.1.0, SVG Export Plug-In . SVG Version: 6.00 Build 0)  -->
<!DOCTYPE svg PUBLIC "-//W3C//DTD SVG 1.1//EN" "http://www.w3.org/Graphics/SVG/1.1/DTD/svg11.dtd">
<svg version="1.1" id="Layer_1" xmlns="http://www.w3.org/2000/svg" xmlns:xlink="http://www.w3.org/1999/xlink" x="0px" y="0px"
	 width="252px" height="252px" viewBox="0 0 252 252" enable-background="new 0 0 252 252" xml:space="preserve">
<path fill="#EE523C" d="M124.355,134.713c-1,0.984-2.465,1.883-4.387,2.684c-1.926,0.797-4.359,1.199-7.301,1.199
	c-4.172,0-7.566-1.397-10.184-4.191c-2.618-2.793-3.922-6.426-3.922-10.895v-1.059c0-4.625,1.289-8.387,3.871-11.289
	c2.578-2.895,5.949-4.348,10.105-4.348c2.422,0,4.629,0.387,6.633,1.156c2,0.77,3.664,1.812,4.992,3.129v6.215h-4.578l-0.867-4.133
	c-0.57-0.48-1.316-0.867-2.242-1.156c-0.922-0.293-1.988-0.438-3.188-0.438c-2.707,0-4.805,1-6.305,2.988
	c-1.5,2-2.25,4.609-2.25,7.832v1.102c0,3.142,0.734,5.646,2.203,7.521c1.473,1.875,3.594,2.812,6.367,2.812
	c1.246,0,2.254-0.104,3.023-0.315c0.773-0.215,1.375-0.461,1.812-0.742v-5.238l-4.41-0.344v-4.344h10.625v11.856H124.355z"/>
<path fill="#EE523C" d="M127.414,134.432l2.992-0.629v-14.239l-3.312-0.633v-3.734h9.504v18.605l2.973,0.63v3.719h-12.155
	L127.414,134.432L127.414,134.432z M136.598,109.701h-6.19v-4.648h6.19V109.701z"/>
<path fill="#EE523C" d="M150.754,109.572v5.625h4.027v4.348h-4.027v11.691c0,0.887,0.184,1.522,0.551,1.902
	c0.367,0.387,0.859,0.577,1.484,0.577c0.426,0,0.789-0.021,1.113-0.055c0.315-0.039,0.676-0.099,1.074-0.181l0.526,4.478
	c-0.69,0.211-1.379,0.371-2.055,0.474c-0.681,0.108-1.419,0.164-2.207,0.164c-2.142,0-3.781-0.587-4.935-1.767
	c-1.156-1.172-1.729-3.027-1.729-5.574v-11.71h-3.375v-4.348h3.375v-5.625H150.754z"/>
<path opacity="0.9" fill="#EE523C" enable-background="new    " d="M30.555,30.104v190.449H221v-13.824V30.104H30.555z
	 M58.203,57.752h135.152v135.152H58.203V57.752z"/>
<polyline fill="#EAEBEC" points="58.203,220.553 30.555,220.553 30.555,220.717 58.203,220.717 58.203,220.553 "/>
<polyline fill="#E9C8BB" points="124,30.104 44.375,30.104 44.375,30.135 30.555,30.135 30.555,220.553 58.203,220.553 
	58.203,192.904 58.203,57.752 124,57.752 124,30.104 "/>
</svg>
