<?xml version="1.0" encoding="utf-8"?>
<!-- Generator: Adobe Illustrator 15.1.0, SVG Export Plug-In . SVG Version: 6.00 Build 0)  -->
<!DOCTYPE svg PUBLIC "-//W3C//DTD SVG 1.1//EN" "http://www.w3.org/Graphics/SVG/1.1/DTD/svg11.dtd">
<svg version="1.1" id="Layer_1" xmlns="http://www.w3.org/2000/svg" xmlns:xlink="http://www.w3.org/1999/xlink" x="0px" y="0px"
	 width="252px" height="252px" viewBox="0 0 252 252" enable-background="new 0 0 252 252" xml:space="preserve">
<g>
	<path fill="#58595B" d="M185.477,118.834v-5.674h-14.321l-1.436,13.859l4.409,0.291c0.217-0.604,0.578-1.082,1.085-1.436
		c0.507-0.353,1.233-0.529,2.179-0.529c1.174,0,2.057,0.433,2.649,1.299c0.593,0.865,0.889,2.016,0.889,3.451
		c0,1.322-0.279,2.399-0.837,3.23c-0.559,0.832-1.419,1.248-2.581,1.248c-1.015,0-1.835-0.311-2.461-0.932
		c-0.627-0.621-0.94-1.484-0.94-2.59l-4.785,0.24l-0.033,0.085c-0.058,2.188,0.729,3.905,2.357,5.152
		c1.629,1.248,3.584,1.872,5.862,1.872c2.712,0,4.788-0.792,6.229-2.376c1.441-1.583,2.162-3.571,2.162-5.964
		c0-2.644-0.656-4.706-1.966-6.188c-1.311-1.48-3.161-2.204-5.554-2.17c-0.787,0.012-1.504,0.128-2.154,0.351
		c-0.648,0.222-1.207,0.504-1.674,0.846l0.7-5.742h6.699l0.444,1.675H185.477z M167.311,138.043v-6.955h-3.812l-0.239,3.127h-7.023
		v-17.534l2.666-0.513v-3.008h-2.666h-4.99h-2.649v3.008l2.649,0.513v17.858l-2.649,0.514v2.99H167.311z M139.163,130.626v3.913
		l-2.649,0.514v2.99h10.306v-2.99l-2.666-0.514v-17.858l2.666-0.513v-3.008h-9.194l-6.392,18.338h-0.103l-6.34-18.338h-6.511h-2.649
		v3.008l2.649,0.513v17.858l-2.649,0.514v2.99h10.305v-2.99l-2.666-0.514v-3.913l-0.479-10.921l0.103-0.017l6.631,18.354h3.35
		l6.665-18.423l0.103,0.017L139.163,130.626z M91.824,113.16v6.631h3.811l0.205-2.785h4.563v17.533l-2.666,0.514v2.99h10.322v-2.99
		l-2.666-0.514v-17.533h4.58l0.205,2.785h3.828v-6.631H91.824z M67.386,116.681v17.858l-2.649,0.514v2.99h10.305v-2.99l-2.666-0.514
		v-6.836h10.151v6.836l-2.666,0.514v2.99h10.305v-2.99l-2.666-0.514v-17.858l2.666-0.513v-3.008H87.5h-4.973h-2.666v3.008
		l2.666,0.513v7.178H72.376v-7.178l2.666-0.513v-3.008H64.737v3.008L67.386,116.681z"/>
	<path opacity="0.3" fill="#EF7538" d="M126.295,31.42v8.23c11.945,0.001,23.282,2.416,33.609,6.782
		c15.485,6.548,28.687,17.508,37.998,31.294c9.312,13.792,14.739,30.361,14.742,48.273c-0.001,11.945-2.416,23.282-6.782,33.609
		c-6.548,15.485-17.508,28.687-31.294,37.998c-13.791,9.312-30.361,14.739-48.273,14.742c-11.945-0.001-23.282-2.416-33.609-6.782
		C77.201,199.02,64,188.06,54.688,174.273C45.375,160.482,39.948,143.912,39.945,126c0.001-11.945,2.416-23.283,6.783-33.609
		c6.548-15.485,17.508-28.687,31.294-37.999c13.792-9.312,30.361-14.739,48.273-14.742V31.42v-8.23
		c-14.172-0.001-27.716,2.877-40.021,8.083c-18.461,7.81-34.142,20.835-45.226,37.24C29.964,84.911,23.481,104.735,23.485,126
		c-0.001,14.173,2.877,27.717,8.083,40.021c7.81,18.461,20.835,34.143,37.24,45.227c16.399,11.084,36.224,17.566,57.488,17.563
		c14.173,0.001,27.717-2.877,40.021-8.083c18.461-7.811,34.143-20.835,45.227-37.239c11.084-16.399,17.566-36.224,17.563-57.488
		c0.001-14.172-2.877-27.716-8.083-40.021c-7.811-18.46-20.835-34.142-37.239-45.226c-16.399-11.084-36.224-17.566-57.488-17.563
		V31.42z"/>
	<path opacity="0.9" fill="#EF7538" d="M126.294,14.507v8.7c14.217,0.001,27.716,2.876,40.009,8.074
		c18.437,7.796,34.149,20.842,45.234,37.252c11.084,16.417,17.547,36.147,17.55,57.466c-0.001,14.217-2.876,27.716-8.074,40.009
		c-7.796,18.437-20.842,34.149-37.252,45.234c-16.417,11.084-36.147,17.547-57.467,17.55c-14.217-0.001-27.716-2.876-40.009-8.074
		c-18.436-7.796-34.149-20.842-45.234-37.252C29.966,167.05,23.504,147.319,23.501,126c0.001-14.217,2.876-27.716,8.074-40.009
		c7.796-18.436,20.842-34.149,37.252-45.234c16.417-11.085,36.147-17.547,57.466-17.55V14.507v-8.7
		c-16.571-0.001-32.403,3.363-46.787,9.449c-21.581,9.13-39.916,24.358-52.874,43.537C13.674,77.965,6.097,101.137,6.101,126
		c-0.001,16.571,3.363,32.403,9.449,46.787c9.13,21.581,24.359,39.916,43.537,52.874c19.172,12.958,42.344,20.535,67.207,20.532
		c16.571,0.001,32.403-3.363,46.787-9.449c21.581-9.13,39.916-24.358,52.874-43.537c12.958-19.172,20.535-42.344,20.532-67.207
		c0.001-16.571-3.363-32.403-9.449-46.787c-9.13-21.581-24.358-39.916-43.537-52.874C174.329,13.38,151.157,5.803,126.294,5.807
		V14.507z"/>
</g>
</svg>
