<?xml version="1.0" encoding="utf-8"?>
<!-- Generator: Adobe Illustrator 15.1.0, SVG Export Plug-In . SVG Version: 6.00 Build 0)  -->
<!DOCTYPE svg PUBLIC "-//W3C//DTD SVG 1.1//EN" "http://www.w3.org/Graphics/SVG/1.1/DTD/svg11.dtd">
<svg version="1.1" id="Layer_1" xmlns="http://www.w3.org/2000/svg" xmlns:xlink="http://www.w3.org/1999/xlink" x="0px" y="0px"
	 width="252px" height="252px" viewBox="0 0 252 252" enable-background="new 0 0 252 252" xml:space="preserve">
<polygon fill="#EE6837" points="65.129,113.494 65.129,110.521 75.312,110.521 75.312,113.494 72.676,114.002 72.676,121.096 
	82.707,121.096 82.707,114.002 80.074,113.494 80.074,110.521 82.707,110.521 87.629,110.521 90.258,110.521 90.258,113.494 
	87.629,114.002 87.629,131.65 90.258,132.154 90.258,135.115 80.074,135.115 80.074,132.154 82.707,131.65 82.707,124.896 
	72.676,124.896 72.676,131.65 75.312,132.154 75.312,135.115 65.129,135.115 65.129,132.154 67.746,131.65 67.746,114.002 "/>
<polygon fill="#EE6837" points="113.824,110.521 113.824,117.076 110.039,117.076 109.84,114.322 105.309,114.322 105.309,131.65 
	107.945,132.154 107.945,135.115 97.738,135.115 97.738,132.154 100.379,131.65 100.379,114.322 95.871,114.322 95.664,117.076 
	91.898,117.076 91.898,110.521 "/>
<polygon fill="#EE6837" points="139.16,116.924 139.059,116.904 132.465,135.115 129.156,135.115 122.602,116.975 122.504,116.99 
	122.98,127.783 122.98,131.65 125.609,132.154 125.609,135.115 115.426,135.115 115.426,132.154 118.047,131.65 118.047,114.002 
	115.426,113.494 115.426,110.521 118.047,110.521 124.477,110.521 130.746,128.646 130.844,128.646 137.168,110.521 
	146.254,110.521 146.254,113.494 143.617,114.002 143.617,131.65 146.254,132.154 146.254,135.115 136.07,135.115 136.07,132.154 
	138.688,131.65 138.688,127.783 "/>
<polygon fill="#EE6837" points="148.008,135.115 148.008,132.154 150.629,131.65 150.629,114.002 148.008,113.494 148.008,110.521 
	150.629,110.521 155.562,110.521 158.199,110.521 158.199,113.494 155.562,114.002 155.562,131.33 162.5,131.33 162.738,128.24 
	166.504,128.24 166.504,135.115 "/>
<path fill="#EE6837" d="M181.418,116.127l-0.438-1.656h-6.621l-0.691,5.68c0.457-0.34,1.016-0.617,1.656-0.836
	c0.641-0.223,1.344-0.336,2.125-0.352c2.367-0.031,4.191,0.688,5.492,2.148c1.293,1.465,1.94,3.504,1.94,6.114
	c0,2.362-0.715,4.332-2.137,5.897s-3.478,2.349-6.16,2.349c-2.25,0-4.185-0.621-5.793-1.853c-1.608-1.234-2.383-2.931-2.332-5.095
	l0.035-0.082l4.728-0.237c0,1.094,0.312,1.944,0.934,2.56c0.621,0.616,1.43,0.922,2.43,0.922c1.152,0,1.996-0.41,2.555-1.234
	c0.551-0.82,0.824-1.883,0.824-3.191c0-1.418-0.293-2.559-0.879-3.414c-0.586-0.852-1.457-1.281-2.617-1.281
	c-0.938,0-1.652,0.172-2.152,0.523c-0.504,0.352-0.858,0.824-1.069,1.418l-4.363-0.285l1.427-13.699h14.155v5.605H181.418z"/>
<path opacity="0.9" fill="#EF7538" enable-background="new    " d="M205.293,45.229c-20.453-20.48-48.863-33.191-80.098-33.18
	c-31.234-0.012-59.648,12.699-80.098,33.18c-20.477,20.449-33.184,48.859-33.18,80.09c-0.004,31.238,12.703,59.645,33.18,80.098
	c20.449,20.478,48.863,33.188,80.098,33.181c31.235,0.008,59.645-12.703,80.098-33.181c20.473-20.453,33.184-48.858,33.172-80.098
	C238.477,94.088,225.766,65.682,205.293,45.229z M185.145,185.275c-15.383,15.367-36.487,24.824-59.949,24.836
	c-23.457-0.012-44.566-9.469-59.957-24.836c-15.359-15.392-24.824-36.492-24.832-59.958c0.008-23.453,9.473-44.559,24.832-59.949
	c15.391-15.367,36.5-24.824,59.957-24.836c23.461,0.012,44.566,9.469,59.949,24.836c15.367,15.387,24.832,36.492,24.836,59.949
	C209.977,148.783,200.512,169.885,185.145,185.275z"/>
<path opacity="0.8" fill="#E7CCC6" enable-background="new    " d="M125.205,12.047h-0.027c-0.121,0-0.246,0-0.367,0
	c-2.816,0.012-5.613,0.121-8.383,0.336c-27.754,2.129-52.797,14.301-71.316,32.844C34.498,55.82,25.979,68.555,20.229,82.707
	c-5.352,13.164-8.297,27.562-8.297,42.613l0,0c0,12.398,2,24.352,5.691,35.536c5.613,17,15.137,32.227,27.488,44.562
	c20.445,20.478,48.844,33.181,80.07,33.181h0.023v-28.484l0,0c-7.547,0-14.848-0.988-21.797-2.824
	c-14.648-3.887-27.719-11.59-38.156-22.012c-10.555-10.57-18.316-23.832-22.145-38.703c-1.754-6.785-2.684-13.906-2.691-21.254l0,0
	l0,0l0,0c0.008-7.066,0.867-13.914,2.492-20.465c3.758-15.188,11.605-28.73,22.344-39.484c8.656-8.645,19.121-15.418,30.801-19.695
	c9.082-3.324,18.891-5.137,29.152-5.141l0,0L125.205,12.047L125.205,12.047L125.205,12.047"/>
</svg>
