<?xml version="1.0" encoding="utf-8"?>
<!-- Generator: Adobe Illustrator 15.1.0, SVG Export Plug-In . SVG Version: 6.00 Build 0)  -->
<!DOCTYPE svg PUBLIC "-//W3C//DTD SVG 1.1//EN" "http://www.w3.org/Graphics/SVG/1.1/DTD/svg11.dtd">
<svg version="1.1" id="Layer_1" xmlns="http://www.w3.org/2000/svg" xmlns:xlink="http://www.w3.org/1999/xlink" x="0px" y="0px"
	 width="252px" height="252px" viewBox="0 0 252 252" enable-background="new 0 0 252 252" xml:space="preserve">
<polygon fill="#E03F95" points="108.031,114.059 108.031,110.324 120.824,110.324 120.824,114.059 117.52,114.695 117.52,136.867 
	120.824,137.496 120.824,141.215 108.031,141.215 108.031,137.496 111.34,136.867 111.34,114.695 "/>
<path fill="#E03F95" d="M138.262,138.41c-0.719,1.066-1.57,1.871-2.555,2.422c-0.98,0.555-2.105,0.828-3.363,0.828
	c-2.828,0-5.027-1.031-6.59-3.098c-1.563-2.067-2.344-4.802-2.344-8.191v-0.445c0-3.617,0.789-6.539,2.355-8.762
	c1.574-2.215,3.777-3.328,6.622-3.328c1.147,0,2.18,0.246,3.094,0.75c0.922,0.508,1.727,1.215,2.422,2.137v-8.234l-3.31-0.633
	v-3.738h3.31h6.195v28.75l2.973,0.629v3.719h-8.34L138.262,138.41z M129.605,130.371c0,2.008,0.34,3.594,1.008,4.742
	c0.676,1.147,1.772,1.729,3.301,1.729c0.902,0,1.691-0.184,2.355-0.551s1.211-0.897,1.633-1.594v-9.734
	c-0.422-0.734-0.965-1.305-1.625-1.711c-0.652-0.398-1.43-0.605-2.324-0.605c-1.508,0-2.613,0.668-3.305,2.02
	c-0.691,1.344-1.043,3.094-1.043,5.258V130.371L129.605,130.371z"/>
<path fill="#E26CA7" d="M30.82,30.168v190.449h190.45v-13.824V30.168H30.82z M58.465,57.816h135.152v135.152H58.465V57.816z"/>
<polyline opacity="0.8" fill="#FFFFFF" enable-background="new    " points="124.27,30.168 44.645,30.168 44.645,30.199 
	30.82,30.199 30.82,220.613 58.473,220.613 58.473,192.969 58.473,57.816 124.27,57.816 124.27,30.168 "/>
</svg>
