<?xml version="1.0" encoding="utf-8"?>
<!-- Generator: Adobe Illustrator 15.1.0, SVG Export Plug-In . SVG Version: 6.00 Build 0)  -->
<!DOCTYPE svg PUBLIC "-//W3C//DTD SVG 1.1//EN" "http://www.w3.org/Graphics/SVG/1.1/DTD/svg11.dtd">
<svg version="1.1" id="Layer_1" xmlns="http://www.w3.org/2000/svg" xmlns:xlink="http://www.w3.org/1999/xlink" x="0px" y="0px"
	 width="252px" height="252px" viewBox="0 0 252 252" enable-background="new 0 0 252 252" xml:space="preserve">
<g>
	<path fill="#5436A8" d="M30.555,30.553v190.449H221v-13.824V30.553H30.555 M58.203,58.201h135.152V193.35H58.203V58.201"/>
	<polyline fill="#EAEBEC" points="124,58.201 58.203,58.201 58.203,98.557 58.203,58.201 124,58.201 	"/>
	<polyline fill="#D4CDE9" points="124,30.553 44.375,30.553 44.375,30.584 30.555,30.584 30.555,221.002 58.203,221.002 
		58.203,193.35 58.203,58.201 124,58.201 124,30.553 	"/>
	<polyline fill="#FAFAFA" points="58.203,58.201 58.203,58.201 58.203,98.557 58.203,58.201 	"/>
	<polyline fill="#FAFAFA" points="58.203,58.201 58.203,58.201 58.203,98.557 58.203,58.201 	"/>
	<polyline fill="#FBFBFB" points="58.203,58.201 58.203,58.201 58.203,98.557 58.203,58.201 	"/>
	<path fill="#5436A8" d="M170.551,123.398c0.438,0.56,0.658,1.309,0.658,2.248v0.394h-5.42l-0.045-0.076
		c0.111-1.019,0.403-1.841,0.878-2.467c0.474-0.625,1.12-0.938,1.938-0.938C169.447,122.558,170.111,122.838,170.551,123.398z
		 M172.549,135.605c1.074-0.363,1.949-0.812,2.625-1.347l-1.195-2.725c-0.768,0.424-1.474,0.734-2.119,0.931
		c-0.646,0.197-1.459,0.295-2.438,0.295c-1.1,0-1.97-0.348-2.611-1.044c-0.641-0.696-1.001-1.584-1.082-2.664l0.031-0.091h9.777
		v-2.406c0-2.271-0.61-4.072-1.831-5.404c-1.222-1.332-2.937-1.998-5.146-1.998c-2.251-0.01-4.044,0.772-5.382,2.346
		c-1.336,1.574-2.005,3.578-2.005,6.009v0.605c0,2.331,0.706,4.254,2.119,5.768s3.3,2.27,5.661,2.27
		C170.275,136.15,171.473,135.969,172.549,135.605z M157.54,112.22h-4.42v3.315h4.42V112.22z M150.986,135.833h8.673v-2.649
		l-2.119-0.453v-13.275h-6.781v2.664l2.361,0.454v10.157l-2.134,0.453V135.833z M140.405,119.455h-7.433v2.664l1.424,0.227
		l4.844,13.487h4.223l4.828-13.487l1.424-0.227v-2.664h-7.433v2.664l1.574,0.303l-2.134,7.311l-0.318,1.545h-0.091l-0.288-1.545
		l-2.164-7.326l1.544-0.288V119.455z M120.728,127.492c0-1.453,0.262-2.638,0.787-3.557c0.524-0.918,1.362-1.377,2.513-1.377
		s1.993,0.459,2.527,1.377c0.535,0.918,0.803,2.104,0.803,3.557v0.318c0,1.483-0.266,2.68-0.795,3.588
		c-0.53,0.908-1.365,1.361-2.505,1.361c-1.171,0-2.019-0.451-2.543-1.354c-0.525-0.903-0.787-2.101-0.787-3.595V127.492z
		 M116.308,127.811c0,2.463,0.684,4.468,2.051,6.017c1.367,1.55,3.267,2.323,5.699,2.323c2.401,0,4.286-0.773,5.653-2.323
		c1.367-1.549,2.051-3.554,2.051-6.017v-0.318c0-2.452-0.684-4.455-2.051-6.009c-1.367-1.554-3.262-2.331-5.684-2.331
		c-2.412,0-4.301,0.779-5.668,2.339c-1.368,1.559-2.051,3.56-2.051,6.001V127.811z M107.846,129.264v3.467l-2.346,0.453v2.649h9.127
		v-2.649l-2.361-0.453v-15.818l2.361-0.454v-2.664h-8.144l-5.661,16.241h-0.091l-5.616-16.241h-5.767h-2.346v2.664l2.346,0.454
		v15.818l-2.346,0.453v2.649h9.127v-2.649l-2.361-0.453v-3.467l-0.424-9.672l0.091-0.015l5.873,16.257h2.967l5.903-16.317
		l0.091,0.015L107.846,129.264z M83.537,112.22h-4.42v3.315h4.42V112.22z M76.982,135.833h8.673v-2.649l-2.119-0.453v-13.275h-6.781
		v2.664l2.361,0.454v10.157l-2.134,0.453V135.833z"/>
	<path fill="#5436A8" d="M170.551,123.398l-0.197,0.154c0.395,0.505,0.604,1.192,0.605,2.094v0.143l-5.17,0v0.25l0.215-0.129
		l-0.045-0.076l-0.215,0.129l0.248,0.027c0.107-0.987,0.389-1.763,0.828-2.343c0.436-0.567,0.984-0.835,1.739-0.84
		c0.839,0.004,1.405,0.254,1.794,0.745L170.551,123.398l0.195-0.154c-0.49-0.63-1.25-0.94-2.187-0.936
		c-0.881-0.005-1.624,0.353-2.138,1.037c-0.508,0.671-0.812,1.541-0.926,2.591l-0.01,0.084l0.088,0.147l0.072,0.122h5.812v-0.644
		c0.001-0.976-0.229-1.788-0.711-2.402L170.551,123.398z M172.549,135.605l0.08,0.237c1.094-0.37,1.994-0.83,2.7-1.388l0.151-0.121
		l-1.385-3.151l-0.238,0.132c-0.756,0.418-1.447,0.721-2.07,0.911c-0.613,0.187-1.403,0.284-2.365,0.284
		c-1.049-0.002-1.834-0.323-2.428-0.963c-0.599-0.653-0.938-1.479-1.016-2.514l-0.25,0.019l0.237,0.079l0.03-0.092l-0.236-0.078
		v0.25h10.027v-2.656c0.002-2.314-0.626-4.188-1.896-5.573c-1.273-1.392-3.074-2.082-5.331-2.08h-0.042
		c-2.289-0.004-4.158,0.813-5.53,2.435c-1.38,1.623-2.065,3.695-2.064,6.171v0.605c-0.003,2.381,0.728,4.377,2.187,5.938
		c1.459,1.568,3.43,2.353,5.844,2.35c1.344,0,2.57-0.185,3.675-0.558L172.549,135.605l-0.08-0.236
		c-1.047,0.354-2.217,0.531-3.516,0.531c-2.31-0.002-4.113-0.731-5.479-2.191c-1.367-1.467-2.05-3.314-2.053-5.596v-0.605
		c0.002-2.387,0.652-4.322,1.947-5.848c1.284-1.509,2.975-2.255,5.148-2.259l0.033,0c2.171,0.003,3.801,0.645,4.971,1.917
		c1.17,1.279,1.765,3.007,1.766,5.236v2.156h-9.709l-0.086,0.262l-0.016,0.047l0.003,0.051c0.083,1.124,0.466,2.074,1.147,2.814
		c0.689,0.752,1.645,1.128,2.795,1.125c0.996,0,1.83-0.099,2.51-0.307c0.668-0.202,1.389-0.52,2.168-0.95l-0.121-0.219l-0.229,0.101
		l1.195,2.725l0.229-0.101l-0.154-0.196c-0.647,0.512-1.497,0.95-2.552,1.307L172.549,135.605z M157.54,112.22v-0.25h-4.671v3.814
		h4.921v-3.814h-0.25V112.22h-0.251v3.064h-3.92v-2.815l4.171,0V112.22h-0.251H157.54z M150.986,135.833v0.25h8.923v-3.101
		l-2.12-0.455l0.001-13.322h-7.281v3.12l2.36,0.454v9.75l-2.134,0.453v3.102h0.251V135.833h0.25v-2.448l2.134-0.453v-10.565
		l-2.362-0.454v-2.208h6.281v13.228l2.119,0.453v2.197h-8.422V135.833h0.25H150.986z M140.405,119.455v-0.25h-7.683v3.126
		l1.488,0.238l4.853,13.514h4.575l4.838-13.514l1.487-0.237v-3.127h-7.932v3.12l1.507,0.29l-2.057,7.047l-0.006,0.02l-0.317,1.545
		l0.245,0.051v-0.25h-0.091v0.25l0.245-0.047l-0.287-1.543l-0.006-0.025l-2.086-7.062l1.475-0.274v-3.122h-0.249V119.455h-0.25
		v2.456l-1.612,0.301l2.24,7.586l0.322,1.729h0.299h0.203l0.356-1.731l2.209-7.567l-1.642-0.315v-2.208h6.933v2.201l-1.358,0.217
		l-4.819,13.46h-3.871l-4.835-13.46l-1.357-0.216v-2.201h7.183V119.455h-0.25H140.405z M120.728,127.492h0.25
		c0-1.424,0.258-2.565,0.754-3.433c0.49-0.843,1.21-1.244,2.296-1.252c1.085,0.008,1.811,0.409,2.312,1.253
		c0.506,0.868,0.769,2.008,0.769,3.431v0.318c0,1.454-0.262,2.605-0.761,3.461c-0.495,0.834-1.214,1.23-2.289,1.238
		c-1.109-0.008-1.839-0.404-2.327-1.23c-0.495-0.85-0.753-2.004-0.753-3.469l0-0.318H120.728h-0.25v0.318
		c0,1.521,0.266,2.764,0.821,3.721c0.561,0.979,1.526,1.486,2.759,1.479c1.205,0.008,2.156-0.504,2.722-1.486
		c0.559-0.961,0.828-2.201,0.828-3.713v-0.318c0-1.483-0.273-2.714-0.836-3.683c-0.57-0.992-1.529-1.509-2.744-1.501
		c-1.216-0.008-2.171,0.51-2.73,1.503c-0.553,0.969-0.82,2.199-0.82,3.681H120.728z M116.308,127.811h-0.25
		c-0.001,2.507,0.701,4.583,2.114,6.182c1.416,1.608,3.403,2.412,5.886,2.408c2.453,0.004,4.425-0.801,5.841-2.408
		c1.413-1.599,2.115-3.675,2.113-6.182v-0.318c0.002-2.497-0.701-4.57-2.113-6.174c-1.416-1.612-3.398-2.419-5.871-2.416
		c-2.464-0.003-4.442,0.806-5.857,2.424c-1.412,1.608-2.115,3.679-2.113,6.166l0,0.318H116.308h0.25v-0.318
		c0.002-2.396,0.667-4.327,1.989-5.836c1.32-1.501,3.121-2.25,5.481-2.254c2.37,0.003,4.177,0.751,5.496,2.247
		c1.322,1.504,1.986,3.437,1.988,5.844v0.318c-0.002,2.418-0.666,4.352-1.988,5.852c-1.319,1.49-3.117,2.235-5.466,2.238
		c-2.381-0.003-4.193-0.748-5.512-2.238c-1.322-1.5-1.987-3.434-1.988-5.852H116.308z M107.846,129.264h-0.25v3.26l-2.346,0.454
		v3.105h9.628v-3.106l-2.362-0.453v-15.406l2.362-0.454v-3.121h-8.57l-5.72,16.41l0.236,0.082v-0.25h-0.091v0.25l0.236-0.082
		l-5.675-16.41h-5.944h-2.596v3.12l2.346,0.454v15.406l-2.347,0.454v3.105h9.628v-3.106l-2.362-0.453l0-3.26l-0.424-9.684
		l-0.25,0.011l0.041,0.247l0.091-0.015l-0.041-0.247l-0.235,0.084l5.932,16.421h3.318l5.963-16.481l-0.235-0.085l-0.042,0.247
		l0.091,0.015l0.042-0.247l-0.25-0.011l-0.424,9.732L107.846,129.264l0.25,0.011l0.433-9.955l-0.309-0.051l-0.205-0.034
		l-5.916,16.348h-2.615L93.6,119.295l-0.296,0.049l-0.218,0.036l0.434,9.894l0,3.661l2.361,0.454v2.192h-8.627v-2.193l2.346-0.453
		v-16.23l-2.346-0.454v-2.207l2.097,0h5.588l5.616,16.241h0.27H101l5.661-16.242h7.716v2.208l-2.361,0.455v16.23l2.36,0.454v2.192
		h-8.627v-2.192l2.347-0.454v-3.672H107.846z M83.537,112.22v-0.25h-4.67v3.814h4.92v-3.814h-0.25V112.22h-0.25v3.064h-3.92v-2.815
		l4.17,0V112.22h-0.25H83.537z M76.982,135.833v0.25h8.923v-3.102l-2.12-0.454l0-13.322h-7.281v3.12l2.36,0.454l0,9.749
		l-2.134,0.454v3.102h0.25V135.833h0.25v-2.446l2.134-0.455v-10.565l-2.362-0.454v-2.208h6.282v13.228l2.119,0.454v2.196h-8.423
		V135.833h0.25H76.982z"/>
</g>
</svg>
