<?xml version="1.0" encoding="utf-8"?>
<!-- Generator: Adobe Illustrator 15.1.0, SVG Export Plug-In . SVG Version: 6.00 Build 0)  -->
<!DOCTYPE svg PUBLIC "-//W3C//DTD SVG 1.1//EN" "http://www.w3.org/Graphics/SVG/1.1/DTD/svg11.dtd">
<svg version="1.1" id="Layer_1" xmlns="http://www.w3.org/2000/svg" xmlns:xlink="http://www.w3.org/1999/xlink" x="0px" y="0px"
	 width="252px" height="252px" viewBox="0 0 252 252" enable-background="new 0 0 252 252" xml:space="preserve">
<g>
	<g>
		<defs>
			<rect id="SVGID_1_" x="68.726" y="109.621" width="114.486" height="35.104"/>
		</defs>
		<clipPath id="SVGID_2_">
			<use xlink:href="#SVGID_1_"  overflow="visible"/>
		</clipPath>
		<path clip-path="url(#SVGID_2_)" fill="#58595B" d="M183.212,118.023h-9.316v3.094l2.145,0.352l-3.006,8.982l-0.105-0.018
			l-0.264-1.371l-2.602-7.594l2.127-0.352v-3.094h-9.316v3.094l1.775,0.281l6.029,15.662l-0.58,1.441
			c-0.246,0.621-0.598,1.14-1.055,1.556s-1.113,0.624-1.969,0.624c-0.129,0-0.281-0.012-0.457-0.035s-0.346-0.047-0.51-0.07
			l-0.598,3.744c0.516,0.129,0.964,0.229,1.345,0.299s0.788,0.105,1.222,0.105c1.852,0,3.237-0.463,4.157-1.389
			s1.655-2.074,2.206-3.445l6.996-18.51l1.775-0.264V118.023z M148.442,137.043h10.055v-3.076l-2.461-0.527v-9.246
			c0.258-0.539,0.633-0.955,1.125-1.248s1.113-0.439,1.863-0.439l2.109,0.053l0.545-4.676c-0.199-0.059-0.448-0.108-0.747-0.149
			s-0.583-0.062-0.853-0.062c-0.926,0-1.74,0.275-2.443,0.826s-1.277,1.318-1.723,2.303l-0.229-2.777h-7.506v3.094l2.725,0.527
			v11.795l-2.461,0.527V137.043z M139.838,122.603c0.51,0.65,0.765,1.521,0.765,2.61v0.457h-6.293l-0.053-0.088
			c0.129-1.184,0.469-2.139,1.02-2.865s1.301-1.09,2.25-1.09C138.558,121.627,139.328,121.952,139.838,122.603z M142.158,136.779
			c1.248-0.422,2.265-0.943,3.05-1.564l-1.389-3.164c-0.891,0.492-1.711,0.853-2.461,1.081s-1.693,0.343-2.83,0.343
			c-1.277,0-2.288-0.404-3.032-1.213s-1.163-1.84-1.257-3.094l0.035-0.105h11.355v-2.795c0-2.637-0.709-4.729-2.127-6.275
			s-3.41-2.32-5.977-2.32c-2.613-0.012-4.696,0.896-6.249,2.725s-2.329,4.154-2.329,6.979v0.703c0,2.707,0.82,4.939,2.461,6.697
			s3.832,2.637,6.574,2.637C139.519,137.412,140.91,137.201,142.158,136.779z M120.054,137.043h6.803v-3.076l-2.303-0.527v-15.416
			h-5.133h-2.25v3.094l2.25,0.527v10.248c-0.375,0.492-0.858,0.87-1.45,1.134s-1.292,0.396-2.101,0.396
			c-0.914,0-1.603-0.302-2.065-0.905s-0.694-1.597-0.694-2.979v-11.514h-5.133h-2.092v3.094l2.092,0.527v7.857
			c0,2.707,0.568,4.702,1.705,5.985s2.707,1.925,4.711,1.925c1.148,0,2.171-0.24,3.067-0.721s1.649-1.166,2.259-2.057
			L120.054,137.043z M99.101,124.439c0,2.695-0.545,4.866-1.635,6.513s-2.719,2.47-4.887,2.47c-2.145,0-3.753-0.823-4.825-2.47
			s-1.608-3.817-1.608-6.513v-0.422c0-2.672,0.53-4.828,1.591-6.469s2.669-2.461,4.825-2.461s3.785,0.826,4.887,2.479
			s1.652,3.803,1.652,6.451V124.439z M104.216,124.053c0-3.727-1.075-6.82-3.226-9.281s-4.96-3.691-8.429-3.691
			c-3.457,0-6.246,1.23-8.367,3.691s-3.182,5.555-3.182,9.281v0.387c0,3.75,1.063,6.85,3.19,9.299s4.919,3.674,8.376,3.674
			c0.457,0,0.917-0.029,1.38-0.088s0.923-0.135,1.38-0.229l6.135,4.131l3.621-2.795l-5.449-3.393c1.441-1.16,2.563-2.66,3.366-4.5
			s1.204-3.873,1.204-6.1V124.053z M77.849,109.621h-5.133v3.814h5.133V109.621z M77.954,118.023h-7.875v3.094l2.742,0.527v16.102
			c0,1.008-0.19,1.755-0.571,2.241s-0.917,0.729-1.608,0.729c-0.316,0-0.609-0.018-0.879-0.053s-0.533-0.088-0.791-0.158
			l-0.246,3.92c0.422,0.105,0.829,0.182,1.222,0.229s0.829,0.07,1.31,0.07c2.098,0,3.738-0.606,4.922-1.819s1.775-2.933,1.775-5.159
			V118.023z"/>
	</g>
	<path opacity="0.3" fill="#0074B1" d="M126.295,31.42v8.23c11.945,0.001,23.282,2.416,33.609,6.782
		c15.485,6.548,28.687,17.508,37.998,31.294c9.312,13.792,14.739,30.361,14.742,48.273c-0.001,11.945-2.416,23.282-6.782,33.609
		c-6.548,15.485-17.508,28.687-31.294,37.998c-13.791,9.312-30.361,14.739-48.273,14.742c-11.945-0.001-23.282-2.416-33.609-6.782
		C77.201,199.02,64,188.06,54.688,174.273C45.375,160.482,39.948,143.912,39.945,126c0.001-11.945,2.416-23.283,6.783-33.609
		c6.548-15.485,17.508-28.687,31.294-37.999c13.792-9.312,30.361-14.739,48.273-14.742V31.42v-8.23
		c-14.172-0.001-27.716,2.877-40.021,8.083c-18.461,7.81-34.142,20.835-45.226,37.24C29.964,84.911,23.481,104.735,23.485,126
		c-0.001,14.173,2.877,27.717,8.083,40.021c7.81,18.461,20.835,34.143,37.24,45.227c16.399,11.084,36.224,17.566,57.488,17.563
		c14.173,0.001,27.717-2.877,40.021-8.083c18.461-7.811,34.143-20.835,45.227-37.239c11.084-16.399,17.566-36.224,17.563-57.488
		c0.001-14.172-2.877-27.716-8.083-40.021c-7.811-18.46-20.835-34.142-37.239-45.226c-16.399-11.084-36.224-17.566-57.488-17.563
		V31.42z"/>
	<path opacity="0.9" fill="#0074B1" d="M126.294,14.507v8.7c14.217,0.001,27.716,2.876,40.009,8.074
		c18.437,7.796,34.149,20.842,45.234,37.252c11.084,16.417,17.547,36.147,17.55,57.466c-0.001,14.217-2.876,27.716-8.074,40.009
		c-7.796,18.437-20.842,34.149-37.252,45.234c-16.417,11.084-36.147,17.547-57.467,17.55c-14.217-0.001-27.716-2.876-40.009-8.074
		c-18.436-7.796-34.149-20.842-45.234-37.252C29.966,167.05,23.504,147.319,23.501,126c0.001-14.217,2.876-27.716,8.074-40.009
		c7.796-18.436,20.842-34.149,37.252-45.234c16.417-11.085,36.147-17.547,57.466-17.55V14.507v-8.7
		c-16.571-0.001-32.403,3.363-46.787,9.449c-21.581,9.13-39.916,24.358-52.874,43.537C13.674,77.965,6.097,101.137,6.101,126
		c-0.001,16.571,3.363,32.403,9.449,46.787c9.13,21.581,24.359,39.916,43.537,52.874c19.172,12.958,42.344,20.535,67.207,20.532
		c16.571,0.001,32.403-3.363,46.787-9.449c21.581-9.13,39.916-24.358,52.874-43.537c12.958-19.172,20.535-42.344,20.532-67.207
		c0.001-16.571-3.363-32.403-9.449-46.787c-9.13-21.581-24.358-39.916-43.537-52.874C174.329,13.38,151.157,5.803,126.294,5.807
		V14.507z"/>
</g>
</svg>
