<?xml version="1.0" encoding="utf-8"?>
<!-- Generator: Adobe Illustrator 15.1.0, SVG Export Plug-In . SVG Version: 6.00 Build 0)  -->
<!DOCTYPE svg PUBLIC "-//W3C//DTD SVG 1.1//EN" "http://www.w3.org/Graphics/SVG/1.1/DTD/svg11.dtd">
<svg version="1.1" id="Layer_1" xmlns="http://www.w3.org/2000/svg" xmlns:xlink="http://www.w3.org/1999/xlink" x="0px" y="0px"
	 width="252px" height="252px" viewBox="0 0 252 252" enable-background="new 0 0 252 252" xml:space="preserve">
<path fill="#156CAB" d="M78.861,132.91c0,2.141-0.57,3.789-1.703,4.957c-1.141,1.164-2.715,1.746-4.734,1.746
	c-0.457,0-0.883-0.023-1.258-0.07c-0.375-0.043-0.766-0.117-1.172-0.215l0.234-3.77l0.762,0.155l0.844,0.048
	c0.664,0,1.176-0.23,1.543-0.699c0.367-0.465,0.555-1.185,0.555-2.152v-15.476l-2.641-0.504v-2.973h7.57V132.91z M78.76,109.547
	h-4.934v-3.664h4.934V109.547z"/>
<path fill="#156CAB" d="M104.1,120.121c0,2.137-0.391,4.094-1.156,5.859c-0.777,1.773-1.855,3.211-3.238,4.325l5.234,3.262
	l-3.477,2.688l-5.898-3.969c-0.434,0.09-0.879,0.164-1.32,0.219c-0.453,0.055-0.891,0.082-1.328,0.082
	c-3.328,0-6.008-1.176-8.047-3.531c-2.043-2.352-3.07-5.328-3.07-8.934v-0.371c0-3.582,1.023-6.555,3.059-8.918
	c2.035-2.367,4.723-3.547,8.035-3.547c3.336,0,6.039,1.18,8.102,3.547c2.07,2.363,3.105,5.336,3.105,8.918L104.1,120.121
	L104.1,120.121z M99.182,119.719c0-2.547-0.531-4.613-1.59-6.203c-1.059-1.59-2.629-2.379-4.699-2.379
	c-2.062,0-3.609,0.789-4.633,2.363c-1.02,1.578-1.527,3.648-1.527,6.219v0.402c0,2.59,0.512,4.676,1.547,6.258
	c1.027,1.582,2.574,2.375,4.637,2.375c2.078,0,3.645-0.793,4.695-2.375c1.047-1.582,1.57-3.668,1.57-6.258V119.719z"/>
<path fill="#156CAB" d="M118.994,129.922c-0.586,0.852-1.309,1.512-2.168,1.973c-0.863,0.461-1.848,0.691-2.949,0.691
	c-1.926,0-3.438-0.613-4.531-1.852c-1.094-1.23-1.637-3.148-1.637-5.747v-7.555l-2.012-0.504v-2.973h2.012h4.938v11.062
	c0,1.328,0.219,2.285,0.664,2.863c0.441,0.582,1.105,0.871,1.98,0.871c0.781,0,1.453-0.129,2.023-0.383
	c0.566-0.254,1.031-0.613,1.391-1.086v-9.852l-2.156-0.504v-2.973h2.156h4.938v14.812l2.207,0.508v2.953h-6.535L118.994,129.922z"/>
<path fill="#156CAB" d="M136.537,132.586c-2.633,0-4.738-0.84-6.309-2.531c-1.582-1.69-2.367-3.836-2.367-6.438v-0.676
	c0-2.715,0.742-4.949,2.234-6.703c1.491-1.758,3.495-2.633,6.008-2.617c2.465,0,4.383,0.742,5.742,2.227
	c1.358,1.488,2.038,3.492,2.038,6.031v2.684h-10.905l-0.035,0.105c0.09,1.203,0.492,2.195,1.211,2.973
	c0.715,0.773,1.68,1.16,2.914,1.16c1.09,0,1.992-0.109,2.715-0.324c0.723-0.223,1.508-0.565,2.363-1.043l1.34,3.039
	c-0.754,0.603-1.734,1.103-2.93,1.508C139.354,132.383,138.018,132.586,136.537,132.586z M136.104,117.422
	c-0.914,0-1.637,0.344-2.164,1.043c-0.526,0.699-0.854,1.617-0.979,2.754l0.052,0.086h6.047v-0.441c0-1.047-0.242-1.883-0.734-2.508
	S137.096,117.422,136.104,117.422z"/>
<path fill="#156CAB" d="M146.592,129.277l2.363-0.508v-11.335l-2.613-0.504v-2.973h7.211l0.223,2.668
	c0.423-0.945,0.978-1.684,1.652-2.215c0.676-0.527,1.461-0.789,2.348-0.789l0.82,0.059l0.719,0.141l-0.522,4.492l-2.03-0.051
	c-0.72,0-1.316,0.141-1.789,0.422c-0.478,0.285-0.832,0.684-1.078,1.199v8.887l2.358,0.508v2.953h-9.66L146.592,129.277
	L146.592,129.277z"/>
<path fill="#156CAB" d="M179.998,116.93l-1.707,0.25l-6.719,17.789c-0.527,1.32-1.234,2.418-2.121,3.312
	c-0.883,0.891-2.223,1.332-3.996,1.332c-0.414,0-0.809-0.031-1.172-0.103c-0.367-0.065-0.797-0.163-1.289-0.288l0.562-3.595
	l0.5,0.065l0.434,0.035c0.824,0,1.457-0.199,1.895-0.602c0.441-0.398,0.777-0.898,1.016-1.492l0.56-1.387l-5.797-15.051
	l-1.707-0.271v-2.973h8.953v2.973l-2.039,0.34l2.5,7.293l0.25,1.32l0.103,0.016l2.891-8.629l-2.066-0.34v-2.973H180v2.976H179.998z"
	/>
<path opacity="0.9" fill="#0074B1" enable-background="new    " d="M205.838,45.414c-20.457-20.48-48.867-33.188-80.098-33.18
	c-31.234-0.008-59.648,12.699-80.098,33.18c-20.477,20.453-33.188,48.859-33.184,80.094c-0.004,31.234,12.707,59.645,33.184,80.102
	c20.449,20.474,48.863,33.185,80.098,33.177c31.23,0.008,59.641-12.703,80.098-33.177c20.477-20.457,33.184-48.866,33.176-80.102
	C239.021,94.273,226.314,65.867,205.838,45.414z M185.693,185.465c-15.392,15.363-36.496,24.82-59.953,24.832
	c-23.461-0.012-44.57-9.469-59.961-24.832c-15.359-15.391-24.816-36.496-24.828-59.957c0.012-23.457,9.469-44.562,24.828-59.949
	c15.391-15.367,36.5-24.828,59.961-24.836c23.457,0.008,44.562,9.469,59.953,24.836c15.363,15.387,24.824,36.492,24.828,59.949
	C210.518,148.969,201.057,170.078,185.693,185.465z"/>
<path fill="#EAEBEC" d="M81.432,197.816c3.867,2.375,7.934,4.449,12.176,6.188l0.012-0.023
	C89.326,202.215,85.264,200.152,81.432,197.816 M32.229,189.465c8.773,12.852,20.301,24.023,34.102,32.512
	c-7.531-4.647-14.477-10.145-20.688-16.367C40.693,200.668,36.205,195.262,32.229,189.465 M42.084,139.418
	c1.969,11.914,6.402,22.961,12.777,32.648C48.4,162.207,44.037,151.059,42.084,139.418 M14.666,103.195
	c-0.016,0.043-0.02,0.086-0.027,0.125c-1.477,7.383-2.203,14.801-2.203,22.148c0,6,0.48,11.949,1.418,17.798
	c-0.914-5.781-1.395-11.72-1.395-17.759C12.459,117.879,13.217,110.414,14.666,103.195 M59.912,72.074
	c-8.34,10.258-14.316,22.465-17.141,35.859c1.043-4.879,2.535-9.742,4.504-14.543l-0.023-0.012
	C50.42,85.645,54.705,78.477,59.912,72.074 M59.986,71.98c-0.027,0.027-0.047,0.059-0.07,0.086
	C59.939,72.039,59.959,72.008,59.986,71.98 M125.74,40.723c-10.582,0.004-20.688,1.93-30,5.457
	C105.053,42.652,115.158,40.727,125.74,40.723 M110.596,13.238c-0.012,0.004-0.016,0.004-0.016,0.004
	C110.584,13.242,110.584,13.242,110.596,13.238 M125.525,12.234c-5.059,0.008-10.043,0.352-14.926,1.004
	C115.486,12.586,120.467,12.242,125.525,12.234"/>
<path opacity="0.8" fill="#E7CCC6" enable-background="new    " d="M125.205,12.047h-0.027c-0.121,0-0.246,0-0.367,0
	c-2.816,0.012-5.613,0.121-8.383,0.336c-27.754,2.129-52.797,14.301-71.316,32.844C34.498,55.82,25.979,68.555,20.229,82.707
	c-5.352,13.164-8.297,27.562-8.297,42.613l0,0c0,12.398,2,24.352,5.691,35.536c5.613,17,15.137,32.227,27.488,44.562
	c20.445,20.478,48.844,33.181,80.07,33.181h0.023v-28.484l0,0c-7.547,0-14.848-0.988-21.797-2.824
	c-14.648-3.887-27.719-11.59-38.156-22.012c-10.555-10.57-18.316-23.832-22.145-38.703c-1.754-6.785-2.684-13.906-2.691-21.254l0,0
	l0,0l0,0c0.008-7.066,0.867-13.914,2.492-20.465c3.758-15.188,11.605-28.73,22.344-39.484c8.656-8.645,19.121-15.418,30.801-19.695
	c9.082-3.324,18.891-5.137,29.152-5.141l0,0L125.205,12.047L125.205,12.047L125.205,12.047"/>
</svg>
