<?xml version="1.0" encoding="utf-8"?>
<!-- Generator: Adobe Illustrator 15.1.0, SVG Export Plug-In . SVG Version: 6.00 Build 0)  -->
<!DOCTYPE svg PUBLIC "-//W3C//DTD SVG 1.1//EN" "http://www.w3.org/Graphics/SVG/1.1/DTD/svg11.dtd">
<svg version="1.1" id="Layer_1" xmlns="http://www.w3.org/2000/svg" xmlns:xlink="http://www.w3.org/1999/xlink" x="0px" y="0px"
	 width="252px" height="252px" viewBox="0 0 252 252" enable-background="new 0 0 252 252" xml:space="preserve">
<path fill="#E3A238" d="M123.486,110.221v3.406l-3.023,0.582v15.727c0,2.724-0.883,4.879-2.656,6.474
	c-1.773,1.594-4.012,2.391-6.723,2.391c-2.941,0-5.27-0.719-6.977-2.151c-1.719-1.431-2.547-3.535-2.484-6.324l0.039-0.117h5.496
	c0,1.484,0.352,2.566,1.062,3.242c0.715,0.68,1.668,1.016,2.863,1.016c1.047,0,1.934-0.402,2.664-1.211
	c0.727-0.805,1.09-1.91,1.09-3.316v-15.729l-3.02-0.582v-3.406h8.645H123.486z"/>
<path fill="#E3A238" d="M146.49,119.217h-4.23l-0.746-3.867c-0.492-0.309-1.195-0.578-2.145-0.812
	c-0.941-0.234-1.941-0.348-2.992-0.348c-1.551,0-2.75,0.328-3.594,0.977c-0.848,0.652-1.27,1.492-1.27,2.523
	c0,0.957,0.444,1.738,1.327,2.355c0.888,0.609,2.406,1.258,4.574,1.941c3.108,0.863,5.465,2.004,7.069,3.422
	c1.605,1.422,2.41,3.281,2.41,5.594c0,2.41-0.953,4.312-2.862,5.707c-1.914,1.391-4.427,2.09-7.552,2.09
	c-2.227,0-4.237-0.355-6.043-1.066c-1.793-0.707-3.297-1.688-4.496-2.94v-5.879h4.375l0.595,4.004
	c0.569,0.461,1.344,0.849,2.312,1.151c0.978,0.306,2.062,0.457,3.258,0.457c1.547,0,2.728-0.319,3.535-0.952
	c0.801-0.634,1.211-1.474,1.211-2.535c0-1.082-0.387-1.953-1.151-2.608c-0.765-0.656-2.113-1.273-4.039-1.855
	c-3.332-0.969-5.863-2.117-7.578-3.449c-1.72-1.324-2.578-3.145-2.578-5.453c0-2.281,0.974-4.148,2.906-5.602
	c1.935-1.449,4.366-2.195,7.289-2.23c2.176,0,4.147,0.324,5.926,0.988c1.776,0.652,3.276,1.531,4.488,2.629L146.49,119.217
	L146.49,119.217z"/>
<path fill="#EFBC37" d="M205.525,45.416c-20.453-20.477-48.867-33.188-80.099-33.18c-31.234-0.008-59.648,12.703-80.098,33.18
	C24.854,65.869,12.146,94.275,12.154,125.51c-0.008,31.238,12.699,59.645,33.176,80.102c20.449,20.478,48.863,33.181,80.098,33.177
	c31.23,0.004,59.645-12.699,80.097-33.177c20.474-20.457,33.185-48.862,33.177-80.102C238.709,94.275,225.998,65.869,205.525,45.416
	z M185.381,185.463c-15.387,15.371-36.492,24.828-59.953,24.836c-23.461-0.008-44.57-9.465-59.953-24.836
	c-15.367-15.387-24.828-36.492-24.836-59.953c0.008-23.453,9.469-44.562,24.836-59.949c15.383-15.367,36.492-24.828,59.953-24.836
	c23.46,0.008,44.566,9.469,59.953,24.836c15.367,15.387,24.824,36.492,24.832,59.949
	C210.205,148.971,200.748,170.076,185.381,185.463z"/>
<path fill="#EAEBEC" d="M191.283,178.58c-8.414,10.422-18.699,18.289-30.023,23.582c-11.32,5.297-23.668,8.008-36.059,8.008
	c-18.59-0.016-37.195-6.043-52.859-18.543c14.543,11.695,32.949,18.672,53.086,18.672c23.46-0.008,44.566-9.465,59.953-24.836
	c2.137-2.141,4.164-4.395,6.07-6.754L191.283,178.58 M125.209,12.236h-0.02c-31.23,0-59.625,12.703-80.074,33.18
	c-20.477,20.449-33.188,48.859-33.18,80.09c-0.008,31.238,12.703,59.645,33.18,80.105c20.211,20.227,48.184,32.879,78.98,33.168
	c-30.707-0.348-58.605-12.984-78.766-33.168c-20.477-20.457-33.184-48.863-33.176-80.103c-0.007-31.234,12.701-59.64,33.177-80.093
	C65.74,24.986,94.061,12.287,125.209,12.236L125.209,12.236"/>
<path opacity="0.8" fill="#E7CCC6" enable-background="new    " d="M125.205,12.047h-0.027c-0.121,0-0.246,0-0.367,0
	c-2.816,0.012-5.613,0.121-8.383,0.336c-27.754,2.129-52.797,14.301-71.316,32.844C34.498,55.82,25.979,68.555,20.229,82.707
	c-5.352,13.164-8.297,27.562-8.297,42.613l0,0c0,12.398,2,24.352,5.691,35.536c5.613,17,15.137,32.227,27.488,44.562
	c20.445,20.478,48.844,33.181,80.07,33.181h0.023v-28.484l0,0c-7.547,0-14.848-0.988-21.797-2.824
	c-14.648-3.887-27.719-11.59-38.156-22.012c-10.555-10.57-18.316-23.832-22.145-38.703c-1.754-6.785-2.684-13.906-2.691-21.254l0,0
	l0,0l0,0c0.008-7.066,0.867-13.914,2.492-20.465c3.758-15.188,11.605-28.73,22.344-39.484c8.656-8.645,19.121-15.418,30.801-19.695
	c9.082-3.324,18.891-5.137,29.152-5.141l0,0L125.205,12.047L125.205,12.047L125.205,12.047"/>
</svg>
