<?xml version="1.0" encoding="utf-8"?>
<!-- Generator: Adobe Illustrator 15.1.0, SVG Export Plug-In . SVG Version: 6.00 Build 0)  -->
<!DOCTYPE svg PUBLIC "-//W3C//DTD SVG 1.1//EN" "http://www.w3.org/Graphics/SVG/1.1/DTD/svg11.dtd">
<svg version="1.1" id="Layer_1" xmlns="http://www.w3.org/2000/svg" xmlns:xlink="http://www.w3.org/1999/xlink" x="0px" y="0px"
	 width="252px" height="252px" viewBox="0 0 252 252" enable-background="new 0 0 252 252" xml:space="preserve">
<g>
	<path fill="#58595B" d="M144.424,114.126c-1.162-1.051-2.598-1.893-4.305-2.523s-3.6-0.946-5.678-0.946
		c-2.808,0.037-5.139,0.752-6.994,2.143c-1.856,1.393-2.784,3.183-2.784,5.372c0,2.215,0.822,3.959,2.467,5.232
		c1.646,1.274,4.07,2.375,7.273,3.303c1.844,0.557,3.133,1.15,3.869,1.781s1.104,1.466,1.104,2.505c0,1.015-0.387,1.825-1.159,2.431
		c-0.773,0.606-1.901,0.909-3.386,0.909c-1.15,0-2.193-0.146-3.127-0.436c-0.934-0.291-1.674-0.659-2.217-1.104l-0.576-3.841h-4.193
		v5.641c1.15,1.2,2.588,2.141,4.314,2.82s3.658,1.021,5.799,1.021c2.992,0,5.404-0.668,7.236-2.004
		c1.83-1.336,2.746-3.16,2.746-5.474c0-2.214-0.771-4.001-2.311-5.362c-1.54-1.36-3.801-2.455-6.781-3.284
		c-2.078-0.655-3.541-1.277-4.389-1.865c-0.848-0.587-1.271-1.338-1.271-2.254c0-0.989,0.405-1.797,1.216-2.422
		c0.81-0.624,1.958-0.937,3.442-0.937c1.014,0,1.973,0.111,2.875,0.334c0.903,0.223,1.59,0.482,2.061,0.779l0.705,3.711h4.062
		V114.126z M119.468,111.027h-8.294v3.266l2.895,0.557v15.085c0,1.349-0.35,2.409-1.048,3.183c-0.699,0.772-1.549,1.159-2.551,1.159
		c-1.15,0-2.066-0.325-2.746-0.974c-0.681-0.65-1.021-1.686-1.021-3.108h-5.27l-0.037,0.111c-0.062,2.672,0.729,4.694,2.375,6.067
		c1.645,1.373,3.878,2.06,6.698,2.06c2.598,0,4.747-0.764,6.448-2.292c1.701-1.527,2.551-3.596,2.551-6.206V114.85l2.895-0.557
		v-3.266H119.468z"/>
	<path opacity="0.3" fill="#EFBC37" d="M126.295,31.42v8.23c11.945,0.001,23.282,2.416,33.609,6.782
		c15.485,6.548,28.687,17.508,37.998,31.294c9.312,13.792,14.739,30.361,14.742,48.273c-0.001,11.945-2.416,23.282-6.782,33.609
		c-6.548,15.485-17.508,28.687-31.294,37.998c-13.791,9.312-30.361,14.739-48.273,14.742c-11.945-0.001-23.282-2.416-33.609-6.782
		C77.201,199.02,64,188.06,54.688,174.273C45.375,160.482,39.948,143.912,39.945,126c0.001-11.945,2.416-23.283,6.783-33.609
		c6.548-15.485,17.508-28.687,31.294-37.999c13.792-9.312,30.361-14.739,48.273-14.742V31.42v-8.23
		c-14.172-0.001-27.716,2.877-40.021,8.083c-18.461,7.81-34.142,20.835-45.226,37.24C29.964,84.911,23.481,104.735,23.485,126
		c-0.001,14.173,2.877,27.717,8.083,40.021c7.81,18.461,20.835,34.143,37.24,45.227c16.399,11.084,36.224,17.566,57.488,17.563
		c14.173,0.001,27.717-2.877,40.021-8.083c18.461-7.811,34.143-20.835,45.227-37.239c11.084-16.399,17.566-36.224,17.563-57.488
		c0.001-14.172-2.877-27.716-8.083-40.021c-7.811-18.46-20.835-34.142-37.239-45.226c-16.399-11.084-36.224-17.566-57.488-17.563
		V31.42z"/>
	<path opacity="0.9" fill="#EFBC37" d="M126.294,14.507v8.7c14.217,0.001,27.716,2.876,40.009,8.074
		c18.437,7.796,34.149,20.842,45.234,37.252c11.084,16.417,17.547,36.147,17.55,57.466c-0.001,14.217-2.876,27.716-8.074,40.009
		c-7.796,18.437-20.842,34.149-37.252,45.234c-16.417,11.084-36.147,17.547-57.467,17.55c-14.217-0.001-27.716-2.876-40.009-8.074
		c-18.436-7.796-34.149-20.842-45.234-37.252C29.966,167.05,23.504,147.319,23.501,126c0.001-14.217,2.876-27.716,8.074-40.009
		c7.796-18.436,20.842-34.149,37.252-45.234c16.417-11.085,36.147-17.547,57.466-17.55V14.507v-8.7
		c-16.571-0.001-32.403,3.363-46.787,9.449c-21.581,9.13-39.916,24.358-52.874,43.537C13.674,77.965,6.097,101.137,6.101,126
		c-0.001,16.571,3.363,32.403,9.449,46.787c9.13,21.581,24.359,39.916,43.537,52.874c19.172,12.958,42.344,20.535,67.207,20.532
		c16.571,0.001,32.403-3.363,46.787-9.449c21.581-9.13,39.916-24.358,52.874-43.537c12.958-19.172,20.535-42.344,20.532-67.207
		c0.001-16.571-3.363-32.403-9.449-46.787c-9.13-21.581-24.358-39.916-43.537-52.874C174.329,13.38,151.157,5.803,126.294,5.807
		V14.507z"/>
</g>
</svg>
