<?xml version="1.0" encoding="utf-8"?>
<!-- Generator: Adobe Illustrator 15.1.0, SVG Export Plug-In . SVG Version: 6.00 Build 0)  -->
<!DOCTYPE svg PUBLIC "-//W3C//DTD SVG 1.1//EN" "http://www.w3.org/Graphics/SVG/1.1/DTD/svg11.dtd">
<svg version="1.1" id="Layer_1" xmlns="http://www.w3.org/2000/svg" xmlns:xlink="http://www.w3.org/1999/xlink" x="0px" y="0px"
	 width="252px" height="252px" viewBox="0 0 252 252" enable-background="new 0 0 252 252" xml:space="preserve">
<g>
	<path fill="#58595B" d="M149.296,115.803h4.444c1.469,0,2.58,0.413,3.334,1.238c0.752,0.825,1.129,1.869,1.129,3.135
		c0,1.24-0.377,2.261-1.129,3.062c-0.754,0.802-1.865,1.202-3.334,1.202h-4.444V115.803z M144.021,111.738h-2.8v3.18l2.8,0.542
		v18.88l-2.8,0.541v3.162h10.894v-3.162l-2.818-0.541v-5.836h4.444c3.011,0,5.387-0.765,7.127-2.295
		c1.74-1.529,2.611-3.553,2.611-6.07c0-2.505-0.871-4.531-2.611-6.079c-1.74-1.547-4.116-2.321-7.127-2.321H144.021z
		 M115.096,115.46v18.88l-2.8,0.541v3.162h10.894v-3.162l-2.818-0.541v-7.227h10.732v7.227l-2.818,0.541v3.162h10.894v-3.162
		l-2.818-0.541v-18.88l2.818-0.542v-3.18h-2.818h-5.257h-2.818v3.18l2.818,0.542v7.588h-10.732v-7.588l2.818-0.542v-3.18h-10.894
		v3.18L115.096,115.46z M96.434,115.803h4.444c1.469,0,2.581,0.413,3.333,1.238c0.752,0.825,1.129,1.869,1.129,3.135
		c0,1.24-0.376,2.261-1.129,3.062c-0.753,0.802-1.864,1.202-3.333,1.202h-4.444V115.803z M91.158,111.738h-2.8v3.18l2.8,0.542v18.88
		l-2.8,0.541v3.162h10.894v-3.162l-2.818-0.541v-5.836h4.444c3.011,0,5.387-0.765,7.127-2.295c1.74-1.529,2.61-3.553,2.61-6.07
		c0-2.505-0.87-4.531-2.61-6.079c-1.741-1.547-4.117-2.321-7.127-2.321H91.158z"/>
	<path opacity="0.3" fill="#6A72AF" d="M126.295,31.42v8.23c11.945,0.001,23.282,2.416,33.609,6.782
		c15.485,6.548,28.687,17.508,37.998,31.294c9.312,13.792,14.739,30.361,14.742,48.273c-0.001,11.945-2.416,23.282-6.782,33.609
		c-6.548,15.485-17.508,28.687-31.294,37.998c-13.791,9.312-30.361,14.739-48.273,14.742c-11.945-0.001-23.282-2.416-33.609-6.782
		C77.201,199.02,64,188.06,54.688,174.273C45.375,160.482,39.948,143.912,39.945,126c0.001-11.945,2.416-23.283,6.783-33.609
		c6.548-15.485,17.508-28.687,31.294-37.999c13.792-9.312,30.361-14.739,48.273-14.742V31.42v-8.23
		c-14.172-0.001-27.716,2.877-40.021,8.083c-18.461,7.81-34.142,20.835-45.226,37.24C29.964,84.911,23.481,104.735,23.485,126
		c-0.001,14.173,2.877,27.717,8.083,40.021c7.81,18.461,20.835,34.143,37.24,45.227c16.399,11.084,36.224,17.566,57.488,17.563
		c14.173,0.001,27.717-2.877,40.021-8.083c18.461-7.811,34.143-20.835,45.227-37.239c11.084-16.399,17.566-36.224,17.563-57.488
		c0.001-14.172-2.877-27.716-8.083-40.021c-7.811-18.46-20.835-34.142-37.239-45.226c-16.399-11.084-36.224-17.566-57.488-17.563
		V31.42z"/>
	<path opacity="0.9" fill="#6A72AF" d="M126.294,14.507v8.7c14.217,0.001,27.716,2.876,40.009,8.074
		c18.437,7.796,34.149,20.842,45.234,37.252c11.084,16.417,17.547,36.147,17.55,57.466c-0.001,14.217-2.876,27.716-8.074,40.009
		c-7.796,18.437-20.842,34.149-37.252,45.234c-16.417,11.084-36.147,17.547-57.467,17.55c-14.217-0.001-27.716-2.876-40.009-8.074
		c-18.436-7.796-34.149-20.842-45.234-37.252C29.966,167.05,23.504,147.319,23.501,126c0.001-14.217,2.876-27.716,8.074-40.009
		c7.796-18.436,20.842-34.149,37.252-45.234c16.417-11.085,36.147-17.547,57.466-17.55V14.507v-8.7
		c-16.571-0.001-32.403,3.363-46.787,9.449c-21.581,9.13-39.916,24.358-52.874,43.537C13.674,77.965,6.097,101.137,6.101,126
		c-0.001,16.571,3.363,32.403,9.449,46.787c9.13,21.581,24.359,39.916,43.537,52.874c19.172,12.958,42.344,20.535,67.207,20.532
		c16.571,0.001,32.403-3.363,46.787-9.449c21.581-9.13,39.916-24.358,52.874-43.537c12.958-19.172,20.535-42.344,20.532-67.207
		c0.001-16.571-3.363-32.403-9.449-46.787c-9.13-21.581-24.358-39.916-43.537-52.874C174.329,13.38,151.157,5.803,126.294,5.807
		V14.507z"/>
</g>
</svg>
