<?xml version="1.0" encoding="utf-8"?>
<!-- Generator: Adobe Illustrator 15.1.0, SVG Export Plug-In . SVG Version: 6.00 Build 0)  -->
<!DOCTYPE svg PUBLIC "-//W3C//DTD SVG 1.1//EN" "http://www.w3.org/Graphics/SVG/1.1/DTD/svg11.dtd">
<svg version="1.1" id="Layer_1" xmlns="http://www.w3.org/2000/svg" xmlns:xlink="http://www.w3.org/1999/xlink" x="0px" y="0px"
	 width="252px" height="252px" viewBox="0 0 252 252" enable-background="new 0 0 252 252" xml:space="preserve">
<path fill="#6D7FB7" d="M94.369,117.135v-3.145h7.586l0.254,2.254c0.57-0.836,1.254-1.48,2.055-1.93
	c0.797-0.453,1.73-0.684,2.789-0.684c2.398,0,4.254,0.938,5.582,2.812c1.32,1.867,1.98,4.332,1.98,7.383v0.371
	c0,2.867-0.66,5.172-1.98,6.906c-1.328,1.746-3.176,2.609-5.547,2.609c-1.012,0-1.914-0.188-2.707-0.555
	c-0.785-0.379-1.453-0.93-2.016-1.664v5.602l2.52,0.539v3.148H94.643v-3.148l2.516-0.539v-19.42L94.369,117.135z M109.396,123.826
	c0-1.824-0.309-3.305-0.914-4.434c-0.605-1.133-1.535-1.703-2.785-1.703c-0.789,0-1.461,0.16-2.02,0.484
	c-0.555,0.32-0.988,0.781-1.312,1.375v8.484c0.324,0.547,0.758,0.961,1.312,1.245c0.559,0.289,1.242,0.431,2.047,0.431
	c1.266,0,2.191-0.492,2.789-1.479c0.586-0.992,0.883-2.333,0.883-4.032V123.826z"/>
<path fill="#6D7FB7" d="M116.299,130.205l2.523-0.531v-20.551l-2.789-0.535v-3.148h7.992v11.02c0.605-0.895,1.352-1.594,2.234-2.082
	c0.884-0.496,1.863-0.746,2.931-0.746c2.031,0,3.621,0.672,4.766,2.012c1.156,1.344,1.734,3.414,1.734,6.215v7.816l2.5,0.531v3.137
	h-9.984v-3.137l2.262-0.531v-7.852c0-1.5-0.27-2.566-0.801-3.191c-0.527-0.629-1.32-0.941-2.367-0.941
	c-0.73,0-1.363,0.133-1.906,0.398c-0.547,0.266-1,0.625-1.367,1.102v10.484l2.25,0.531v3.137h-9.977V130.205z"/>
<path fill="#6D7FB7" d="M139.475,117.135v-3.145h7.582l0.254,2.254c0.574-0.836,1.254-1.48,2.06-1.93
	c0.793-0.453,1.728-0.684,2.784-0.684c2.402,0,4.259,0.938,5.582,2.812c1.324,1.867,1.984,4.332,1.984,7.383v0.371
	c0,2.867-0.66,5.172-1.984,6.906c-1.323,1.746-3.172,2.609-5.543,2.609c-1.016,0-1.918-0.188-2.702-0.555
	c-0.785-0.379-1.462-0.93-2.021-1.664v5.602l2.516,0.539v3.148h-10.237v-3.148l2.521-0.539v-19.42L139.475,117.135z
	 M154.498,123.826c0-1.824-0.301-3.305-0.91-4.434c-0.609-1.133-1.535-1.703-2.789-1.703c-0.789,0-1.457,0.16-2.012,0.484
	c-0.559,0.32-0.992,0.781-1.316,1.375v8.484c0.324,0.547,0.758,0.961,1.316,1.245c0.555,0.289,1.234,0.431,2.043,0.431
	c1.266,0,2.195-0.492,2.785-1.479c0.59-0.992,0.883-2.333,0.883-4.032V123.826z"/>
<path opacity="0.9" fill="#6A72AF" enable-background="new    " d="M205.377,45.223c-20.457-20.477-48.867-33.188-80.102-33.18
	c-31.234-0.008-59.645,12.703-80.098,33.18c-20.473,20.457-33.184,48.863-33.176,80.09c-0.008,31.242,12.703,59.648,33.176,80.102
	c20.453,20.479,48.863,33.188,80.098,33.185c31.234,0.004,59.645-12.703,80.102-33.185c20.477-20.453,33.18-48.858,33.172-80.102
	C238.557,94.086,225.846,65.68,205.377,45.223z M185.229,185.273c-15.387,15.367-36.492,24.824-59.953,24.836
	c-23.457-0.012-44.566-9.469-59.953-24.836c-15.363-15.392-24.828-36.492-24.836-59.961c0.008-23.445,9.473-44.555,24.836-59.945
	c15.387-15.371,36.496-24.828,59.953-24.836c23.46,0.008,44.566,9.465,59.953,24.836c15.363,15.391,24.828,36.496,24.832,59.945
	C210.057,148.781,200.592,169.887,185.229,185.273z"/>
<path fill="#EEEEEF" d="M238.338,125.611h-14.035h-14.242l0,0h-0.215c-0.008,23.469-9.461,44.575-24.828,59.961
	c-15.367,15.344-36.438,24.797-59.852,24.836c0.035,0,0.07,0,0.109,0c23.461-0.012,44.566-9.469,59.954-24.836
	c15.362-15.387,24.828-36.492,24.832-59.961h14.241H238.338L238.338,125.611 M125.061,40.83c-0.496,0-0.992,0.008-1.484,0.016
	c0.492-0.008,0.988-0.012,1.484-0.012V40.83 M123.943,12.35C93.15,12.639,65.178,25.291,44.967,45.525
	c-20.477,20.454-33.188,48.86-33.184,80.086c-0.004,31.243,12.707,59.653,33.184,80.102c20.445,20.469,48.844,33.184,80.07,33.184
	h0.023h0.023c0.031,0,0.059,0,0.082,0c-31.188-0.022-59.559-12.729-79.988-33.184c-20.473-20.453-33.184-48.859-33.176-80.102
	c-0.008-31.227,12.703-59.633,33.176-80.09C65.346,25.334,93.236,12.697,123.943,12.35"/>
<path opacity="0.8" fill="#E7CCC6" enable-background="new    " d="M125.205,12.047h-0.027c-0.121,0-0.246,0-0.367,0
	c-2.816,0.012-5.613,0.121-8.383,0.336c-27.754,2.129-52.797,14.301-71.316,32.844C34.498,55.82,25.979,68.555,20.229,82.707
	c-5.352,13.164-8.297,27.562-8.297,42.613l0,0c0,12.398,2,24.352,5.691,35.536c5.613,17,15.137,32.228,27.488,44.562
	c20.445,20.479,48.844,33.182,80.07,33.182h0.023v-28.484l0,0c-7.547,0-14.848-0.988-21.797-2.824
	c-14.648-3.887-27.719-11.59-38.156-22.012c-10.555-10.57-18.316-23.832-22.145-38.703c-1.754-6.785-2.684-13.906-2.691-21.254l0,0
	l0,0l0,0c0.008-7.066,0.867-13.914,2.492-20.465c3.758-15.188,11.605-28.73,22.344-39.484c8.656-8.645,19.121-15.418,30.801-19.695
	c9.082-3.324,18.891-5.137,29.152-5.141l0,0L125.205,12.047L125.205,12.047L125.205,12.047"/>
</svg>
