<?xml version="1.0" encoding="utf-8"?>
<!-- Generator: Adobe Illustrator 15.1.0, SVG Export Plug-In . SVG Version: 6.00 Build 0)  -->
<!DOCTYPE svg PUBLIC "-//W3C//DTD SVG 1.1//EN" "http://www.w3.org/Graphics/SVG/1.1/DTD/svg11.dtd">
<svg version="1.1" id="Layer_1" xmlns="http://www.w3.org/2000/svg" xmlns:xlink="http://www.w3.org/1999/xlink" x="0px" y="0px"
	 width="252px" height="252px" viewBox="0 0 252 252" enable-background="new 0 0 252 252" xml:space="preserve">
<path fill="#62ADDD" d="M118.168,109.709c3.535,0,6.324,0.906,8.367,2.727c2.047,1.816,3.07,4.199,3.07,7.141
	c0,2.953-1.023,5.328-3.07,7.121c-2.043,1.801-4.832,2.698-8.367,2.698h-5.219v6.853l3.309,0.637v3.716h-12.793v-3.716l3.289-0.637
	V114.08l-3.289-0.637v-3.734h3.289H118.168z M112.949,124.623h5.219c1.727,0,3.031-0.469,3.91-1.41
	c0.887-0.938,1.328-2.141,1.328-3.594c0-1.488-0.441-2.715-1.328-3.684c-0.879-0.969-2.184-1.453-3.91-1.453h-5.219V124.623z"/>
<path fill="#62ADDD" d="M150.453,125.537h-4.156l-0.66-2.863c-0.422-0.34-0.953-0.625-1.602-0.848
	c-0.641-0.23-1.352-0.344-2.133-0.344c-1.086,0-1.953,0.246-2.582,0.734c-0.641,0.488-0.957,1.098-0.957,1.836
	c0,0.688,0.305,1.27,0.906,1.727c0.612,0.461,1.832,0.868,3.655,1.223c2.845,0.559,4.949,1.395,6.32,2.488
	c1.375,1.102,2.055,2.609,2.055,4.531c0,2.065-0.887,3.75-2.659,5.059c-1.771,1.309-4.109,1.965-7.013,1.965
	c-1.767,0-3.387-0.258-4.866-0.773c-1.48-0.515-2.789-1.258-3.938-2.219l-0.062-5.156h4.327l0.849,2.992
	c0.367,0.305,0.875,0.539,1.504,0.691c0.641,0.148,1.305,0.215,2,0.215c1.258,0,2.215-0.219,2.875-0.672
	c0.651-0.453,0.979-1.066,0.979-1.848c0-0.676-0.332-1.262-0.996-1.758c-0.663-0.496-1.891-0.938-3.672-1.316
	c-2.698-0.555-4.733-1.367-6.112-2.453c-1.384-1.078-2.07-2.559-2.07-4.422c0-1.926,0.793-3.578,2.379-4.973
	c1.582-1.395,3.836-2.094,6.762-2.094c1.781,0,3.465,0.246,5.062,0.723c1.59,0.477,2.84,1.098,3.742,1.844L150.453,125.537z"/>
<path fill="#64B0E0" d="M31.043,30.553v190.449h190.449v-13.824V30.553H31.043z M58.691,58.201H193.84V193.35H58.691V58.201z"/>
<polyline fill="#EAEBEC" points="124.488,58.201 58.691,58.201 58.691,157.146 58.691,157.146 58.691,58.201 124.488,58.201 "/>
<polyline fill="#CCD8E5" points="124.488,30.553 44.867,30.553 44.867,30.584 31.043,30.584 31.043,221.002 58.691,221.002 
	58.691,58.201 124.488,58.201 124.488,30.553 "/>
</svg>
