<?xml version="1.0" encoding="utf-8"?>
<!-- Generator: Adobe Illustrator 15.1.0, SVG Export Plug-In . SVG Version: 6.00 Build 0)  -->
<!DOCTYPE svg PUBLIC "-//W3C//DTD SVG 1.1//EN" "http://www.w3.org/Graphics/SVG/1.1/DTD/svg11.dtd">
<svg version="1.1" id="Layer_1" xmlns="http://www.w3.org/2000/svg" xmlns:xlink="http://www.w3.org/1999/xlink" x="0px" y="0px"
	 width="252px" height="252px" viewBox="0 0 252 252" enable-background="new 0 0 252 252" xml:space="preserve">
<g>
	<path fill="#58595B" d="M146.277,115.202h3.842c1.459,0,2.562,0.362,3.312,1.085c0.748,0.725,1.121,1.692,1.121,2.904
		c0,1.213-0.377,2.141-1.131,2.783c-0.756,0.644-1.887,0.965-3.396,0.965h-3.748V115.202L146.277,115.202z M140.859,111.027h-2.875
		v3.266l2.875,0.557v19.39l-2.875,0.557v3.247h11.188v-3.247l-2.895-0.557v-7.125h4.436c1.273,0.037,2.26,0.43,2.959,1.179
		c0.699,0.748,1.049,1.778,1.049,3.089v1.54c0,1.511,0.357,2.74,1.076,3.692c0.717,0.953,1.96,1.429,3.729,1.429h2.804v-3.267
		l-0.668-0.092c-0.545-0.062-0.935-0.258-1.17-0.586c-0.234-0.326-0.353-0.787-0.353-1.382v-1.373c0-1.62-0.35-2.978-1.049-4.073
		c-0.699-1.094-1.846-1.875-3.441-2.347c1.41-0.618,2.479-1.429,3.209-2.431c0.73-1.002,1.097-2.183,1.097-3.544
		c0-2.474-0.873-4.413-2.617-5.817c-1.744-1.403-4.149-2.105-7.217-2.105L140.859,111.027L140.859,111.027z M122.231,127.818
		c0-1.78,0.321-3.233,0.965-4.359c0.643-1.125,1.67-1.688,3.08-1.688s2.443,0.563,3.099,1.688c0.654,1.126,0.982,2.579,0.982,4.359
		v0.391c0,1.818-0.324,3.284-0.975,4.396c-0.65,1.113-1.673,1.67-3.071,1.67c-1.435,0-2.474-0.553-3.117-1.66
		c-0.644-1.106-0.965-2.575-0.965-4.406L122.231,127.818L122.231,127.818z M116.813,128.209c0,3.02,0.838,5.477,2.514,7.375
		c1.676,1.898,4.004,2.85,6.986,2.85c2.944,0,5.253-0.949,6.93-2.85c1.676-1.898,2.515-4.355,2.515-7.375v-0.391
		c0-3.005-0.839-5.46-2.515-7.365c-1.677-1.904-3.999-2.857-6.967-2.857c-2.957,0-5.273,0.955-6.949,2.867
		c-1.676,1.91-2.514,4.363-2.514,7.355V128.209z M98.852,115.202h3.841c1.459,0,2.563,0.362,3.312,1.085
		c0.748,0.725,1.123,1.692,1.123,2.904c0,1.213-0.377,2.141-1.132,2.783c-0.755,0.644-1.887,0.965-3.396,0.965h-3.748V115.202z
		 M93.434,111.027h-2.876v3.266l2.876,0.557v19.39l-2.876,0.557v3.247h11.188v-3.247l-2.895-0.557v-7.125h4.435
		c1.274,0.037,2.26,0.43,2.959,1.179c0.699,0.748,1.048,1.778,1.048,3.089v1.54c0,1.511,0.358,2.74,1.076,3.692
		c0.717,0.953,1.96,1.429,3.729,1.429h2.802v-3.267l-0.668-0.092c-0.544-0.062-0.934-0.258-1.169-0.586
		c-0.235-0.326-0.353-0.787-0.353-1.382v-1.373c0-1.62-0.35-2.978-1.048-4.073c-0.699-1.094-1.846-1.875-3.442-2.347
		c1.41-0.618,2.48-1.429,3.21-2.431c0.729-1.002,1.095-2.183,1.095-3.544c0-2.474-0.872-4.413-2.616-5.817
		c-1.744-1.403-4.15-2.105-7.218-2.105L93.434,111.027L93.434,111.027z"/>
	<path opacity="0.3" fill="#ED1849" enable-background="new    " d="M126.295,31.42v8.23c11.945,0.001,23.282,2.416,33.609,6.782
		c15.484,6.548,28.687,17.508,37.998,31.294c9.312,13.792,14.738,30.361,14.742,48.273c-0.002,11.944-2.416,23.282-6.783,33.608
		c-6.547,15.485-17.508,28.688-31.293,37.998c-13.791,9.312-30.361,14.74-48.273,14.742c-11.945,0-23.282-2.416-33.609-6.781
		C77.201,199.02,64,188.061,54.688,174.273c-9.313-13.791-14.74-30.361-14.743-48.273c0.001-11.945,2.416-23.283,6.783-33.609
		c6.548-15.485,17.508-28.687,31.294-37.999c13.792-9.312,30.361-14.739,48.273-14.742V31.42v-8.23
		c-14.172-0.001-27.716,2.877-40.021,8.083c-18.461,7.81-34.142,20.835-45.226,37.24C29.964,84.911,23.481,104.735,23.485,126
		c-0.001,14.173,2.877,27.717,8.083,40.021c7.81,18.461,20.835,34.143,37.24,45.227c16.399,11.084,36.224,17.566,57.488,17.562
		c14.173,0.002,27.718-2.877,40.021-8.082c18.461-7.812,34.144-20.836,45.228-37.239c11.084-16.399,17.565-36.224,17.563-57.488
		c0-14.172-2.877-27.716-8.084-40.021c-7.811-18.46-20.834-34.142-37.238-45.226c-16.398-11.084-36.225-17.566-57.488-17.563v8.229
		H126.295z"/>
	<path opacity="0.8" fill="#ED1849" enable-background="new    " d="M126.294,14.507v8.7c14.218,0.001,27.716,2.876,40.009,8.074
		c18.438,7.796,34.149,20.842,45.234,37.252c11.084,16.417,17.547,36.147,17.55,57.466c-0.001,14.217-2.876,27.716-8.073,40.009
		c-7.797,18.438-20.843,34.149-37.253,45.234c-16.417,11.084-36.147,17.547-57.467,17.55c-14.217-0.001-27.716-2.876-40.009-8.074
		c-18.436-7.796-34.149-20.842-45.234-37.252C29.966,167.05,23.504,147.318,23.501,126c0.001-14.217,2.876-27.716,8.074-40.009
		c7.796-18.436,20.842-34.149,37.252-45.234c16.417-11.085,36.147-17.547,57.466-17.55L126.294,14.507l-0.001-8.7
		C109.722,5.806,93.89,9.17,79.506,15.256c-21.581,9.13-39.916,24.358-52.874,43.537C13.674,77.965,6.097,101.137,6.101,126
		c-0.001,16.57,3.363,32.402,9.449,46.787c9.13,21.581,24.359,39.916,43.537,52.874c19.172,12.958,42.344,20.534,67.207,20.532
		c16.571,0,32.403-3.363,46.787-9.449c21.581-9.13,39.916-24.358,52.874-43.537c12.958-19.172,20.535-42.344,20.531-67.207
		c0.002-16.571-3.362-32.403-9.448-46.787c-9.13-21.581-24.358-39.916-43.537-52.874C174.329,13.38,151.157,5.803,126.294,5.807
		V14.507z"/>
</g>
</svg>
