<?xml version="1.0" encoding="utf-8"?>
<!-- Generator: Adobe Illustrator 15.1.0, SVG Export Plug-In . SVG Version: 6.00 Build 0)  -->
<!DOCTYPE svg PUBLIC "-//W3C//DTD SVG 1.1//EN" "http://www.w3.org/Graphics/SVG/1.1/DTD/svg11.dtd">
<svg version="1.1" id="Layer_1" xmlns="http://www.w3.org/2000/svg" xmlns:xlink="http://www.w3.org/1999/xlink" x="0px" y="0px"
	 width="252px" height="252px" viewBox="0 0 252 252" enable-background="new 0 0 252 252" xml:space="preserve">
<path fill="#DA1A89" d="M103.205,109.004c2.953,0,5.273,0.676,6.957,2.031c1.68,1.352,2.52,3.219,2.52,5.605
	c0,1.312-0.352,2.453-1.055,3.418c-0.703,0.965-1.738,1.746-3.09,2.344c1.535,0.453,2.641,1.203,3.316,2.262
	c0.672,1.051,1.004,2.363,1.004,3.922v1.324c0,0.574,0.117,1.02,0.344,1.336c0.223,0.312,0.605,0.504,1.129,0.562l0.641,0.09v3.145
	h-2.699c-1.707,0-2.902-0.457-3.594-1.375c-0.692-0.918-1.039-2.105-1.039-3.559v-1.484c0-1.266-0.336-2.258-1.004-2.98
	c-0.68-0.719-1.629-1.098-2.859-1.133h-4.273v6.867l2.789,0.535v3.129H91.506v-3.129l2.773-0.535v-18.691l-2.773-0.535v-3.148h2.773
	L103.205,109.004L103.205,109.004z M99.502,120.488h3.609c1.457,0,2.551-0.312,3.273-0.934c0.73-0.617,1.094-1.512,1.094-2.684
	c0-1.164-0.363-2.102-1.086-2.797c-0.719-0.695-1.781-1.043-3.188-1.043h-3.703L99.502,120.488L99.502,120.488z"/>
<path fill="#DA1A89" d="M116.814,125.191c0-2.887,0.809-5.25,2.422-7.094c1.617-1.84,3.848-2.762,6.699-2.762
	c2.859,0,5.102,0.918,6.719,2.754c1.613,1.836,2.422,4.203,2.422,7.102v0.375c0,2.907-0.809,5.277-2.422,7.109
	c-1.617,1.828-3.844,2.746-6.68,2.746c-2.883,0-5.121-0.918-6.738-2.746c-1.613-1.832-2.422-4.202-2.422-7.109V125.191z
	 M122.037,125.566c0,1.762,0.309,3.18,0.934,4.25c0.617,1.065,1.617,1.598,3.004,1.598c1.339,0,2.332-0.535,2.953-1.609
	c0.629-1.074,0.941-2.488,0.941-4.238v-0.375c0-1.719-0.316-3.121-0.945-4.203c-0.637-1.086-1.625-1.629-2.988-1.629
	c-1.359,0-2.348,0.543-2.965,1.629c-0.625,1.082-0.934,2.484-0.934,4.203V125.566L122.037,125.566z"/>
<path fill="#DA1A89" d="M148.916,109.004c2.961,0,5.273,0.676,6.961,2.031c1.672,1.352,2.52,3.219,2.52,5.605
	c0,1.312-0.352,2.453-1.055,3.418c-0.703,0.965-1.734,1.746-3.098,2.344c1.539,0.453,2.648,1.203,3.32,2.262
	c0.676,1.051,1.012,2.363,1.012,3.922v1.324c0,0.574,0.113,1.02,0.336,1.336c0.23,0.312,0.605,0.504,1.129,0.562l0.645,0.09v3.145
	h-2.699c-1.702,0-2.905-0.457-3.594-1.375c-0.694-0.918-1.039-2.105-1.039-3.559v-1.484c0-1.266-0.34-2.258-1.008-2.98
	c-0.68-0.719-1.625-1.098-2.854-1.133h-4.273v6.867l2.794,0.535v3.129h-10.785v-3.129l2.772-0.535v-18.691l-2.772-0.535v-3.148
	h2.772L148.916,109.004L148.916,109.004z M145.217,120.488h3.609c1.457,0,2.547-0.312,3.277-0.934
	c0.727-0.617,1.086-1.512,1.086-2.684c0-1.164-0.355-2.102-1.082-2.797c-0.719-0.695-1.785-1.043-3.191-1.043h-3.699V120.488
	L145.217,120.488z"/>
<path opacity="0.9" fill="#DC4894" enable-background="new    " d="M205.307,45.227c-20.457-20.48-48.863-33.188-80.102-33.18
	c-31.234-0.008-59.648,12.699-80.094,33.18c-20.48,20.449-33.188,48.859-33.18,80.094c-0.008,31.238,12.699,59.645,33.18,80.098
	c20.445,20.478,48.859,33.188,80.094,33.181c31.238,0.008,59.645-12.703,80.102-33.181c20.473-20.453,33.18-48.858,33.172-80.098
	C238.486,94.086,225.779,65.68,205.307,45.227z M185.158,185.277c-15.387,15.358-36.488,24.824-59.953,24.836
	c-23.453-0.012-44.562-9.478-59.953-24.836c-15.363-15.392-24.824-36.492-24.836-59.958c0.012-23.457,9.473-44.562,24.836-59.949
	c15.391-15.371,36.5-24.828,59.953-24.836c23.465,0.008,44.566,9.465,59.953,24.836c15.367,15.383,24.828,36.492,24.836,59.949
	C209.986,148.785,200.525,169.887,185.158,185.277z"/>
<path fill="#EAEBEC" d="M103.408,207.289c6.949,1.836,14.25,2.824,21.797,2.824l0,0
	C117.658,210.113,110.357,209.125,103.408,207.289 M11.932,125.32c0,12.398,1.996,24.352,5.691,35.536
	C13.932,149.672,11.932,137.719,11.932,125.32 M40.416,125.32L40.416,125.32c0.008,7.348,0.938,14.469,2.691,21.254
	C41.354,139.789,40.424,132.668,40.416,125.32 M42.908,104.855c-1.625,6.551-2.484,13.398-2.492,20.465
	C40.424,118.254,41.283,111.406,42.908,104.855 M20.229,82.707c-5.352,13.164-8.297,27.562-8.297,42.613l0,0
	C11.932,110.27,14.877,95.871,20.229,82.707 M125.205,40.535c-10.262,0.004-20.07,1.816-29.152,5.141
	C105.135,42.352,114.943,40.539,125.205,40.535 M124.811,12.047c-2.82,0.012-5.613,0.121-8.383,0.336
	C119.197,12.168,121.994,12.059,124.811,12.047"/>
<path opacity="0.8" fill="#E7CCC6" enable-background="new    " d="M125.205,12.047h-0.027c-0.121,0-0.246,0-0.367,0
	c-2.816,0.012-5.613,0.121-8.383,0.336c-27.754,2.129-52.797,14.301-71.316,32.844C34.498,55.82,25.979,68.555,20.229,82.707
	c-5.352,13.164-8.297,27.562-8.297,42.613l0,0c0,12.398,2,24.352,5.691,35.536c5.613,17,15.137,32.227,27.488,44.562
	c20.445,20.478,48.844,33.181,80.07,33.181h0.023v-28.484l0,0c-7.547,0-14.848-0.988-21.797-2.824
	c-14.648-3.887-27.719-11.59-38.156-22.012c-10.555-10.57-18.316-23.832-22.145-38.703c-1.754-6.785-2.684-13.906-2.691-21.254l0,0
	l0,0l0,0c0.008-7.066,0.867-13.914,2.492-20.465c3.758-15.188,11.605-28.73,22.344-39.484c8.656-8.645,19.121-15.418,30.801-19.695
	c9.082-3.324,18.891-5.137,29.152-5.141l0,0L125.205,12.047L125.205,12.047L125.205,12.047"/>
</svg>
