<?xml version="1.0" encoding="utf-8"?>
<!-- Generator: Adobe Illustrator 15.1.0, SVG Export Plug-In . SVG Version: 6.00 Build 0)  -->
<!DOCTYPE svg PUBLIC "-//W3C//DTD SVG 1.1//EN" "http://www.w3.org/Graphics/SVG/1.1/DTD/svg11.dtd">
<svg version="1.1" id="Layer_1" xmlns="http://www.w3.org/2000/svg" xmlns:xlink="http://www.w3.org/1999/xlink" x="0px" y="0px"
	 width="252px" height="252px" viewBox="0 0 252 252" enable-background="new 0 0 252 252" xml:space="preserve">
<g>
	<path opacity="0.3" fill="#E53D47" d="M126.295,31.42v8.23c11.945,0.001,23.282,2.416,33.609,6.782
		c15.485,6.548,28.687,17.508,37.998,31.294c9.312,13.792,14.739,30.361,14.742,48.273c-0.001,11.945-2.416,23.282-6.782,33.609
		c-6.548,15.485-17.508,28.687-31.294,37.998c-13.791,9.312-30.361,14.739-48.273,14.742c-11.945-0.001-23.282-2.416-33.609-6.782
		C77.201,199.02,64,188.06,54.688,174.273C45.375,160.482,39.948,143.912,39.945,126c0.001-11.945,2.416-23.283,6.783-33.609
		c6.548-15.485,17.508-28.687,31.294-37.999c13.792-9.312,30.361-14.739,48.273-14.742V31.42v-8.23
		c-14.172-0.001-27.716,2.877-40.021,8.083c-18.461,7.81-34.142,20.835-45.226,37.24C29.964,84.911,23.481,104.735,23.485,126
		c-0.001,14.173,2.877,27.717,8.083,40.021c7.81,18.461,20.835,34.143,37.24,45.227c16.399,11.084,36.224,17.566,57.488,17.563
		c14.173,0.001,27.717-2.877,40.021-8.083c18.461-7.811,34.143-20.835,45.227-37.239c11.084-16.399,17.566-36.224,17.563-57.488
		c0.001-14.172-2.877-27.716-8.083-40.021c-7.811-18.46-20.835-34.142-37.239-45.226c-16.399-11.084-36.224-17.566-57.488-17.563
		V31.42z"/>
	<path fill="#58595B" d="M171.486,117.967h-9.834v3.266l2.264,0.371l-3.172,9.481l-0.111-0.019l-0.279-1.447l-2.746-8.016
		l2.246-0.371v-3.266h-9.834v3.266l1.873,0.297l6.365,16.532l-0.613,1.521c-0.26,0.655-0.631,1.203-1.113,1.642
		c-0.482,0.439-1.175,0.659-2.078,0.659c-0.136,0-0.297-0.013-0.482-0.037c-0.186-0.025-0.365-0.05-0.537-0.074l-0.631,3.952
		c0.543,0.136,1.017,0.241,1.419,0.315c0.401,0.074,0.831,0.111,1.29,0.111c1.953,0,3.416-0.489,4.388-1.466
		c0.971-0.978,1.747-2.189,2.329-3.637l7.385-19.538l1.873-0.278V117.967z M143.006,128.562c0,1.807-0.279,3.2-0.836,4.185
		c-0.557,0.982-1.533,1.475-2.932,1.475c-0.854,0-1.574-0.16-2.161-0.482c-0.588-0.321-1.048-0.791-1.382-1.41v-8.479
		c0.334-0.655,0.791-1.159,1.373-1.513c0.58-0.352,1.292-0.528,2.133-0.528c1.386,0,2.366,0.572,2.941,1.716
		c0.575,1.145,0.863,2.694,0.863,4.648V128.562z M148.404,128.172c0-3.203-0.668-5.768-2.004-7.691
		c-1.336-1.923-3.277-2.885-5.826-2.885c-1.051,0-1.982,0.217-2.792,0.649c-0.811,0.434-1.507,1.052-2.087,1.855v-11.003h-8.275
		v3.266l2.875,0.557v25.123h4.676l0.391-2.468c0.594,0.928,1.322,1.636,2.189,2.124c0.865,0.489,1.886,0.733,3.061,0.733
		c2.523,0,4.453-0.896,5.789-2.69c1.336-1.793,2.004-4.187,2.004-7.181V128.172z M119.682,138.043h7.181v-3.247l-2.431-0.557
		v-16.272h-5.418h-2.375v3.266l2.375,0.557v10.817c-0.396,0.52-0.906,0.919-1.531,1.196c-0.625,0.279-1.364,0.418-2.217,0.418
		c-0.965,0-1.692-0.318-2.18-0.955c-0.489-0.638-0.733-1.686-0.733-3.146v-12.153h-5.418h-2.208v3.266l2.208,0.557v8.294
		c0,2.857,0.6,4.964,1.8,6.317c1.2,1.355,2.857,2.032,4.973,2.032c1.212,0,2.292-0.254,3.238-0.761s1.741-1.23,2.384-2.171
		L119.682,138.043z M87.323,115.202h3.841c1.459,0,2.563,0.362,3.312,1.085c0.748,0.725,1.123,1.692,1.123,2.904
		c0,1.213-0.377,2.141-1.132,2.783c-0.755,0.644-1.887,0.965-3.396,0.965h-3.748V115.202z M81.905,111.027h-2.876v3.266l2.876,0.557
		v19.39l-2.876,0.557v3.247h11.188v-3.247l-2.895-0.557v-7.125h4.435c1.274,0.037,2.26,0.43,2.959,1.179
		c0.699,0.748,1.048,1.778,1.048,3.089v1.54c0,1.51,0.358,2.74,1.076,3.692c0.717,0.953,1.96,1.429,3.729,1.429h2.802v-3.266
		l-0.668-0.093c-0.544-0.062-0.934-0.257-1.169-0.585c-0.235-0.327-0.353-0.788-0.353-1.382v-1.373c0-1.62-0.35-2.978-1.048-4.073
		c-0.699-1.094-1.846-1.876-3.442-2.347c1.41-0.618,2.48-1.429,3.21-2.431c0.729-1.002,1.095-2.183,1.095-3.544
		c0-2.474-0.872-4.413-2.616-5.817c-1.744-1.403-4.15-2.105-7.218-2.105H81.905z"/>
	<path opacity="0.9" fill="#E53D47" d="M126.294,14.507v8.7c14.217,0.001,27.716,2.876,40.009,8.074
		c18.437,7.796,34.149,20.842,45.234,37.252c11.084,16.417,17.547,36.147,17.55,57.466c-0.001,14.217-2.876,27.716-8.074,40.009
		c-7.796,18.437-20.842,34.149-37.252,45.234c-16.417,11.084-36.147,17.547-57.467,17.55c-14.217-0.001-27.716-2.876-40.009-8.074
		c-18.436-7.796-34.149-20.842-45.234-37.252C29.966,167.05,23.504,147.319,23.501,126c0.001-14.217,2.876-27.716,8.074-40.009
		c7.796-18.436,20.842-34.149,37.252-45.234c16.417-11.085,36.147-17.547,57.466-17.55V14.507v-8.7
		c-16.571-0.001-32.403,3.363-46.787,9.449c-21.581,9.13-39.916,24.358-52.874,43.537C13.674,77.965,6.097,101.137,6.101,126
		c-0.001,16.571,3.363,32.403,9.449,46.787c9.13,21.581,24.359,39.916,43.537,52.874c19.172,12.958,42.344,20.535,67.207,20.532
		c16.571,0.001,32.403-3.363,46.787-9.449c21.581-9.13,39.916-24.358,52.874-43.537c12.958-19.172,20.535-42.344,20.532-67.207
		c0.001-16.571-3.363-32.403-9.449-46.787c-9.13-21.581-24.358-39.916-43.537-52.874C174.329,13.38,151.157,5.803,126.294,5.807
		V14.507z"/>
</g>
</svg>
