<?xml version="1.0" encoding="utf-8"?>
<!-- Generator: Adobe Illustrator 15.1.0, SVG Export Plug-In . SVG Version: 6.00 Build 0)  -->
<!DOCTYPE svg PUBLIC "-//W3C//DTD SVG 1.1//EN" "http://www.w3.org/Graphics/SVG/1.1/DTD/svg11.dtd">
<svg version="1.1" id="Layer_1" xmlns="http://www.w3.org/2000/svg" xmlns:xlink="http://www.w3.org/1999/xlink" x="0px" y="0px"
	 width="252px" height="252px" viewBox="0 0 252 252" enable-background="new 0 0 252 252" xml:space="preserve">
<path fill="#E53D47" d="M92.393,109.004c2.953,0,5.27,0.676,6.957,2.031c1.676,1.352,2.52,3.219,2.52,5.605
	c0,1.312-0.352,2.453-1.059,3.418c-0.703,0.965-1.73,1.746-3.09,2.344c1.539,0.453,2.641,1.203,3.32,2.262
	c0.668,1.051,1.008,2.363,1.008,3.922v1.324c0,0.574,0.109,1.02,0.34,1.336c0.223,0.312,0.598,0.504,1.129,0.562l0.641,0.09v3.145
	h-2.703c-1.703,0-2.895-0.457-3.594-1.375c-0.688-0.918-1.035-2.105-1.035-3.559v-1.484c0-1.266-0.336-2.258-1.012-2.98
	c-0.672-0.719-1.625-1.098-2.852-1.133H88.69v6.867l2.789,0.535v3.129H80.693v-3.129l2.777-0.535v-18.691l-2.777-0.535v-3.148h2.777
	L92.393,109.004L92.393,109.004z M88.689,120.488h3.609c1.457,0,2.551-0.312,3.277-0.934c0.727-0.617,1.09-1.512,1.09-2.684
	c0-1.164-0.359-2.102-1.078-2.797c-0.727-0.695-1.789-1.043-3.195-1.043h-3.703V120.488z"/>
<path fill="#E53D47" d="M119.541,132.598c-0.621,0.902-1.387,1.603-2.301,2.086c-0.906,0.492-1.953,0.738-3.125,0.738
	c-2.031,0-3.633-0.656-4.789-1.961c-1.156-1.305-1.734-3.332-1.734-6.09v-7.992l-2.129-0.539v-3.148h2.129h5.227v11.715
	c0,1.405,0.234,2.418,0.707,3.03c0.469,0.617,1.168,0.922,2.094,0.922c0.828,0,1.539-0.137,2.145-0.401
	c0.602-0.271,1.09-0.651,1.473-1.151v-10.428l-2.289-0.539v-3.148h2.289h5.227v15.688l2.34,0.535v3.129h-6.917L119.541,132.598z"/>
<path fill="#E53D47" d="M147.564,125.906c0,2.887-0.646,5.191-1.935,6.922c-1.284,1.727-3.146,2.594-5.582,2.594
	c-1.129,0-2.108-0.238-2.944-0.707c-0.84-0.473-1.543-1.156-2.109-2.047l-0.379,2.375h-4.508v-24.215l-2.771-0.535v-3.148h7.978
	v10.605c0.559-0.773,1.227-1.371,2.016-1.789c0.781-0.418,1.672-0.625,2.688-0.625c2.453,0,4.328,0.93,5.613,2.781
	c1.289,1.855,1.934,4.324,1.934,7.414V125.906L147.564,125.906z M142.361,125.531c0-1.887-0.277-3.379-0.828-4.48
	c-0.555-1.105-1.504-1.656-2.844-1.656c-0.81,0-1.492,0.168-2.056,0.512c-0.555,0.34-0.995,0.824-1.319,1.457v8.172
	c0.324,0.598,0.77,1.047,1.332,1.358c0.569,0.312,1.258,0.465,2.082,0.465c1.352,0,2.297-0.473,2.828-1.422
	c0.539-0.944,0.805-2.289,0.805-4.03V125.531z"/>
<path fill="#E53D47" d="M169.818,118.84l-1.81,0.27l-7.12,18.832c-0.562,1.398-1.306,2.562-2.246,3.504
	c-0.935,0.945-2.345,1.414-4.228,1.414c-0.44,0-0.854-0.034-1.246-0.104c-0.387-0.073-0.84-0.176-1.367-0.305l0.609-3.812
	l0.522,0.069l0.457,0.039c0.871,0,1.543-0.211,2.004-0.634c0.469-0.426,0.828-0.952,1.074-1.586l0.594-1.465l-6.137-15.938
	l-1.809-0.285v-3.148h9.484v3.148l-2.164,0.359l2.641,7.727l0.27,1.395l0.109,0.021l3.059-9.141l-2.188-0.359v-3.148h9.488v3.147
	H169.818z"/>
<path opacity="0.9" fill="#E53D47" enable-background="new    " d="M205.326,45.227c-20.453-20.48-48.863-33.188-80.102-33.18
	C93.99,12.039,65.587,24.746,45.13,45.227C24.658,65.676,11.943,94.086,11.955,125.32c-0.012,31.239,12.703,59.645,33.176,80.098
	c20.457,20.477,48.859,33.188,80.094,33.18c31.238,0.008,59.648-12.703,80.102-33.18c20.473-20.453,33.184-48.859,33.176-80.098
	C238.51,94.086,225.799,65.68,205.326,45.227z M185.182,185.277c-15.387,15.358-36.496,24.824-59.957,24.836
	c-23.453-0.012-44.559-9.478-59.949-24.836c-15.367-15.392-24.828-36.492-24.832-59.958c0.004-23.457,9.465-44.562,24.832-59.949
	C80.666,50,101.771,40.543,125.225,40.535c23.46,0.008,44.57,9.465,59.957,24.836c15.367,15.383,24.824,36.492,24.832,59.949
	C210.006,148.785,200.549,169.887,185.182,185.277z"/>
<path opacity="0.8" fill="#E7CCC6" enable-background="new    " d="M125.205,12.047h-0.027c-0.121,0-0.246,0-0.367,0
	c-2.816,0.012-5.613,0.121-8.383,0.336c-27.754,2.129-52.797,14.301-71.316,32.844C34.498,55.82,25.979,68.555,20.229,82.707
	c-5.352,13.164-8.297,27.562-8.297,42.613l0,0c0,12.398,2,24.352,5.691,35.536c5.613,17,15.137,32.227,27.488,44.562
	c20.445,20.478,48.844,33.181,80.07,33.181h0.023v-28.484l0,0c-7.547,0-14.848-0.988-21.797-2.824
	c-14.648-3.887-27.719-11.59-38.156-22.012c-10.555-10.57-18.316-23.832-22.145-38.703c-1.754-6.785-2.684-13.906-2.691-21.254l0,0
	l0,0l0,0c0.008-7.066,0.867-13.914,2.492-20.465c3.758-15.188,11.605-28.73,22.344-39.484c8.656-8.645,19.121-15.418,30.801-19.695
	c9.082-3.324,18.891-5.137,29.152-5.141l0,0L125.205,12.047L125.205,12.047L125.205,12.047"/>
</svg>
