<?xml version="1.0" encoding="utf-8"?>
<!-- Generator: Adobe Illustrator 15.1.0, SVG Export Plug-In . SVG Version: 6.00 Build 0)  -->
<!DOCTYPE svg PUBLIC "-//W3C//DTD SVG 1.1//EN" "http://www.w3.org/Graphics/SVG/1.1/DTD/svg11.dtd">
<svg version="1.1" id="Layer_1" xmlns="http://www.w3.org/2000/svg" xmlns:xlink="http://www.w3.org/1999/xlink" x="0px" y="0px"
	 width="90px" height="72px" viewBox="0 0 90 72" enable-background="new 0 0 90 72" xml:space="preserve">
<g opacity="0.3">
	<path fill="#22B99A" d="M20.854,36.27L20.854,36.27L20.854,36.27L20.854,36.27 M28.336,26.174c-2.757,0-5.263,1.137-7.063,2.962
		c-1.804,1.825-2.919,4.354-2.918,7.133h2.5c0-2.106,0.84-4,2.197-5.377c1.36-1.375,3.22-2.218,5.287-2.219v-2.5
		C28.338,26.174,28.337,26.174,28.336,26.174"/>
</g>
<g opacity="0.3">
	<path fill="#22B99A" d="M58.922,40.895c-0.001,0,2.395,0,2.394,0H58.922C61.398,40.896,58.922,40.895,58.922,40.895
		c11.039,2.364,11.361,9.574,11.362,12.099c-0.001,2.523-2.399,10.109-11.366,12.099l0,0h2.397l0,0
		c3.306,0.001,6.31-1.362,8.468-3.551c2.16-2.188,3.498-5.217,3.497-8.548c0.001-3.331-1.337-6.361-3.497-8.548
		c-2.158-2.188-6.979-3.503-10.283-3.503"/>
</g>
<g opacity="0.3">
	<path fill="#22B99A" d="M58.922,7.009c-0.001,0,2.395,0,2.394,0H58.922C61.398,7.01,58.922,7.009,58.922,7.009
		c11.039,2.364,11.361,9.574,11.362,12.099c-0.001,2.523-2.399,10.109-11.366,12.099l0,0h2.397l0,0
		c3.306,0.001,6.31-1.362,8.468-3.551c2.16-2.188,3.498-5.217,3.497-8.548c0.001-3.331-1.337-6.361-3.497-8.548
		C67.625,8.371,62.804,7.057,59.5,7.057"/>
</g>
<g>
	<path fill="#22B99A" d="M61.586,40.142v-1.25c-3.526-0.001-6.748,1.323-9.197,3.48l0.826,0.938l0.545-1.125L41.27,36.14
		l-0.544,1.125l1.244,0.12c0.041-0.427,0.067-0.868,0.067-1.321c0-0.345-0.028-0.642-0.045-0.896l-1.247,0.086l0.545,1.125
		l12.462-6.033l-0.545-1.125l-0.826,0.938c2.45,2.16,5.675,3.488,9.205,3.488c7.701-0.001,13.943-6.242,13.944-13.944
		C75.529,12,69.287,5.76,61.586,5.759C53.885,5.76,47.643,12,47.642,19.702c0.002,0.238,0.021,0.379,0.02,0.423l1.25-0.028
		l-0.545-1.125l-12.745,6.17l0.544,1.125l0.795-0.964c-2.407-1.988-5.505-3.184-8.869-3.183
		c-7.702,0.001-13.943,6.242-13.944,13.943c0.001,7.701,6.243,13.942,13.944,13.943c3.208,0.001,6.163-1.097,8.513-2.915
		l-0.765-0.989l-0.545,1.125l13.071,6.328l0.545-1.125l-1.249-0.036c0,0.057-0.02,0.201-0.021,0.44
		c0.001,7.702,6.243,13.943,13.944,13.944c7.701-0.001,13.943-6.242,13.944-13.944c-0.001-7.702-6.243-13.942-13.944-13.943V40.142
		v1.25c3.164,0.001,6.018,1.279,8.093,3.352c2.072,2.075,3.351,4.928,3.352,8.092c-0.001,3.165-1.279,6.018-3.352,8.093
		c-2.075,2.072-4.929,3.351-8.093,3.352c-3.164-0.001-6.018-1.279-8.093-3.352c-2.072-2.075-3.351-4.928-3.352-8.093
		c-0.002-0.034,0.012-0.153,0.02-0.368l0.023-0.809L35.688,44.64l-0.612,0.474c-1.939,1.498-4.349,2.393-6.983,2.394
		c-3.164-0.001-6.018-1.279-8.092-3.352c-2.073-2.075-3.352-4.928-3.352-8.092c0-3.164,1.279-6.017,3.352-8.092
		c2.075-2.073,4.928-3.351,8.092-3.352c2.769,0,5.296,0.979,7.278,2.612l0.618,0.51l14.19-6.869l-0.018-0.803
		c-0.008-0.219-0.021-0.338-0.02-0.368c0.001-3.164,1.279-6.017,3.352-8.092c2.075-2.073,4.929-3.351,8.093-3.352
		c3.164,0,6.018,1.279,8.093,3.352c2.072,2.075,3.351,4.928,3.352,8.092c-0.001,3.165-1.279,6.018-3.352,8.093
		c-2.075,2.073-4.929,3.351-8.093,3.352c-2.899,0-5.53-1.084-7.553-2.864l-0.623-0.549l-13.97,6.763l0.058,0.843
		c0.02,0.285,0.04,0.522,0.039,0.724c0,0.357-0.021,0.717-0.056,1.081l-0.083,0.866l14.019,6.786l0.624-0.548
		c2.021-1.776,4.649-2.856,7.545-2.857V40.142z"/>
</g>
</svg>
