<?xml version="1.0" encoding="utf-8"?>
<!-- Generator: Adobe Illustrator 15.1.0, SVG Export Plug-In . SVG Version: 6.00 Build 0)  -->
<!DOCTYPE svg PUBLIC "-//W3C//DTD SVG 1.1//EN" "http://www.w3.org/Graphics/SVG/1.1/DTD/svg11.dtd">
<svg version="1.1" id="Layer_1" xmlns="http://www.w3.org/2000/svg" xmlns:xlink="http://www.w3.org/1999/xlink" x="0px" y="0px"
	 width="252px" height="252px" viewBox="0 0 252 252" enable-background="new 0 0 252 252" xml:space="preserve">
<g>
	<path fill="#58595B" d="M159.814,138.043v-7.354h-4.029l-0.253,3.307h-7.425V115.46l2.818-0.542v-3.18h-2.818h-5.275h-2.801v3.18
		l2.801,0.542v18.88l-2.801,0.541v3.162H159.814z M132.643,125.09c0,2.77-0.561,5.001-1.681,6.693s-2.794,2.538-5.022,2.538
		c-2.204,0-3.857-0.846-4.959-2.538c-1.102-1.692-1.653-3.924-1.653-6.693v-0.434c0-2.746,0.545-4.963,1.635-6.648
		c1.09-1.687,2.743-2.529,4.959-2.529c2.215,0,3.89,0.849,5.022,2.547c1.133,1.698,1.699,3.908,1.699,6.631V125.09z
		 M137.899,124.691c0-3.83-1.104-7.01-3.315-9.539c-2.21-2.529-5.098-3.793-8.663-3.793c-3.553,0-6.42,1.264-8.6,3.793
		c-2.18,2.529-3.27,5.709-3.27,9.539v0.398c0,3.854,1.093,7.039,3.279,9.557c2.187,2.518,5.056,3.775,8.609,3.775
		c0.47,0,0.942-0.029,1.418-0.09c0.477-0.061,0.949-0.139,1.418-0.234l6.306,4.245l3.722-2.872l-5.601-3.487
		c1.481-1.192,2.635-2.734,3.46-4.625c0.824-1.891,1.237-3.98,1.237-6.269V124.691z M111.396,114.756
		c-1.132-1.024-2.529-1.844-4.191-2.457c-1.662-0.615-3.505-0.922-5.528-0.922c-2.734,0.036-5.004,0.731-6.811,2.087
		c-1.807,1.354-2.71,3.099-2.71,5.229c0,2.156,0.801,3.854,2.403,5.096c1.602,1.24,3.962,2.312,7.082,3.215
		c1.794,0.543,3.05,1.121,3.767,1.734c0.717,0.615,1.075,1.428,1.075,2.439c0,0.987-0.376,1.776-1.129,2.367
		c-0.753,0.59-1.852,0.885-3.297,0.885c-1.12,0-2.135-0.142-3.044-0.425c-0.909-0.282-1.629-0.642-2.159-1.075l-0.56-3.739h-4.083
		v5.492c1.12,1.168,2.521,2.084,4.2,2.746c1.681,0.662,3.562,0.993,5.646,0.993c2.915,0,5.263-0.65,7.046-1.951
		c1.782-1.301,2.674-3.077,2.674-5.329c0-2.156-0.75-3.896-2.25-5.222c-1.499-1.324-3.701-2.391-6.603-3.197
		c-2.023-0.639-3.448-1.243-4.273-1.815c-0.825-0.572-1.237-1.304-1.237-2.195c0-0.964,0.395-1.749,1.184-2.357
		c0.789-0.608,1.906-0.913,3.351-0.913c0.987,0,1.921,0.109,2.8,0.326c0.879,0.217,1.547,0.469,2.005,0.758l0.687,3.613h3.957
		V114.756z"/>
	<path opacity="0.3" fill="#1A8D95" d="M126.295,31.42v8.23c11.945,0.001,23.282,2.416,33.609,6.782
		c15.485,6.548,28.687,17.508,37.998,31.294c9.312,13.792,14.739,30.361,14.742,48.273c-0.001,11.945-2.416,23.282-6.782,33.609
		c-6.548,15.485-17.508,28.687-31.294,37.998c-13.791,9.312-30.361,14.739-48.273,14.742c-11.945-0.001-23.282-2.416-33.609-6.782
		C77.201,199.02,64,188.06,54.688,174.273C45.375,160.482,39.948,143.912,39.945,126c0.001-11.945,2.416-23.283,6.783-33.609
		c6.548-15.485,17.508-28.687,31.294-37.999c13.792-9.312,30.361-14.739,48.273-14.742V31.42v-8.23
		c-14.172-0.001-27.716,2.877-40.021,8.083c-18.461,7.81-34.142,20.835-45.226,37.24C29.964,84.911,23.481,104.735,23.485,126
		c-0.001,14.173,2.877,27.717,8.083,40.021c7.81,18.461,20.835,34.143,37.24,45.227c16.399,11.084,36.224,17.566,57.488,17.563
		c14.173,0.001,27.717-2.877,40.021-8.083c18.461-7.811,34.143-20.835,45.227-37.239c11.084-16.399,17.566-36.224,17.563-57.488
		c0.001-14.172-2.877-27.716-8.083-40.021c-7.811-18.46-20.835-34.142-37.239-45.226c-16.399-11.084-36.224-17.566-57.488-17.563
		V31.42z"/>
	<path opacity="0.9" fill="#1A8D95" d="M126.294,14.507v8.7c14.217,0.001,27.716,2.876,40.009,8.074
		c18.437,7.796,34.149,20.842,45.234,37.252c11.084,16.417,17.547,36.147,17.55,57.466c-0.001,14.217-2.876,27.716-8.074,40.009
		c-7.796,18.437-20.842,34.149-37.252,45.234c-16.417,11.084-36.147,17.547-57.467,17.55c-14.217-0.001-27.716-2.876-40.009-8.074
		c-18.436-7.796-34.149-20.842-45.234-37.252C29.966,167.05,23.504,147.319,23.501,126c0.001-14.217,2.876-27.716,8.074-40.009
		c7.796-18.436,20.842-34.149,37.252-45.234c16.417-11.085,36.147-17.547,57.466-17.55V14.507v-8.7
		c-16.571-0.001-32.403,3.363-46.787,9.449c-21.581,9.13-39.916,24.358-52.874,43.537C13.674,77.965,6.097,101.137,6.101,126
		c-0.001,16.571,3.363,32.403,9.449,46.787c9.13,21.581,24.359,39.916,43.537,52.874c19.172,12.958,42.344,20.535,67.207,20.532
		c16.571,0.001,32.403-3.363,46.787-9.449c21.581-9.13,39.916-24.358,52.874-43.537c12.958-19.172,20.535-42.344,20.532-67.207
		c0.001-16.571-3.363-32.403-9.449-46.787c-9.13-21.581-24.358-39.916-43.537-52.874C174.329,13.38,151.157,5.803,126.294,5.807
		V14.507z"/>
</g>
</svg>
