<?xml version="1.0" encoding="utf-8"?>
<!-- Generator: Adobe Illustrator 15.1.0, SVG Export Plug-In . SVG Version: 6.00 Build 0)  -->
<!DOCTYPE svg PUBLIC "-//W3C//DTD SVG 1.1//EN" "http://www.w3.org/Graphics/SVG/1.1/DTD/svg11.dtd">
<svg version="1.1" id="Layer_1" xmlns="http://www.w3.org/2000/svg" xmlns:xlink="http://www.w3.org/1999/xlink" x="0px" y="0px"
	 width="252px" height="252px" viewBox="0 0 252 252" enable-background="new 0 0 252 252" xml:space="preserve">
<path fill="#1A8D95" d="M111.885,117.686h-3.914l-0.68-3.574c-0.453-0.289-1.117-0.531-1.988-0.75
	c-0.871-0.219-1.797-0.324-2.77-0.324c-1.43,0-2.539,0.301-3.312,0.902c-0.789,0.609-1.18,1.379-1.18,2.336
	c0,0.883,0.41,1.609,1.227,2.172c0.82,0.566,2.223,1.164,4.227,1.797c2.875,0.797,5.062,1.855,6.539,3.164
	c1.484,1.309,2.227,3.035,2.227,5.172c0,2.229-0.883,3.983-2.641,5.272c-1.773,1.289-4.098,1.931-6.984,1.931
	c-2.062,0-3.918-0.32-5.586-0.979c-1.664-0.66-3.047-1.566-4.156-2.72v-5.438h4.039l0.555,3.703c0.527,0.43,1.238,0.785,2.137,1.062
	c0.902,0.285,1.91,0.422,3.012,0.422c1.434,0,2.523-0.297,3.27-0.871c0.746-0.594,1.117-1.371,1.117-2.348
	c0-1.004-0.352-1.805-1.07-2.418c-0.707-0.602-1.949-1.176-3.723-1.715c-3.094-0.891-5.426-1.957-7.016-3.184
	c-1.578-1.23-2.375-2.906-2.375-5.043c0-2.109,0.898-3.84,2.684-5.176c1.793-1.344,4.035-2.031,6.746-2.066
	c2,0,3.82,0.301,5.473,0.91c1.641,0.605,3.027,1.414,4.145,2.438v5.325H111.885z"/>
<path fill="#1A8D95" d="M138.127,122.588c0,2.266-0.414,4.336-1.234,6.203c-0.809,1.875-1.957,3.398-3.414,4.582l5.535,3.449
	l-3.684,2.844l-6.238-4.199c-0.469,0.094-0.938,0.172-1.406,0.23c-0.468,0.058-0.938,0.086-1.406,0.086
	c-3.516,0-6.352-1.242-8.52-3.734c-2.164-2.492-3.242-5.645-3.242-9.461v-0.395c0-3.793,1.074-6.941,3.23-9.441
	c2.16-2.508,4.996-3.758,8.516-3.758c3.531,0,6.386,1.25,8.582,3.758c2.18,2.5,3.281,5.648,3.281,9.441V122.588z M132.916,122.158
	c0-2.691-0.562-4.883-1.68-6.562c-1.125-1.68-2.781-2.52-4.973-2.52c-2.192,0-3.832,0.832-4.906,2.5
	c-1.082,1.676-1.621,3.863-1.621,6.582v0.43c0,2.742,0.547,4.953,1.637,6.625c1.094,1.676,2.73,2.512,4.906,2.512
	c2.208,0,3.864-0.836,4.98-2.512c1.099-1.672,1.656-3.883,1.656-6.625L132.916,122.158L132.916,122.158z"/>
<polygon fill="#1A8D95" points="140.236,135.408 140.236,132.279 143.01,131.748 143.01,113.053 140.236,112.518 140.236,109.369 
	143.01,109.369 148.232,109.369 151.025,109.369 151.025,112.518 148.232,113.053 148.232,131.404 155.58,131.404 155.83,128.127 
	159.822,128.127 159.822,135.408 "/>
<path opacity="0.9" fill="#1A8D95" enable-background="new    " d="M205.213,45.521c-20.457-20.477-48.863-33.188-80.102-33.18
	c-31.234-0.008-59.641,12.703-80.094,33.18c-20.477,20.457-33.188,48.863-33.176,80.09c-0.012,31.243,12.699,59.648,33.176,80.102
	c20.453,20.48,48.859,33.188,80.094,33.184c31.239,0.004,59.645-12.703,80.102-33.184c20.477-20.453,33.18-48.859,33.172-80.102
	C238.393,94.385,225.686,65.979,205.213,45.521z M185.064,185.572c-15.388,15.367-36.488,24.824-59.954,24.836
	c-23.453-0.012-44.562-9.469-59.949-24.836c-15.367-15.391-24.828-36.492-24.832-59.961c0.004-23.445,9.465-44.555,24.832-59.945
	c15.387-15.371,36.496-24.828,59.949-24.836c23.465,0.008,44.566,9.465,59.954,24.836c15.367,15.391,24.828,36.496,24.84,59.945
	C209.893,149.08,200.432,170.186,185.064,185.572z"/>
<path fill="#EAEBEC" d="M192.182,178.689c-8.406,10.422-18.699,18.285-30.022,23.582c-11.31,5.293-23.647,8.004-36.023,8.004
	c-0.016,0-0.027,0-0.031,0c-18.711-0.017-37.43-6.117-53.156-18.773l-0.082,0.102c14.57,11.773,33.039,18.793,53.246,18.806
	c23.465-0.013,44.567-9.47,59.954-24.836c2.172-2.181,4.227-4.462,6.151-6.855L192.182,178.689 M12.842,125.619L12.842,125.619
	c-0.012,24.141,7.582,46.594,20.484,64.988c-12.902-18.396-20.488-40.855-20.484-64.997 M54.057,80.912
	c-8.07,12.973-12.727,28.258-12.727,44.699l0,0C41.33,109.17,45.982,93.885,54.057,80.912 M54.076,80.881
	c-0.004,0.008-0.012,0.012-0.012,0.02C54.064,80.893,54.068,80.889,54.076,80.881 M126.111,40.83
	c-21.746,0.008-41.473,8.145-56.5,21.57c15.027-13.426,34.754-21.559,56.5-21.566V40.83L126.111,40.83"/>
<path opacity="0.8" fill="#E7CCC6" enable-background="new    " d="M125.115,12.346h-0.027c-0.121,0-0.246,0-0.367,0
	c-2.816,0.012-5.613,0.121-8.383,0.336c-27.754,2.129-52.797,14.301-71.316,32.844C34.409,56.12,25.889,68.854,20.139,83.006
	c-5.352,13.164-8.297,27.562-8.297,42.613l0,0c0,12.398,2,24.352,5.691,35.535c5.613,17,15.137,32.227,27.488,44.562
	c20.445,20.478,48.844,33.181,80.07,33.181h0.023v-28.484l0,0c-7.547,0-14.848-0.988-21.797-2.824
	c-14.648-3.887-27.719-11.59-38.156-22.012c-10.555-10.57-18.316-23.832-22.145-38.703c-1.754-6.785-2.684-13.906-2.691-21.254l0,0
	l0,0l0,0c0.008-7.066,0.867-13.914,2.492-20.465c3.758-15.188,11.605-28.73,22.344-39.484c8.656-8.645,19.121-15.418,30.801-19.695
	c9.082-3.324,18.891-5.137,29.152-5.141l0,0V12.346H125.115L125.115,12.346"/>
</svg>
