<?xml version="1.0" encoding="utf-8"?>
<!-- Generator: Adobe Illustrator 15.1.0, SVG Export Plug-In . SVG Version: 6.00 Build 0)  -->
<!DOCTYPE svg PUBLIC "-//W3C//DTD SVG 1.1//EN" "http://www.w3.org/Graphics/SVG/1.1/DTD/svg11.dtd">
<svg version="1.1" id="Layer_1" xmlns="http://www.w3.org/2000/svg" xmlns:xlink="http://www.w3.org/1999/xlink" x="0px" y="0px"
	 width="252px" height="252px" viewBox="0 0 252 252" enable-background="new 0 0 252 252" xml:space="preserve">
<g>
	<path fill="#231F20" d="M30.555,30.553v190.449H221v-13.824V30.553H30.555 M58.203,58.201h135.152V193.35H58.203V58.201"/>
	<polyline fill="#EAEBEC" points="124,58.201 58.203,58.201 58.203,98.557 58.203,58.201 124,58.201 	"/>
	<polyline fill="#C8C7C7" points="124,30.553 44.375,30.553 44.375,30.584 30.555,30.584 30.555,221.002 58.203,221.002 
		58.203,193.35 58.203,58.201 124,58.201 124,30.553 	"/>
	<polyline fill="#FAFAFA" points="58.203,58.201 58.203,58.201 58.203,98.557 58.203,58.201 	"/>
	<polyline fill="#FBFBFB" points="58.203,58.201 58.203,58.201 58.203,98.557 58.203,58.201 	"/>
	<path d="M172.975,123.671c0.381,0.487,0.572,1.14,0.572,1.958v0.343h-4.72l-0.04-0.066c0.098-0.888,0.352-1.604,0.766-2.149
		c0.412-0.545,0.975-0.817,1.688-0.817C172.014,122.939,172.591,123.183,172.975,123.671z M174.714,134.305
		c0.937-0.316,1.698-0.709,2.287-1.174l-1.042-2.373c-0.668,0.369-1.283,0.639-1.846,0.811c-0.563,0.173-1.271,0.258-2.122,0.258
		c-0.958,0-1.716-0.305-2.274-0.909c-0.559-0.606-0.871-1.381-0.941-2.319l0.025-0.08h8.518v-2.097c0-1.978-0.532-3.546-1.596-4.707
		c-1.063-1.16-2.559-1.74-4.481-1.74c-1.962-0.009-3.523,0.672-4.688,2.043c-1.164,1.371-1.746,3.116-1.746,5.233v0.527
		c0,2.031,0.615,3.705,1.846,5.022c1.231,1.318,2.873,1.978,4.931,1.978C172.734,134.777,173.777,134.62,174.714,134.305z
		 M141.379,122.953v8.846l-1.859,0.396v2.308h7.357v-2.308l-1.662-0.396V124.1c0.256-0.36,0.578-0.639,0.969-0.837
		c0.393-0.197,0.848-0.296,1.365-0.296c0.703,0,1.23,0.217,1.582,0.653c0.352,0.435,0.527,1.18,0.527,2.234v5.946l-1.557,0.396
		v2.309h6.948v-2.309l-1.557-0.396v-6.671c0-0.123-0.005-0.244-0.013-0.363c-0.01-0.118-0.014-0.261-0.014-0.428
		c0.236-0.431,0.555-0.767,0.955-1.008c0.4-0.241,0.873-0.363,1.418-0.363c0.693,0,1.217,0.211,1.568,0.633
		c0.351,0.422,0.527,1.173,0.527,2.254v5.946l-1.662,0.396v2.309h7.371v-2.309l-1.859-0.396v-5.933c0-1.986-0.406-3.465-1.219-4.436
		c-0.814-0.971-1.924-1.457-3.33-1.457c-0.949,0-1.775,0.215-2.479,0.646c-0.704,0.431-1.272,1.028-1.713,1.793
		c-0.334-0.817-0.826-1.428-1.478-1.833c-0.65-0.405-1.434-0.606-2.348-0.606c-0.904,0-1.703,0.187-2.393,0.561
		c-0.69,0.374-1.264,0.903-1.721,1.588l-0.158-1.885h-5.629v2.32L141.379,122.953z M136.659,113.935h-3.851v2.887h3.851V113.935z
		 M130.951,134.502h7.554v-2.309l-1.846-0.396v-11.562h-5.906v2.32l2.058,0.396v8.846l-1.858,0.396L130.951,134.502L130.951,134.502
		z M124.108,116.651v15.148l-1.859,0.396v2.308h7.567v-2.308l-1.858-0.396v-17.864h-5.906v2.32L124.108,116.651z M117.108,127.766
		c0,1.282-0.198,2.273-0.593,2.974c-0.396,0.696-1.09,1.047-2.083,1.047c-0.606,0-1.119-0.113-1.536-0.343
		c-0.418-0.229-0.745-0.562-0.982-1.002v-6.024c0.237-0.466,0.562-0.824,0.976-1.075c0.413-0.25,0.918-0.375,1.516-0.375
		c0.984,0,1.681,0.407,2.089,1.219c0.409,0.813,0.613,1.914,0.613,3.303V127.766z M120.944,127.488c0-2.277-0.475-4.098-1.424-5.465
		c-0.949-1.366-2.329-2.05-4.14-2.05c-0.747,0-1.409,0.154-1.984,0.461c-0.576,0.308-1.07,0.747-1.483,1.318v-7.818h-5.88v2.32
		l2.043,0.396v17.851h3.322l0.277-1.754c0.422,0.659,0.94,1.162,1.556,1.51c0.615,0.347,1.34,0.521,2.175,0.521
		c1.793,0,3.164-0.637,4.113-1.91c0.949-1.275,1.424-2.977,1.424-5.104L120.944,127.488L120.944,127.488z M100.536,134.502h5.102
		v-2.309l-1.727-0.396v-11.562h-3.85h-1.688v2.32l1.688,0.396v7.687c-0.281,0.368-0.644,0.651-1.087,0.85
		c-0.444,0.199-0.969,0.297-1.576,0.297c-0.686,0-1.202-0.227-1.549-0.678c-0.347-0.453-0.521-1.198-0.521-2.235v-8.635h-3.85H89.91
		v2.32l1.569,0.396v5.893c0,2.03,0.426,3.527,1.279,4.488c0.853,0.963,2.03,1.443,3.533,1.443c0.861,0,1.628-0.18,2.3-0.539
		c0.673-0.361,1.237-0.875,1.694-1.543L100.536,134.502z M88.42,117.508c-0.826-0.747-1.846-1.345-3.059-1.793
		c-1.213-0.448-2.558-0.672-4.034-0.672c-1.995,0.026-3.652,0.534-4.97,1.522c-1.318,0.989-1.978,2.261-1.978,3.817
		c0,1.573,0.584,2.812,1.753,3.718c1.169,0.906,2.892,1.688,5.168,2.347c1.31,0.396,2.226,0.816,2.749,1.266
		c0.522,0.448,0.784,1.042,0.784,1.78c0,0.721-0.275,1.296-0.824,1.728c-0.549,0.43-1.351,0.646-2.406,0.646
		c-0.817,0-1.558-0.104-2.221-0.312c-0.664-0.205-1.189-0.468-1.576-0.783l-0.409-2.729h-2.979v4.008
		c0.817,0.854,1.839,1.521,3.065,2.005c1.226,0.483,2.599,0.725,4.12,0.725c2.127,0,3.841-0.475,5.142-1.424
		c1.301-0.948,1.951-2.244,1.951-3.89c0-1.571-0.547-2.843-1.641-3.81c-1.095-0.967-2.701-1.745-4.819-2.333
		c-1.477-0.466-2.516-0.907-3.118-1.325c-0.603-0.417-0.903-0.951-0.903-1.602c0-0.703,0.288-1.276,0.863-1.721
		c0.576-0.443,1.391-0.666,2.446-0.666c0.721,0,1.402,0.079,2.043,0.237c0.641,0.158,1.129,0.343,1.463,0.554l0.501,2.637h2.887
		v-3.929H88.42z"/>
	<path d="M172.975,123.671l-0.197,0.154c0.338,0.433,0.519,1.024,0.52,1.804v0.093h-4.47v0.25l0.214-0.13l-0.04-0.066l-0.214,0.13
		l0.248,0.027c0.095-0.857,0.337-1.526,0.717-2.025c0.373-0.486,0.839-0.713,1.489-0.718h0.002h0.001h0.002
		c0.721,0.004,1.2,0.218,1.532,0.636L172.975,123.671l0.196-0.155c-0.434-0.556-1.105-0.83-1.925-0.826h-0.008l0.003,0.25v-0.25
		c-0.777-0.005-1.437,0.312-1.888,0.916c-0.448,0.59-0.714,1.354-0.814,2.273l-0.01,0.084l0.084,0.139l0.073,0.12h5.11v-0.593
		c0.001-0.855-0.201-1.57-0.625-2.112L172.975,123.671z M174.714,134.305l0.08,0.237c0.957-0.324,1.744-0.728,2.362-1.215
		l0.151-0.12l-1.229-2.801l-0.24,0.133c-0.656,0.362-1.256,0.625-1.798,0.79c-0.529,0.163-1.214,0.247-2.049,0.247
		c-0.907-0.003-1.58-0.279-2.091-0.829c-0.517-0.562-0.808-1.273-0.876-2.168l-0.249,0.019l0.238,0.075l0.025-0.08l-0.238-0.075
		v0.25h8.768v-2.347c0.001-2.021-0.548-3.662-1.661-4.876c-1.115-1.219-2.695-1.823-4.666-1.821h0.001h-0.041
		c-2.001-0.004-3.639,0.713-4.839,2.131c-1.207,1.42-1.807,3.233-1.806,5.395v0.527c-0.002,2.081,0.637,3.829,1.913,5.193
		c1.278,1.372,3.004,2.06,5.113,2.057c1.174,0,2.244-0.16,3.211-0.485L174.714,134.305l-0.08-0.237
		c-0.907,0.306-1.922,0.46-3.051,0.46c-2.006-0.003-3.563-0.634-4.748-1.898c-1.185-1.271-1.776-2.87-1.778-4.852v-0.527
		c0.001-2.073,0.565-3.749,1.687-5.071c1.114-1.306,2.572-1.951,4.458-1.955h0.039h0.002h-0.001
		c1.875,0.002,3.285,0.558,4.297,1.659c1.014,1.108,1.529,2.603,1.53,4.538v1.847h-8.45l-0.081,0.255l-0.015,0.046l0.004,0.048
		c0.072,0.982,0.406,1.819,1.007,2.47c0.606,0.66,1.448,0.993,2.458,0.99c0.868,0,1.598-0.086,2.195-0.269
		c0.583-0.179,1.214-0.455,1.894-0.831l-0.121-0.219l-0.229,0.101l1.042,2.373l0.229-0.101l-0.155-0.196
		c-0.56,0.442-1.296,0.824-2.212,1.133L174.714,134.305z M141.379,122.953h-0.25v8.644l-1.859,0.396v2.76h7.857v-2.755l-1.662-0.396
		V124.1h-0.25l0.204,0.145c0.233-0.329,0.522-0.579,0.878-0.759c0.352-0.177,0.766-0.27,1.252-0.27
		c0.655,0.003,1.088,0.193,1.388,0.56c0.292,0.354,0.475,1.049,0.472,2.077v5.751l-1.557,0.396v2.753h7.448v-2.753l-1.557-0.396
		v-6.477c0-0.13-0.005-0.256-0.014-0.379v-0.003v0c-0.009-0.107-0.013-0.245-0.013-0.408h-0.25l0.219,0.12
		c0.218-0.396,0.503-0.695,0.865-0.914c0.357-0.215,0.781-0.327,1.289-0.328c0.646,0.003,1.078,0.188,1.376,0.543
		c0.287,0.336,0.473,1.038,0.47,2.094v5.749l-1.662,0.396v2.756h7.871v-2.761l-1.859-0.396v-5.73
		c-0.001-2.018-0.41-3.558-1.277-4.597c-0.858-1.029-2.059-1.55-3.521-1.546c-0.986,0-1.863,0.225-2.61,0.683
		c-0.741,0.453-1.341,1.084-1.799,1.882l0.217,0.125l0.231-0.095c-0.349-0.855-0.877-1.516-1.577-1.951
		c-0.695-0.434-1.529-0.644-2.479-0.644c-0.938,0-1.781,0.195-2.512,0.591c-0.727,0.393-1.332,0.953-1.81,1.669l0.208,0.139
		l0.249-0.021l-0.178-2.114h-6.108v2.777l2.264,0.434L141.379,122.953h-0.25H141.379l0.047-0.246l-1.857-0.356v-1.864h5.149
		l0.198,2.37l0.397-0.596c0.437-0.654,0.978-1.152,1.632-1.507c0.648-0.352,1.403-0.53,2.273-0.531c0.878,0,1.61,0.191,2.216,0.568
		c0.603,0.375,1.059,0.937,1.378,1.715l0.193,0.473l0.255-0.443c0.423-0.733,0.96-1.296,1.627-1.704
		c0.661-0.404,1.437-0.609,2.349-0.609c1.35,0.004,2.368,0.455,3.139,1.368c0.758,0.902,1.161,2.321,1.16,4.275v6.135l1.859,0.396
		v1.856h-6.871v-1.861l1.662-0.396v-6.143c-0.003-1.106-0.171-1.906-0.585-2.414c-0.405-0.489-1.02-0.727-1.761-0.724
		c-0.582,0-1.104,0.132-1.547,0.399c-0.438,0.263-0.79,0.636-1.045,1.102l-0.031,0.056v0.064c0,0.171,0.004,0.32,0.015,0.449
		l0.249-0.021l-0.249,0.017c0.007,0.114,0.012,0.23,0.012,0.346v6.865l1.557,0.396v1.864h-6.448v-1.864l1.557-0.396v-6.14
		c-0.003-1.08-0.172-1.875-0.583-2.391c-0.403-0.504-1.025-0.75-1.776-0.746c-0.549,0-1.045,0.105-1.478,0.323
		c-0.427,0.215-0.782,0.524-1.061,0.915l-0.046,0.065v7.976l1.662,0.396v1.86h-6.857v-1.855l1.859-0.396v-9.254l-0.203-0.039
		L141.379,122.953z M136.659,113.935v-0.25h-4.101v3.387h4.351v-3.387h-0.25V113.935h-0.25v2.637h-3.351v-2.387h3.601V113.935h-0.25
		H136.659z M130.951,134.502v0.25h7.804v-2.761l-1.846-0.396v-11.61h-6.406v2.777l2.058,0.396v8.437l-1.858,0.396v2.511H130.951
		l0.001-0.25h-0.001v0.5V134.502v0.25h0.001h0.25v-2.356l1.858-0.396v-9.254l-2.058-0.396v-1.864h5.406V132l1.846,0.396v1.856
		h-7.304v0.5V134.502z M124.108,116.651h-0.25v14.946l-1.859,0.396v2.76h8.067v-2.76l-1.858-0.396v-17.912h-6.406v2.776l2.259,0.435
		L124.108,116.651h-0.25H124.108l0.047-0.246l-1.854-0.357v-1.863h5.406v17.816l1.858,0.396v1.855h-7.067v-1.855l1.859-0.396
		v-15.557l-0.203-0.039L124.108,116.651z M117.108,127.766h-0.25c0.001,1.257-0.197,2.209-0.561,2.851
		c-0.353,0.608-0.926,0.913-1.865,0.92c-0.576,0-1.045-0.107-1.416-0.312c-0.376-0.207-0.666-0.5-0.882-0.901l-0.22,0.118h0.25
		v-6.024h-0.25l0.223,0.113c0.219-0.43,0.51-0.748,0.883-0.975c0.367-0.222,0.823-0.338,1.386-0.339
		c0.917,0.01,1.488,0.349,1.866,1.082c0.383,0.761,0.586,1.826,0.586,3.191v0.276H117.108h0.25v-0.276
		c0-1.413-0.206-2.551-0.64-3.416c-0.438-0.892-1.261-1.367-2.312-1.357c-0.632,0-1.186,0.133-1.645,0.411
		c-0.456,0.275-0.815,0.674-1.069,1.176l-0.027,0.053v6.147l0.03,0.056c0.257,0.479,0.622,0.853,1.082,1.104
		c0.463,0.254,1.02,0.373,1.656,0.373c1.046,0.007,1.861-0.39,2.3-1.173c0.427-0.76,0.625-1.79,0.625-3.098H117.108z
		 M120.944,127.488h0.25c0-2.311-0.481-4.186-1.468-5.608c-0.989-1.432-2.473-2.163-4.346-2.157c-0.781,0-1.486,0.162-2.102,0.49
		c-0.611,0.327-1.135,0.794-1.568,1.392l0.203,0.146h0.25v-8.068h-6.38v2.776l2.043,0.396v17.895h3.785l0.311-1.965l-0.247-0.039
		l-0.21,0.135c0.441,0.688,0.99,1.224,1.644,1.593c0.658,0.371,1.429,0.553,2.298,0.553c1.851,0.005,3.321-0.672,4.314-2.011
		c0.989-1.33,1.474-3.09,1.473-5.253v-0.275H120.944l-0.001,0.25h0.001h0.25v-0.25H120.944v-0.25h-0.001h-0.25v0.525
		c0,2.091-0.466,3.733-1.375,4.954c-0.905,1.208-2.176,1.805-3.913,1.81c-0.801,0-1.479-0.166-2.052-0.488
		c-0.577-0.326-1.064-0.797-1.468-1.427l-0.355-0.554l-0.346,2.192h-2.858v-17.807l-2.043-0.396v-1.864h5.38v8.34l0.453-0.625
		c0.394-0.543,0.857-0.954,1.398-1.244c0.535-0.285,1.153-0.431,1.866-0.431c1.75,0.005,3.025,0.643,3.935,1.942
		c0.911,1.312,1.379,3.079,1.379,5.323H120.944v-0.25V127.488z M100.536,134.502v0.25h5.352v-2.758l-1.727-0.396v-11.613h-4.1
		h-1.938v2.769l1.688,0.396v7.488h0.25l-0.199-0.151c-0.256,0.334-0.582,0.59-0.99,0.772c-0.405,0.182-0.894,0.275-1.474,0.275
		c-0.634-0.004-1.052-0.197-1.351-0.58c-0.292-0.376-0.471-1.072-0.469-2.083v-8.885h-4.1H89.66v2.765l1.569,0.396v5.698
		c0,2.062,0.43,3.624,1.342,4.654c0.901,1.021,2.166,1.53,3.72,1.527c0.896,0,1.707-0.188,2.417-0.568
		c0.71-0.381,1.306-0.925,1.783-1.622l-0.207-0.142l-0.248,0.034l0.281,2.022h0.218V134.502l0.248-0.034l-0.34-2.447l-0.365,0.533
		c-0.437,0.639-0.969,1.122-1.606,1.464c-0.632,0.338-1.355,0.51-2.182,0.51c-1.452-0.003-2.542-0.455-3.346-1.359
		c-0.794-0.892-1.216-2.324-1.216-4.322v-6.087l-1.569-0.396v-1.875h1.318h3.6v8.385c0.002,1.063,0.171,1.857,0.573,2.388
		c0.395,0.52,1.009,0.779,1.747,0.775c0.633,0,1.194-0.102,1.678-0.318c0.478-0.214,0.877-0.524,1.184-0.927l0.051-0.066v-7.97
		l-1.688-0.396v-1.872h1.438h3.6v11.511l1.727,0.396v1.859h-4.852V134.502l0.248-0.034L100.536,134.502z M88.42,117.508l0.168-0.186
		c-0.853-0.771-1.902-1.385-3.141-1.842c-1.244-0.459-2.619-0.688-4.12-0.688h-0.001h-0.002c-2.035,0.026-3.75,0.547-5.117,1.572
		c-1.371,1.023-2.083,2.389-2.078,4.017c-0.004,1.634,0.622,2.969,1.85,3.916c1.208,0.935,2.958,1.725,5.252,2.39l0.069-0.24
		l-0.072,0.239c1.294,0.389,2.187,0.808,2.658,1.216c0.467,0.406,0.694,0.911,0.697,1.591c-0.004,0.657-0.236,1.138-0.729,1.531
		c-0.485,0.381-1.229,0.592-2.251,0.592c-0.796,0-1.511-0.102-2.146-0.3l-0.001-0.001c-0.642-0.198-1.138-0.449-1.491-0.737
		l-0.158,0.193l0.247-0.037l-0.441-2.942h-3.444v4.358l0.069,0.072c0.844,0.883,1.899,1.569,3.154,2.064
		c1.259,0.497,2.665,0.742,4.212,0.742c2.163,0,3.934-0.483,5.29-1.472c1.36-0.985,2.059-2.381,2.053-4.092
		c0.003-1.629-0.578-2.987-1.725-3.997c-1.137-1.003-2.777-1.792-4.918-2.386l-0.067,0.241l0.075-0.238
		c-1.465-0.461-2.49-0.902-3.05-1.292c-0.552-0.388-0.791-0.826-0.796-1.396c0.004-0.634,0.244-1.113,0.766-1.523
		c0.515-0.397,1.271-0.614,2.293-0.614c0.703,0,1.363,0.077,1.983,0.23c0.626,0.153,1.093,0.334,1.39,0.522l0.133-0.211
		l-0.246,0.047l0.54,2.84h3.344v-4.179h-0.25v0.25h0.002h0.649l-0.481-0.436L88.42,117.508v-0.25h-0.002h-0.25v3.929h-2.43
		l-0.483-2.541l-0.092-0.058c-0.371-0.233-0.88-0.423-1.537-0.585c-0.662-0.164-1.363-0.245-2.103-0.245
		c-1.088,0-1.962,0.229-2.598,0.718c-0.628,0.481-0.965,1.147-0.961,1.919c-0.005,0.731,0.356,1.362,1.011,1.808
		c0.644,0.445,1.695,0.887,3.185,1.358l0.004,0.001l0.004,0.001c2.095,0.581,3.667,1.348,4.721,2.28
		c1.04,0.923,1.553,2.108,1.556,3.622c-0.005,1.58-0.606,2.776-1.848,3.688c-1.248,0.91-2.903,1.376-4.995,1.376
		c-1.495,0-2.835-0.237-4.028-0.707c-1.197-0.474-2.187-1.119-2.976-1.945l-0.181,0.173h0.25v-3.758h2.514l0.392,2.612l0.075,0.061
		c0.42,0.343,0.974,0.616,1.66,0.829l-0.001-0.001c0.691,0.216,1.458,0.323,2.296,0.323c1.087,0,1.947-0.221,2.56-0.698
		c0.606-0.471,0.924-1.141,0.92-1.925c0.003-0.797-0.294-1.479-0.871-1.97c-0.574-0.49-1.514-0.913-2.84-1.315l-0.002-0.001h0
		c-2.257-0.653-3.955-1.428-5.084-2.305c-1.11-0.866-1.652-2.008-1.656-3.521c0.004-1.483,0.613-2.661,1.878-3.617
		c1.27-0.951,2.868-1.446,4.824-1.472l-0.003-0.25v0.25c1.451,0,2.765,0.22,3.947,0.656c1.188,0.439,2.179,1.021,2.978,1.744
		L88.42,117.508v-0.25V117.508z"/>
</g>
</svg>
