<?xml version="1.0" encoding="utf-8"?>
<!-- Generator: Adobe Illustrator 15.1.0, SVG Export Plug-In . SVG Version: 6.00 Build 0)  -->
<!DOCTYPE svg PUBLIC "-//W3C//DTD SVG 1.1//EN" "http://www.w3.org/Graphics/SVG/1.1/DTD/svg11.dtd">
<svg version="1.1" id="Layer_1" xmlns="http://www.w3.org/2000/svg" xmlns:xlink="http://www.w3.org/1999/xlink" x="0px" y="0px"
	 width="252px" height="252px" viewBox="0 0 252 252" enable-background="new 0 0 252 252" xml:space="preserve">
<g>
	<polyline fill="#FFFFFF" points="86.927,191.405 86.078,192.881 88.756,194.428 89.607,192.946 86.927,191.405 	"/>
	<path fill="#595A5C" d="M175.559,125.321c0.41,0.524,0.615,1.225,0.615,2.104v0.367h-5.068l-0.043-0.07
		c0.104-0.953,0.377-1.723,0.821-2.309c0.444-0.585,1.048-0.877,1.812-0.877C174.527,124.536,175.148,124.798,175.559,125.321z
		 M177.428,136.741c1.006-0.34,1.824-0.76,2.457-1.26l-1.119-2.549c-0.717,0.396-1.379,0.687-1.982,0.871
		c-0.604,0.184-1.364,0.275-2.279,0.275c-1.029,0-1.844-0.325-2.443-0.977s-0.937-1.482-1.012-2.492l0.027-0.085h9.148v-2.251
		c0-2.125-0.572-3.81-1.714-5.056s-2.747-1.869-4.814-1.869c-2.104-0.01-3.783,0.722-5.034,2.194
		c-1.25,1.473-1.876,3.347-1.876,5.622v0.566c0,2.181,0.661,3.979,1.982,5.396s3.087,2.123,5.296,2.123
		C175.301,137.251,176.422,137.081,177.428,136.741z M141.623,124.55v9.502l-1.996,0.424v2.479h7.901v-2.479l-1.784-0.424v-8.27
		c0.273-0.388,0.621-0.688,1.041-0.899c0.42-0.213,0.908-0.319,1.465-0.319c0.756,0,1.322,0.234,1.699,0.701
		c0.378,0.468,0.566,1.268,0.566,2.4v6.387l-1.67,0.424v2.479h7.462v-2.479l-1.671-0.424v-7.166c0-0.132-0.005-0.262-0.014-0.389
		c-0.01-0.128-0.015-0.281-0.015-0.461c0.255-0.462,0.597-0.823,1.026-1.083s0.938-0.39,1.522-0.39c0.745,0,1.308,0.227,1.685,0.68
		c0.378,0.453,0.566,1.261,0.566,2.422v6.387l-1.783,0.424v2.479h7.915v-2.479l-1.997-0.424v-6.373c0-2.133-0.436-3.722-1.31-4.765
		c-0.873-1.043-2.065-1.564-3.575-1.564c-1.02,0-1.906,0.231-2.662,0.694c-0.756,0.462-1.369,1.104-1.841,1.926
		c-0.358-0.879-0.888-1.534-1.586-1.969s-1.538-0.651-2.521-0.651c-0.973,0-1.829,0.2-2.57,0.602
		c-0.74,0.401-1.357,0.97-1.848,1.706l-0.17-2.024h-6.047v2.492L141.623,124.55z M136.555,114.864h-4.135v3.102h4.135V114.864z
		 M130.423,136.954h8.114v-2.479l-1.982-0.424v-12.419h-6.344v2.492l2.209,0.425v9.502l-1.997,0.424V136.954z M123.074,117.781
		v16.271l-1.997,0.424v2.479h8.128v-2.479l-1.996-0.424v-19.188h-6.344v2.492L123.074,117.781z M115.555,129.718
		c0,1.379-0.212,2.443-0.637,3.193c-0.425,0.751-1.17,1.126-2.237,1.126c-0.651,0-1.201-0.123-1.65-0.368
		c-0.448-0.245-0.8-0.604-1.055-1.076v-6.471c0.255-0.501,0.604-0.886,1.048-1.154c0.444-0.27,0.986-0.404,1.628-0.404
		c1.057,0,1.805,0.438,2.245,1.311c0.438,0.873,0.658,2.056,0.658,3.547V129.718z M119.675,129.421c0-2.445-0.51-4.401-1.529-5.869
		s-2.501-2.202-4.446-2.202c-0.802,0-1.513,0.165-2.131,0.495c-0.618,0.331-1.149,0.803-1.593,1.416v-8.396h-6.315v2.492
		l2.195,0.425v19.173h3.568l0.297-1.883c0.453,0.707,1.01,1.248,1.671,1.621s1.439,0.559,2.336,0.559
		c1.926,0,3.398-0.684,4.418-2.053s1.529-3.195,1.529-5.48V129.421z M97.755,136.954h5.48v-2.479l-1.855-0.424v-12.419h-4.135
		h-1.812v2.492l1.812,0.425v8.256c-0.302,0.396-0.691,0.7-1.168,0.913c-0.477,0.212-1.041,0.318-1.692,0.318
		c-0.736,0-1.291-0.243-1.664-0.729c-0.373-0.486-0.56-1.286-0.56-2.4v-9.274h-4.135h-1.685v2.492l1.685,0.425v6.33
		c0,2.18,0.458,3.787,1.374,4.821c0.916,1.033,2.181,1.55,3.795,1.55c0.925,0,1.749-0.193,2.471-0.58
		c0.722-0.387,1.329-0.939,1.819-1.656L97.755,136.954z M84.742,118.702c-0.887-0.803-1.982-1.445-3.285-1.926
		c-1.303-0.482-2.747-0.723-4.333-0.723c-2.143,0.028-3.922,0.573-5.338,1.636c-1.416,1.062-2.124,2.429-2.124,4.099
		c0,1.69,0.628,3.021,1.883,3.994c1.255,0.972,3.106,1.812,5.551,2.52c1.407,0.426,2.391,0.879,2.952,1.359
		c0.562,0.482,0.843,1.119,0.843,1.912c0,0.774-0.295,1.393-0.885,1.855c-0.59,0.462-1.452,0.693-2.584,0.693
		c-0.878,0-1.673-0.111-2.386-0.333c-0.712-0.222-1.276-0.503-1.692-0.843l-0.439-2.931h-3.2v4.305
		c0.878,0.916,1.976,1.633,3.292,2.152c1.317,0.52,2.792,0.778,4.425,0.778c2.285,0,4.125-0.51,5.522-1.529s2.096-2.411,2.096-4.177
		c0-1.689-0.587-3.054-1.763-4.093c-1.175-1.038-2.9-1.873-5.175-2.506c-1.586-0.5-2.702-0.975-3.349-1.423
		c-0.646-0.448-0.97-1.022-0.97-1.721c0-0.755,0.309-1.371,0.928-1.848c0.618-0.477,1.494-0.716,2.626-0.716
		c0.774,0,1.506,0.086,2.195,0.256s1.213,0.367,1.572,0.594l0.538,2.832h3.101V118.702z"/>
	<path opacity="0.902" fill="#231F20" d="M138.164,228.024L138.164,228.024L138.164,228.024L138.164,228.024 M217.449,202.311
		l-0.097,0.056c0,0,0,0,0,0.001L217.449,202.311 M122.686,22.188c1.121-0.137,2.246-0.203,3.371-0.204
		c1.112,0.001,2.226,0.065,3.335,0.2c1.059,0.12,2.087,0.295,3.058,0.522c1.972,0.457,3.693,1.131,4.96,1.866l0.102,0.059
		c0.218,0.115,0.436,0.234,0.651,0.359l0.001,0l69.757,40.274c0.226,0.13,0.446,0.264,0.663,0.401l0.07,0.04
		c1.271,0.73,2.716,1.884,4.098,3.364c0.61,0.649,1.208,1.361,1.779,2.118c0.124,0.16,0.245,0.322,0.365,0.484
		c1.323,1.806,2.429,3.75,3.285,5.823c1.227,2.871,1.842,5.753,1.827,7.874v0.016c0.013,0.281,0.02,0.564,0.02,0.849v80.549
		c-0.001,0.273-0.008,0.545-0.02,0.813v0.038c0.004,1.465-0.273,3.293-0.864,5.229c-0.229,0.762-0.507,1.539-0.826,2.317
		c-0.113,0.284-0.23,0.565-0.352,0.846c-0.997,2.263-2.273,4.382-3.838,6.31c-0.779,0.98-1.599,1.874-2.422,2.646
		c-1.004,0.944-2.013,1.703-2.933,2.247c-0.277,0.18-0.561,0.354-0.852,0.522h-0.001l-69.758,40.274l-0.022,0.013l0.022-0.013l0,0
		c-0.287,0.165-0.576,0.322-0.866,0.471c-1.256,0.71-2.935,1.358-4.848,1.801c-0.55,0.129-1.117,0.24-1.699,0.335
		c-1.558,0.271-3.126,0.399-4.693,0.4c-1.572-0.001-3.143-0.13-4.705-0.402c-0.577-0.094-1.141-0.205-1.687-0.333
		c-1.906-0.441-3.58-1.086-4.834-1.793c-0.295-0.151-0.589-0.311-0.882-0.479h0.001l-69.703-40.24l-0.056-0.032
		c-0.298-0.173-0.589-0.351-0.872-0.535c-1.236-0.732-2.627-1.856-3.958-3.282c-0.451-0.479-0.895-0.993-1.326-1.534
		c-0.282-0.346-0.555-0.698-0.818-1.056c-1.407-1.922-2.57-4.001-3.446-6.224c-1.116-2.736-1.677-5.452-1.665-7.478
		c-0.012-0.284-0.019-0.571-0.02-0.86v-80.55c0.001-0.278,0.008-0.553,0.02-0.827v-0.038c-0.004-1.465,0.273-3.293,0.864-5.229
		c0.268-0.89,0.601-1.8,0.99-2.709c0.062-0.148,0.124-0.295,0.188-0.441c0.89-2.021,2.003-3.927,3.345-5.685
		c0.922-1.232,1.916-2.347,2.913-3.283c1.048-0.984,2.1-1.768,3.053-2.316l0.101-0.058c0.208-0.131,0.418-0.258,0.633-0.382
		l69.759-40.275c0.222-0.128,0.445-0.251,0.669-0.369l0.084-0.048c1.267-0.736,2.989-1.41,4.961-1.867
		C120.625,22.482,121.641,22.308,122.686,22.188 M126.058,4.598c-3.481,0.001-6.962,0.376-10.341,1.162
		c-3.377,0.79-6.66,1.986-9.711,3.743L34.758,50.636c-3.047,1.764-5.725,4.009-8.098,6.539c-3.551,3.802-6.434,8.255-8.532,13.029
		c-2.081,4.779-3.407,9.883-3.422,15.164v82.266c0.004,3.521,0.61,6.962,1.614,10.281c1.518,4.977,3.932,9.7,7.017,13.905
		c1.546,2.1,3.265,4.067,5.162,5.849c1.897,1.779,3.973,3.376,6.26,4.697l71.247,41.133l0,0.001
		c3.051,1.757,6.334,2.952,9.711,3.742c3.379,0.786,6.86,1.16,10.341,1.162c3.481-0.002,6.962-0.376,10.341-1.162
		c3.377-0.79,6.659-1.985,9.711-3.742l0.029-0.018l71.214-41.116c3.048-1.764,5.726-4.009,8.099-6.538
		c3.551-3.803,6.436-8.256,8.534-13.03c2.081-4.779,3.407-9.883,3.423-15.164V85.368c-0.004-3.521-0.61-6.962-1.614-10.281
		c-1.518-4.976-3.934-9.7-7.019-13.904c-1.546-2.1-3.266-4.067-5.162-5.849c-1.898-1.78-3.974-3.376-6.261-4.698L146.109,9.504
		c-3.051-1.758-6.333-2.953-9.71-3.744C133.021,4.975,129.539,4.6,126.058,4.598"/>
	<path opacity="0.302" fill="#231F20" d="M122.2,39.279L122.2,39.279C122.2,39.28,122.2,39.28,122.2,39.279L122.2,39.279
		 M126.057,38.484c0.006,0,0.012,0,0.017,0c0.839,0,1.677,0.099,2.364,0.26c0.692,0.159,1.225,0.387,1.477,0.536l69.757,40.274
		l0.001,0c0.254,0.143,0.718,0.49,1.201,1.01c0.733,0.773,1.497,1.928,1.979,3.045c0.5,1.112,0.689,2.184,0.675,2.623v80.549
		c0.004,0.292-0.065,0.866-0.274,1.545c-0.303,1.022-0.921,2.261-1.647,3.237c-0.36,0.49-0.742,0.918-1.089,1.243
		c-0.346,0.325-0.656,0.545-0.847,0.653l-69.733,40.261l-0.024,0.014c-0.251,0.149-0.783,0.377-1.476,0.536
		c-0.687,0.161-1.524,0.26-2.363,0.26c-0.005,0-0.011,0-0.017,0s-0.012,0-0.017,0c-0.839,0-1.676-0.099-2.362-0.26
		c-0.693-0.159-1.225-0.387-1.476-0.536l-0.039-0.022l-33.406-19.285l-6.766,11.767l-2.681-1.541l6.768-11.772l-33.636-19.418h0
		c-0.255-0.144-0.719-0.49-1.202-1.011c-0.734-0.774-1.497-1.929-1.98-3.046c-0.5-1.112-0.689-2.184-0.674-2.623v-80.55
		c-0.003-0.292,0.065-0.867,0.274-1.546c0.303-1.022,0.921-2.261,1.648-3.237c0.36-0.49,0.742-0.918,1.088-1.242
		c0.345-0.326,0.655-0.545,0.845-0.653L122.2,39.279c0.251-0.148,0.783-0.376,1.476-0.535c0.687-0.161,1.525-0.26,2.363-0.26
		C126.045,38.484,126.051,38.484,126.057,38.484 M126.078,21.999c-0.006,0-0.013,0-0.02,0c-0.007,0-0.013,0-0.02,0
		c-1.128,0-2.256,0.065-3.352,0.19c-0.921,0.113-1.84,0.274-2.754,0.486c-1.794,0.42-3.577,1.035-5.312,1.946L43.559,65.647
		c-1.666,1.049-3.096,2.291-4.363,3.639c-0.604,0.648-1.172,1.322-1.704,2.019c-0.047,0.063-0.094,0.126-0.14,0.189
		c-1.339,1.812-2.509,3.873-3.392,5.936c-1.024,2.468-1.729,5.109-1.854,7.976v82.228c0,0.003,0,0.007,0,0.01
		c0.085,1.922,0.441,3.742,0.965,5.477c0.208,0.68,0.441,1.346,0.7,2.001c0.094,0.231,0.193,0.464,0.295,0.695
		c1.015,2.331,2.412,4.634,3.969,6.584c0.696,0.854,1.45,1.67,2.269,2.439c0.916,0.858,1.913,1.661,3.015,2.377
		c0.046,0.027,0.092,0.055,0.139,0.081l71.247,41.132c0.042,0.024,0.084,0.049,0.126,0.073c1.668,0.852,3.379,1.434,5.1,1.838
		c0.473,0.109,0.947,0.205,1.421,0.288c1.502,0.245,3.094,0.375,4.687,0.375c0.006,0,0.013,0,0.019,0s0.013,0,0.019,0
		c1.588,0,3.176-0.129,4.674-0.373c0.479-0.083,0.956-0.18,1.433-0.29c1.726-0.405,3.442-0.99,5.114-1.846
		c0.038-0.021,0.076-0.043,0.113-0.065l0,0l0.03-0.018l71.115-41.059l0.098-0.056c0.04-0.023,0.08-0.047,0.12-0.07
		c1.572-1.019,2.933-2.211,4.144-3.5c0.422-0.452,0.825-0.916,1.211-1.393c0.215-0.27,0.426-0.545,0.633-0.827
		c1.424-1.927,2.657-4.135,3.557-6.328c0.937-2.354,1.573-4.867,1.69-7.584V85.384c-0.084-1.926-0.44-3.75-0.966-5.489
		c-0.25-0.818-0.538-1.619-0.861-2.401c-0.043-0.103-0.088-0.205-0.133-0.307c-0.916-2.103-2.143-4.182-3.518-6.001
		c-0.819-1.063-1.723-2.072-2.723-3.011c-0.973-0.912-2.038-1.761-3.225-2.51l-71.072-41.034c-1.74-0.917-3.529-1.534-5.329-1.956
		c-0.927-0.215-1.857-0.377-2.79-0.491C128.308,22.062,127.192,21.999,126.078,21.999"/>
	<polyline fill="#BDBBBC" points="86.078,192.881 79.31,204.653 81.99,206.194 88.756,194.428 86.078,192.881 	"/>
	<path opacity="0.9333" fill="#231F20" d="M121.352,230.629c1.562,0.272,3.133,0.401,4.705,0.402c1.567-0.001,3.136-0.129,4.693-0.4
		c-1.498,0.244-3.086,0.373-4.674,0.373c-0.006,0-0.013,0-0.019,0s-0.013,0-0.019,0
		C124.446,231.004,122.854,230.874,121.352,230.629 M138.163,228.024L138.163,228.024L138.163,228.024L138.163,228.024
		 M208.773,187.228c-0.04,0.023-0.08,0.047-0.12,0.07l-0.098,0.056l-71.115,41.059l-0.03,0.018
		c-0.037,0.022-0.075,0.044-0.113,0.065c0.29-0.148,0.579-0.306,0.866-0.471l0,0l-0.022,0.013l0.022-0.013l69.758-40.274h0.001
		C208.213,187.581,208.496,187.407,208.773,187.228 M43.319,187.217c0.283,0.185,0.574,0.362,0.872,0.535l0.056,0.032l69.703,40.24
		h-0.001c0.292,0.168,0.586,0.327,0.882,0.479c-0.042-0.024-0.085-0.049-0.126-0.073l-71.247-41.132
		C43.412,187.271,43.366,187.244,43.319,187.217 M218.317,175.18c-0.899,2.193-2.133,4.401-3.557,6.328
		c-0.207,0.282-0.418,0.558-0.633,0.827c1.564-1.928,2.841-4.047,3.838-6.31C218.087,175.745,218.204,175.464,218.317,175.18
		 M33.771,175.121c0.876,2.223,2.039,4.302,3.446,6.224c0.264,0.357,0.536,0.71,0.818,1.056c-1.557-1.95-2.954-4.253-3.969-6.584
		C33.963,175.585,33.865,175.353,33.771,175.121 M32.106,85.406c-0.012,0.273-0.019,0.549-0.02,0.827v80.55
		c0,0.289,0.007,0.576,0.02,0.86c0-0.003,0-0.007,0-0.01V85.406 M220.008,85.384v82.212c0.012-0.269,0.019-0.54,0.02-0.813V86.233
		C220.027,85.948,220.021,85.665,220.008,85.384 M37.492,71.305c-1.342,1.758-2.455,3.664-3.345,5.685
		c-0.063,0.146-0.126,0.293-0.188,0.441c0.883-2.063,2.053-4.124,3.392-5.936C37.398,71.431,37.445,71.368,37.492,71.305
		 M214.53,71.187c1.375,1.819,2.602,3.898,3.518,6.001c0.045,0.102,0.09,0.204,0.133,0.307c-0.856-2.073-1.962-4.018-3.285-5.823
		C214.775,71.508,214.654,71.347,214.53,71.187 M137.511,24.631l71.072,41.034c-0.217-0.137-0.438-0.271-0.663-0.401L138.163,24.99
		l-0.001,0C137.946,24.865,137.729,24.746,137.511,24.631 M114.621,24.621c-0.224,0.118-0.447,0.241-0.669,0.369L44.192,65.265
		c-0.215,0.124-0.425,0.251-0.633,0.382L114.621,24.621 M126.057,21.984c-1.125,0.001-2.25,0.067-3.371,0.204
		c1.096-0.125,2.224-0.19,3.352-0.19c0.007,0,0.013,0,0.02,0c0.006,0,0.013,0,0.02,0c1.115,0,2.23,0.063,3.314,0.186
		C128.282,22.05,127.169,21.985,126.057,21.984"/>
</g>
</svg>
