<?xml version="1.0" encoding="utf-8"?>
<!-- Generator: Adobe Illustrator 15.1.0, SVG Export Plug-In . SVG Version: 6.00 Build 0)  -->
<!DOCTYPE svg PUBLIC "-//W3C//DTD SVG 1.1//EN" "http://www.w3.org/Graphics/SVG/1.1/DTD/svg11.dtd">
<svg version="1.1" id="Layer_1" xmlns="http://www.w3.org/2000/svg" xmlns:xlink="http://www.w3.org/1999/xlink" x="0px" y="0px"
	 width="252px" height="252px" viewBox="0 0 252 252" enable-background="new 0 0 252 252" xml:space="preserve">
<g>
	<path fill="#006E9C" d="M141.642,112.755h5.166c1.707,0,2.998,0.479,3.873,1.438c0.875,0.959,1.312,2.173,1.312,3.643
		c0,1.442-0.438,2.628-1.312,3.559c-0.875,0.931-2.166,1.396-3.873,1.396h-5.166V112.755z M135.511,108.031h-3.254v3.695l3.254,0.63
		v21.941l-3.254,0.63v3.675h12.66v-3.675l-3.275-0.63v-6.781h5.166c3.499,0,6.26-0.889,8.282-2.667
		c2.022-1.777,3.034-4.129,3.034-7.055c0-2.911-1.012-5.267-3.034-7.065c-2.022-1.799-4.783-2.698-8.282-2.698H135.511z
		 M130.451,108.031h-11.233v3.695l2.793,0.483l-3.485,16.755l-0.126,0.021l-5.773-20.954h-4.515l-5.731,20.954l-0.127-0.021
		l-3.506-16.755l2.793-0.483v-3.695H90.286v3.695l2.498,0.315l6.236,26.561h5.689l5.605-20.178h0.127l5.605,20.178h5.689
		l6.194-26.561l2.52-0.315V108.031z"/>
	<path fill="#006E9C" d="M30.555,30.553v190.449H221v-13.824V30.553H30.555 M58.203,58.201h135.152V193.35H58.203V58.201"/>
	<polyline fill="#EAEBEC" points="124,58.201 58.203,58.201 58.203,98.557 58.203,58.201 124,58.201 	"/>
	<polyline fill="#CCE2EB" points="124,30.553 44.375,30.553 44.375,30.584 30.555,30.584 30.555,221.002 58.203,221.002 
		58.203,193.35 58.203,58.201 124,58.201 124,30.553 	"/>
	<polyline fill="#FBFBFB" points="58.203,58.201 58.203,58.201 58.203,98.557 58.203,58.201 	"/>
</g>
</svg>
